<svg xmlns="http://www.w3.org/2000/svg" xmlns:xlink="http://www.w3.org/1999/xlink" width="40" zoomAndPan="magnify" viewBox="0 0 30 30.000001" height="40" preserveAspectRatio="xMidYMid meet" version="1.0"><defs><clipPath id="644c831b89"><path d="M 3.386719 16 L 26.613281 16 L 26.613281 18 L 3.386719 18 Z M 3.386719 16 " clip-rule="nonzero"/></clipPath><clipPath id="905291bc5b"><path d="M 6 22 L 24 22 L 24 23.328125 L 6 23.328125 Z M 6 22 " clip-rule="nonzero"/></clipPath><clipPath id="eb11af955a"><path d="M 3.386719 11 L 6 11 L 6 13 L 3.386719 13 Z M 3.386719 11 " clip-rule="nonzero"/></clipPath></defs><path fill="#00bf63" d="M 25.574219 17.289062 L 4.507812 17.289062 C 4.304688 17.289062 4.183594 17.085938 4.265625 16.898438 C 4.628906 16.101562 6.570312 12.039062 8.609375 11.632812 C 8.785156 11.605469 10.484375 12.335938 10.769531 12.457031 C 11.199219 11.632812 12.738281 8.855469 14.304688 8.289062 C 14.386719 8.261719 14.480469 8.273438 14.5625 8.328125 L 17.8125 10.742188 C 18.003906 10.796875 21.6875 9.503906 23.078125 13.859375 C 23.738281 13.984375 25.980469 14.5625 25.84375 17.03125 C 25.832031 17.167969 25.722656 17.289062 25.574219 17.289062 Z M 4.925781 16.75 L 25.304688 16.75 C 25.25 14.617188 22.941406 14.375 22.847656 14.375 C 22.738281 14.359375 22.644531 14.28125 22.605469 14.171875 C 21.835938 11.539062 20.269531 10.90625 18.136719 11.242188 C 17.933594 11.285156 17.707031 11.335938 17.558594 11.230469 L 14.359375 8.855469 C 12.792969 9.554688 11.160156 12.875 11.148438 12.917969 C 11.078125 13.039062 10.929688 13.09375 10.796875 13.050781 L 8.648438 12.1875 C 7.289062 12.539062 5.761719 15.046875 4.925781 16.75 Z M 4.925781 16.75 " fill-opacity="1" fill-rule="evenodd"/><g clip-path="url(#644c831b89)"><path fill="#00bf63" d="M 26.261719 17.289062 L 3.832031 17.289062 C 3.46875 17.289062 3.46875 16.75 3.832031 16.75 L 26.261719 16.75 C 26.613281 16.75 26.613281 17.289062 26.261719 17.289062 Z M 26.261719 17.289062 " fill-opacity="1" fill-rule="evenodd"/></g><path fill="#00bf63" d="M 25.492188 19.230469 L 19.054688 19.230469 C 18.703125 19.230469 18.703125 18.691406 19.054688 18.691406 L 25.492188 18.691406 C 25.855469 18.691406 25.84375 19.230469 25.492188 19.230469 Z M 17.734375 19.230469 L 15.507812 19.230469 C 15.15625 19.230469 15.15625 18.691406 15.507812 18.691406 L 17.734375 18.691406 C 18.082031 18.691406 18.082031 19.230469 17.734375 19.230469 Z M 14.183594 19.230469 L 7.3125 19.230469 C 6.964844 19.230469 6.964844 18.691406 7.3125 18.691406 L 14.183594 18.691406 C 14.535156 18.691406 14.535156 19.230469 14.183594 19.230469 Z M 5.992188 19.230469 L 4.589844 19.230469 C 4.238281 19.230469 4.238281 18.691406 4.589844 18.691406 L 5.992188 18.691406 C 6.34375 18.691406 6.34375 19.230469 5.992188 19.230469 Z M 5.992188 19.230469 " fill-opacity="1" fill-rule="evenodd"/><path fill="#00bf63" d="M 24.101562 21.175781 L 22.886719 21.175781 C 22.539062 21.175781 22.539062 20.636719 22.886719 20.636719 L 24.101562 20.636719 C 24.453125 20.636719 24.453125 21.175781 24.101562 21.175781 Z M 21.726562 21.175781 L 15.789062 21.175781 C 15.4375 21.175781 15.4375 20.636719 15.789062 20.636719 L 21.726562 20.636719 C 22.09375 20.636719 22.09375 21.175781 21.726562 21.175781 Z M 14.628906 21.175781 L 12.710938 21.175781 C 12.363281 21.175781 12.363281 20.636719 12.710938 20.636719 L 14.628906 20.636719 C 14.992188 20.636719 14.992188 21.175781 14.628906 21.175781 Z M 11.566406 21.175781 L 5.992188 21.175781 C 5.628906 21.175781 5.628906 20.636719 5.992188 20.636719 L 11.566406 20.636719 C 11.917969 20.636719 11.917969 21.175781 11.566406 21.175781 Z M 11.566406 21.175781 " fill-opacity="1" fill-rule="evenodd"/><g clip-path="url(#905291bc5b)"><path fill="#00bf63" d="M 22.886719 23.117188 L 18.058594 23.117188 C 17.707031 23.117188 17.707031 22.578125 18.058594 22.578125 L 22.886719 22.578125 C 23.238281 22.578125 23.238281 23.117188 22.886719 23.117188 Z M 17.058594 23.117188 L 15.398438 23.117188 C 15.035156 23.117188 15.035156 22.578125 15.398438 22.578125 L 17.058594 22.578125 C 17.410156 22.578125 17.410156 23.117188 17.058594 23.117188 Z M 14.398438 23.117188 L 9.246094 23.117188 C 8.894531 23.117188 8.894531 22.578125 9.246094 22.578125 L 14.398438 22.578125 C 14.75 22.578125 14.75 23.117188 14.398438 23.117188 Z M 8.246094 23.117188 L 7.191406 23.117188 C 6.84375 23.117188 6.84375 22.578125 7.191406 22.578125 L 8.246094 22.578125 C 8.597656 22.578125 8.597656 23.117188 8.246094 23.117188 Z M 8.246094 23.117188 " fill-opacity="1" fill-rule="evenodd"/></g><path fill="#00bf63" d="M 21.121094 11.703125 C 20.902344 11.703125 20.769531 11.433594 20.917969 11.257812 C 21.445312 10.59375 22.199219 10.21875 22.578125 10.054688 C 22.09375 8.503906 20.878906 7.800781 19.296875 8.152344 C 19.515625 9.972656 18.570312 11.59375 18.109375 11.148438 C 18.003906 11.039062 18.003906 10.863281 18.109375 10.757812 C 19.070312 9.785156 18.746094 8.03125 18.730469 8.003906 C 18.703125 7.867188 18.785156 7.734375 18.921875 7.695312 C 20.972656 7.113281 22.644531 8.085938 23.15625 10.136719 C 23.292969 10.636719 22.265625 10.445312 21.335938 11.59375 C 21.28125 11.660156 21.203125 11.703125 21.121094 11.703125 Z M 21.121094 11.703125 " fill-opacity="1" fill-rule="evenodd"/><path fill="#00bf63" d="M 21.484375 8.4375 C 21.28125 8.4375 21.148438 8.207031 21.253906 8.019531 C 21.269531 7.992188 21.6875 7.261719 21.066406 6.53125 C 20.824219 6.261719 21.242188 5.914062 21.472656 6.183594 C 22.265625 7.113281 21.902344 8.4375 21.484375 8.4375 Z M 21.484375 8.4375 " fill-opacity="1" fill-rule="evenodd"/><path fill="#00bf63" d="M 22.511719 8.800781 C 20.890625 8.800781 20.890625 7.289062 22.511719 7.289062 C 24.117188 7.289062 24.117188 8.800781 22.511719 8.800781 Z M 22.511719 7.828125 C 22.105469 7.828125 21.847656 7.976562 21.835938 8.042969 C 21.847656 8.097656 22.078125 8.261719 22.511719 8.261719 C 22.929688 8.261719 23.171875 8.097656 23.183594 8.042969 C 23.171875 7.976562 22.914062 7.828125 22.511719 7.828125 Z M 22.511719 7.828125 " fill-opacity="1" fill-rule="evenodd"/><path fill="#00bf63" d="M 21.054688 10.527344 C 20.808594 10.527344 20.6875 10.246094 20.863281 10.070312 C 21.160156 9.773438 21.445312 9.367188 21.699219 9.625 C 21.957031 9.878906 21.539062 10.148438 21.242188 10.460938 C 21.1875 10.5 21.121094 10.527344 21.054688 10.527344 Z M 21.054688 10.527344 " fill-opacity="1" fill-rule="evenodd"/><path fill="#00bf63" d="M 19.960938 9.878906 C 19.714844 9.878906 19.59375 9.597656 19.769531 9.421875 C 20.066406 9.125 20.351562 8.707031 20.605469 8.960938 C 20.863281 9.21875 20.445312 9.503906 20.148438 9.800781 C 20.09375 9.851562 20.027344 9.878906 19.960938 9.878906 Z M 19.960938 9.878906 " fill-opacity="1" fill-rule="evenodd"/><path fill="#00bf63" d="M 10.902344 13.066406 C 10.742188 13.066406 8.730469 12.1875 8.648438 12.1875 C 8.488281 12.175781 7.933594 12.660156 7.8125 12.203125 L 6.695312 8.003906 C 6.652344 7.867188 6.734375 7.71875 6.882812 7.679688 L 8.042969 7.371094 C 8.179688 7.328125 8.328125 7.410156 8.367188 7.558594 L 8.8125 9.207031 L 11.496094 8.488281 L 11.050781 6.84375 C 11.011719 6.695312 11.09375 6.546875 11.242188 6.507812 C 11.605469 6.410156 12.429688 6.128906 12.605469 6.222656 C 12.660156 6.261719 12.710938 6.316406 12.726562 6.398438 L 13.496094 9.273438 C 13.523438 9.367188 13.496094 9.476562 13.429688 9.542969 C 12.199219 10.757812 11.160156 12.890625 11.148438 12.917969 C 11.09375 13.011719 11 13.066406 10.902344 13.066406 Z M 8.664062 11.632812 C 8.785156 11.632812 10.511719 12.351562 10.769531 12.457031 C 11.066406 11.878906 11.917969 10.324219 12.941406 9.273438 L 12.28125 6.789062 L 11.644531 6.964844 L 12.078125 8.613281 C 12.117188 8.761719 12.039062 8.910156 11.890625 8.949219 L 8.691406 9.800781 C 8.542969 9.839844 8.394531 9.757812 8.367188 9.609375 L 7.921875 7.964844 L 7.289062 8.125 L 8.257812 11.742188 Z M 8.664062 11.632812 " fill-opacity="1" fill-rule="evenodd"/><path fill="#00bf63" d="M 16.746094 15.589844 C 16.421875 15.589844 15.695312 14.402344 15.640625 14.292969 C 15.574219 14.171875 15.628906 14.007812 15.75 13.941406 L 17.746094 12.78125 C 18.207031 12.523438 18.488281 13.710938 18.675781 14.210938 C 18.730469 14.359375 18.691406 14.496094 18.582031 14.5625 C 18.328125 14.710938 16.894531 15.589844 16.746094 15.589844 Z M 16.25 14.28125 C 16.382812 14.480469 16.570312 14.726562 16.800781 14.96875 L 18.109375 14.210938 C 18.015625 13.886719 17.894531 13.617188 17.785156 13.390625 Z M 16.25 14.28125 " fill-opacity="1" fill-rule="evenodd"/><path fill="#00bf63" d="M 17.746094 17.289062 C 16.828125 17.289062 16.667969 15.695312 16.503906 15.453125 C 15.777344 14.683594 15.4375 14.078125 15.382812 13.457031 C 15.371094 13.265625 15.53125 13.1875 15.679688 13.050781 C 15.195312 12.929688 15.519531 12.742188 15.289062 12.09375 C 15.167969 11.796875 15.613281 11.648438 16.03125 11.40625 C 16.328125 11.230469 16.316406 11.582031 17.070312 11.972656 C 17.613281 12.253906 18.179688 12.550781 18.675781 14.199219 C 18.8125 14.480469 19.824219 15.117188 19.433594 15.453125 L 19.324219 15.546875 C 19.488281 15.574219 19.730469 15.617188 19.714844 15.871094 C 19.664062 16.492188 19 16.65625 18.367188 17.058594 C 18.152344 17.207031 17.949219 17.289062 17.746094 17.289062 Z M 15.9375 13.539062 C 16.085938 14.332031 16.828125 14.925781 16.964844 15.171875 C 17.316406 15.777344 17.300781 17.140625 18.070312 16.613281 L 19.054688 16.035156 C 18.785156 15.964844 18.542969 15.953125 18.488281 15.738281 C 18.433594 15.519531 18.664062 15.398438 18.878906 15.210938 C 18.703125 14.996094 18.246094 14.617188 18.164062 14.386719 C 17.515625 12.253906 16.910156 12.742188 16.113281 11.972656 L 15.855469 12.121094 C 15.898438 12.28125 15.925781 12.417969 15.925781 12.550781 C 16.207031 12.621094 16.476562 12.632812 16.519531 12.847656 C 16.585938 13.09375 16.25 13.28125 15.9375 13.539062 Z M 15.9375 13.539062 " fill-opacity="1" fill-rule="evenodd"/><path fill="#00bf63" d="M 15.195312 12.472656 C 14.953125 12.472656 14.789062 12.039062 14.5625 11.632812 C 14.492188 11.511719 14.535156 11.351562 14.667969 11.269531 L 15.976562 10.515625 C 16.316406 10.324219 16.492188 10.863281 16.746094 11.296875 C 16.816406 11.433594 16.773438 11.59375 16.652344 11.675781 C 16.4375 11.796875 15.34375 12.472656 15.195312 12.472656 Z M 15.167969 11.605469 L 15.304688 11.824219 L 16.140625 11.335938 L 16.019531 11.109375 Z M 15.167969 11.605469 " fill-opacity="1" fill-rule="evenodd"/><path fill="#00bf63" d="M 13.507812 17.289062 C 13.0625 17.289062 9.878906 17.328125 9.730469 17.25 L 8.851562 16.722656 C 8.757812 16.683594 8.71875 16.585938 8.71875 16.492188 L 8.71875 14.777344 C 8.71875 14.683594 8.757812 14.601562 8.851562 14.550781 C 10.011719 13.859375 9.515625 13.996094 10.878906 13.996094 C 11 13.996094 11.105469 14.078125 11.132812 14.199219 C 11.644531 13.875 11.644531 14.078125 11.941406 14.777344 C 12.414062 14.253906 12.402344 14.320312 12.914062 14.953125 C 13.144531 14.375 13.199219 13.996094 13.507812 13.996094 C 13.941406 13.996094 14.277344 14.332031 14.277344 14.765625 L 14.277344 16.507812 C 14.277344 16.9375 13.925781 17.289062 13.507812 17.289062 Z M 9.933594 16.75 L 13.507812 16.75 C 13.628906 16.75 13.738281 16.640625 13.738281 16.507812 L 13.738281 14.765625 C 13.738281 14.683594 13.699219 14.617188 13.644531 14.578125 L 13.253906 15.574219 C 13.171875 15.765625 12.914062 15.804688 12.792969 15.640625 L 12.363281 15.117188 C 12.160156 15.34375 12.023438 15.574219 11.808594 15.546875 C 11.578125 15.507812 11.484375 15.074219 11.324219 14.710938 C 10.972656 14.941406 10.769531 15.046875 10.648438 14.535156 C 9.757812 14.535156 10.09375 14.441406 9.257812 14.941406 L 9.257812 16.34375 Z M 9.933594 16.75 " fill-opacity="1" fill-rule="evenodd"/><path fill="#00bf63" d="M 8.988281 17.101562 L 7.90625 17.101562 C 7.746094 17.101562 7.636719 16.980469 7.636719 16.832031 L 7.636719 14.453125 C 7.636719 14.304688 7.746094 14.183594 7.90625 14.183594 L 8.988281 14.183594 C 9.136719 14.183594 9.257812 14.304688 9.257812 14.453125 L 9.257812 16.832031 C 9.257812 16.980469 9.136719 17.101562 8.988281 17.101562 Z M 8.179688 16.558594 L 8.71875 16.558594 L 8.71875 14.726562 L 8.179688 14.726562 Z M 8.179688 16.558594 " fill-opacity="1" fill-rule="evenodd"/><path fill="#00bf63" d="M 12.671875 17.289062 L 10.324219 17.289062 C 10.175781 17.289062 10.054688 17.167969 10.054688 17.019531 L 10.054688 14.265625 C 10.054688 13.914062 10.511719 13.996094 10.878906 13.996094 C 11 13.996094 11.105469 14.078125 11.132812 14.199219 C 11.644531 13.875 11.644531 14.078125 11.941406 14.777344 C 12.402344 14.265625 12.402344 14.320312 12.875 14.898438 C 12.914062 14.953125 12.941406 15.007812 12.941406 15.074219 L 12.941406 17.019531 C 12.941406 17.167969 12.820312 17.289062 12.671875 17.289062 Z M 10.59375 16.75 L 12.402344 16.75 L 12.402344 15.171875 L 12.363281 15.117188 C 12.160156 15.34375 12.023438 15.574219 11.808594 15.546875 C 11.578125 15.507812 11.484375 15.074219 11.324219 14.710938 C 10.972656 14.941406 10.769531 15.046875 10.648438 14.535156 L 10.59375 14.535156 Z M 10.59375 16.75 " fill-opacity="1" fill-rule="evenodd"/><path fill="#00bf63" d="M 20.121094 13.96875 C 18.824219 13.96875 18.824219 12 20.121094 12 C 21.429688 12 21.429688 13.96875 20.121094 13.96875 Z M 20.121094 12.539062 C 19.542969 12.539062 19.542969 13.429688 20.121094 13.429688 C 20.714844 13.429688 20.714844 12.539062 20.121094 12.539062 Z M 20.121094 12.539062 " fill-opacity="1" fill-rule="evenodd"/><path fill="#00bf63" d="M 23.210938 16.074219 C 23.144531 16.074219 23.089844 16.046875 23.035156 16.007812 C 21.847656 14.996094 21 15.992188 20.796875 15.46875 C 20.753906 15.332031 20.824219 15.171875 20.957031 15.117188 C 22.09375 14.699219 23.832031 15.480469 23.414062 15.980469 C 23.359375 16.046875 23.292969 16.074219 23.210938 16.074219 Z M 23.210938 16.074219 " fill-opacity="1" fill-rule="evenodd"/><path fill="#00bf63" d="M 12.066406 13.589844 C 11.847656 13.589844 11.726562 13.347656 11.835938 13.171875 C 12.660156 11.945312 13.980469 12.027344 14.035156 12.039062 C 14.386719 12.066406 14.359375 12.59375 13.996094 12.578125 C 13.953125 12.566406 12.929688 12.511719 12.292969 13.46875 C 12.238281 13.550781 12.160156 13.589844 12.066406 13.589844 Z M 12.066406 13.589844 " fill-opacity="1" fill-rule="evenodd"/><path fill="#00bf63" d="M 16.355469 8.167969 C 16.222656 8.167969 16.113281 8.070312 16.085938 7.9375 C 15.976562 7.316406 15.0625 7.382812 15.019531 7.382812 C 14.65625 7.410156 14.628906 6.871094 14.980469 6.84375 C 16.519531 6.722656 16.964844 8.167969 16.355469 8.167969 Z M 16.355469 8.167969 " fill-opacity="1" fill-rule="evenodd"/><path fill="#00bf63" d="M 16.355469 8.167969 C 15.734375 8.167969 16.179688 6.722656 17.734375 6.84375 C 18.082031 6.871094 18.042969 7.410156 17.691406 7.382812 C 17.636719 7.382812 16.71875 7.328125 16.613281 7.9375 C 16.597656 8.070312 16.476562 8.167969 16.355469 8.167969 Z M 16.355469 8.167969 " fill-opacity="1" fill-rule="evenodd"/><path fill="#00bf63" d="M 24.371094 12.511719 C 24.25 12.511719 24.128906 12.417969 24.117188 12.28125 C 24.007812 11.660156 23.050781 11.730469 23.035156 11.730469 C 22.6875 11.753906 22.644531 11.214844 22.996094 11.1875 C 24.546875 11.066406 24.992188 12.511719 24.371094 12.511719 Z M 24.371094 12.511719 " fill-opacity="1" fill-rule="evenodd"/><path fill="#00bf63" d="M 24.371094 12.511719 C 23.765625 12.511719 24.210938 11.066406 25.75 11.1875 C 26.113281 11.214844 26.058594 11.753906 25.707031 11.730469 C 25.667969 11.730469 24.75 11.675781 24.640625 12.28125 C 24.617188 12.417969 24.507812 12.511719 24.371094 12.511719 Z M 24.371094 12.511719 " fill-opacity="1" fill-rule="evenodd"/><g clip-path="url(#eb11af955a)"><path fill="#00bf63" d="M 5.128906 12.335938 C 4.992188 12.335938 4.886719 12.253906 4.859375 12.121094 C 4.75 11.5 3.832031 11.566406 3.792969 11.566406 C 3.425781 11.59375 3.386719 11.054688 3.738281 11.027344 C 5.289062 10.90625 5.734375 12.335938 5.128906 12.335938 Z M 5.128906 12.335938 " fill-opacity="1" fill-rule="evenodd"/></g><path fill="#00bf63" d="M 5.128906 12.335938 C 4.507812 12.335938 4.953125 10.90625 6.503906 11.027344 C 6.855469 11.054688 6.816406 11.59375 6.449219 11.566406 C 6.410156 11.566406 5.492188 11.5 5.382812 12.121094 C 5.371094 12.253906 5.25 12.335938 5.128906 12.335938 Z M 5.128906 12.335938 " fill-opacity="1" fill-rule="evenodd"/></svg>