<svg xmlns="http://www.w3.org/2000/svg" xmlns:xlink="http://www.w3.org/1999/xlink" width="40" zoomAndPan="magnify" viewBox="0 0 30 30.000001" height="40" preserveAspectRatio="xMidYMid meet" version="1.0"><defs><clipPath id="d4dc08d529"><path d="M 10 23 L 26.613281 23 L 26.613281 24 L 10 24 Z M 10 23 " clip-rule="nonzero"/></clipPath><clipPath id="720bd30433"><path d="M 10 14 L 26.613281 14 L 26.613281 24.925781 L 10 24.925781 Z M 10 14 " clip-rule="nonzero"/></clipPath><clipPath id="d8456aab4f"><path d="M 3.386719 4 L 19 4 L 19 24 L 3.386719 24 Z M 3.386719 4 " clip-rule="nonzero"/></clipPath><clipPath id="74d070350e"><path d="M 3.386719 4 L 19 4 L 19 22 L 3.386719 22 Z M 3.386719 4 " clip-rule="nonzero"/></clipPath><clipPath id="e9dabd3033"><path d="M 3.386719 3.875 L 19 3.875 L 19 23 L 3.386719 23 Z M 3.386719 3.875 " clip-rule="nonzero"/></clipPath><clipPath id="5414cd62fb"><path d="M 3.386719 5 L 5 5 L 5 7 L 3.386719 7 Z M 3.386719 5 " clip-rule="nonzero"/></clipPath><clipPath id="9547b24726"><path d="M 3.386719 13 L 5 13 L 5 15 L 3.386719 15 Z M 3.386719 13 " clip-rule="nonzero"/></clipPath><clipPath id="79a3e4ef42"><path d="M 3.386719 20 L 5 20 L 5 22 L 3.386719 22 Z M 3.386719 20 " clip-rule="nonzero"/></clipPath><clipPath id="e0a5a324d0"><path d="M 18 18 L 26.613281 18 L 26.613281 24 L 18 24 Z M 18 18 " clip-rule="nonzero"/></clipPath><clipPath id="d2c5321c57"><path d="M 18 18 L 26.613281 18 L 26.613281 24.925781 L 18 24.925781 Z M 18 18 " clip-rule="nonzero"/></clipPath><clipPath id="e66f0367fb"><path d="M 10 18 L 20 18 L 20 24.925781 L 10 24.925781 Z M 10 18 " clip-rule="nonzero"/></clipPath></defs><g clip-path="url(#d4dc08d529)"><path fill="#00bf63" d="M 10.648438 23.03125 L 26.609375 23.03125 L 26.609375 23.996094 L 10.648438 23.996094 Z M 10.648438 23.03125 " fill-opacity="1" fill-rule="evenodd"/></g><g clip-path="url(#720bd30433)"><path fill="#00bf63" d="M 10.644531 23.976562 C 10.644531 23.9375 10.652344 23.898438 10.660156 23.863281 L 11.683594 19.71875 C 11.734375 19.5 11.929688 19.351562 12.152344 19.351562 L 14.484375 19.351562 L 15.425781 14.898438 C 15.472656 14.675781 15.671875 14.515625 15.898438 14.515625 L 21.351562 14.515625 C 21.578125 14.515625 21.777344 14.675781 21.824219 14.898438 L 22.765625 19.351562 L 25.097656 19.351562 C 25.320312 19.351562 25.515625 19.503906 25.566406 19.71875 L 26.589844 23.863281 C 26.597656 23.898438 26.601562 23.9375 26.601562 23.976562 C 26.601562 24.621094 26.085938 25.152344 25.4375 25.152344 L 11.8125 25.152344 C 11.160156 25.152344 10.644531 24.621094 10.644531 23.976562 Z M 10.644531 23.976562 " fill-opacity="1" fill-rule="evenodd"/></g><g clip-path="url(#d8456aab4f)"><path fill="#00bf63" d="M 18.867188 14.03125 C 18.867188 13.132812 18.25 12.371094 17.414062 12.15625 L 17.414062 8.648438 C 18.25 8.433594 18.867188 7.675781 18.867188 6.777344 C 18.867188 5.710938 18 4.84375 16.933594 4.84375 L 5.328125 4.84375 C 4.261719 4.84375 3.394531 5.710938 3.394531 6.777344 C 3.394531 7.675781 4.011719 8.433594 4.84375 8.648438 L 4.84375 12.15625 C 4.011719 12.371094 3.394531 13.132812 3.394531 14.03125 C 3.394531 14.929688 4.011719 15.6875 4.84375 15.902344 L 4.84375 19.410156 C 4.011719 19.625 3.394531 20.382812 3.394531 21.285156 C 3.394531 22.351562 4.261719 23.21875 5.328125 23.21875 L 16.933594 23.21875 C 18 23.21875 18.867188 22.351562 18.867188 21.285156 C 18.867188 20.382812 18.25 19.625 17.414062 19.410156 L 17.414062 15.902344 C 18.25 15.6875 18.867188 14.929688 18.867188 14.03125 Z M 18.867188 14.03125 " fill-opacity="1" fill-rule="nonzero"/></g><g clip-path="url(#74d070350e)"><path fill="#ffffff" d="M 18.382812 13.0625 C 18.382812 12.261719 17.734375 11.613281 16.933594 11.613281 L 16.933594 7.261719 C 17.734375 7.261719 18.382812 6.613281 18.382812 5.808594 C 18.382812 5.007812 17.734375 4.359375 16.933594 4.359375 L 5.328125 4.359375 C 4.527344 4.359375 3.875 5.007812 3.875 5.808594 C 3.875 6.613281 4.527344 7.261719 5.328125 7.261719 L 5.328125 11.613281 C 4.527344 11.613281 3.875 12.261719 3.875 13.0625 C 3.875 13.863281 4.527344 14.515625 5.328125 14.515625 L 5.328125 18.867188 C 4.527344 18.867188 3.875 19.515625 3.875 20.316406 C 3.875 21.117188 4.527344 21.765625 5.328125 21.765625 L 16.933594 21.765625 C 17.734375 21.765625 18.382812 21.117188 18.382812 20.316406 C 18.382812 19.515625 17.734375 18.867188 16.933594 18.867188 L 16.933594 14.515625 C 17.734375 14.515625 18.382812 13.863281 18.382812 13.0625 Z M 18.382812 13.0625 " fill-opacity="1" fill-rule="nonzero"/></g><g clip-path="url(#e9dabd3033)"><path fill="#00bf63" d="M 16.933594 22.25 L 5.328125 22.25 C 4.261719 22.25 3.394531 21.382812 3.394531 20.316406 C 3.394531 19.417969 4.011719 18.660156 4.84375 18.445312 L 4.84375 14.9375 C 4.011719 14.722656 3.394531 13.960938 3.394531 13.0625 C 3.394531 12.164062 4.011719 11.40625 4.84375 11.191406 L 4.84375 7.683594 C 4.011719 7.46875 3.394531 6.710938 3.394531 5.808594 C 3.394531 4.746094 4.261719 3.875 5.328125 3.875 L 16.933594 3.875 C 18 3.875 18.867188 4.746094 18.867188 5.808594 C 18.867188 6.710938 18.25 7.46875 17.414062 7.683594 L 17.414062 11.191406 C 18.25 11.40625 18.867188 12.164062 18.867188 13.0625 C 18.867188 13.960938 18.25 14.722656 17.414062 14.9375 L 17.414062 18.445312 C 18.25 18.660156 18.867188 19.417969 18.867188 20.316406 C 18.867188 21.382812 18 22.25 16.933594 22.25 Z M 5.328125 4.84375 C 4.792969 4.84375 4.359375 5.277344 4.359375 5.808594 C 4.359375 6.34375 4.792969 6.777344 5.328125 6.777344 C 5.59375 6.777344 5.8125 6.992188 5.8125 7.261719 L 5.8125 11.613281 C 5.8125 11.878906 5.59375 12.097656 5.328125 12.097656 C 4.792969 12.097656 4.359375 12.53125 4.359375 13.0625 C 4.359375 13.597656 4.792969 14.03125 5.328125 14.03125 C 5.59375 14.03125 5.8125 14.246094 5.8125 14.515625 L 5.8125 18.867188 C 5.8125 19.132812 5.59375 19.347656 5.328125 19.347656 C 4.792969 19.347656 4.359375 19.78125 4.359375 20.316406 C 4.359375 20.851562 4.792969 21.285156 5.328125 21.285156 L 16.933594 21.285156 C 17.464844 21.285156 17.898438 20.851562 17.898438 20.316406 C 17.898438 19.78125 17.464844 19.347656 16.933594 19.347656 C 16.664062 19.347656 16.449219 19.132812 16.449219 18.867188 L 16.449219 14.515625 C 16.449219 14.246094 16.664062 14.03125 16.933594 14.03125 C 17.464844 14.03125 17.898438 13.597656 17.898438 13.0625 C 17.898438 12.53125 17.464844 12.097656 16.933594 12.097656 C 16.664062 12.097656 16.449219 11.878906 16.449219 11.613281 L 16.449219 7.261719 C 16.449219 6.992188 16.664062 6.777344 16.933594 6.777344 C 17.464844 6.777344 17.898438 6.34375 17.898438 5.808594 C 17.898438 5.277344 17.464844 4.84375 16.933594 4.84375 Z M 5.328125 4.84375 " fill-opacity="1" fill-rule="nonzero"/></g><path fill="#00bf63" d="M 14.515625 12.097656 L 5.328125 12.097656 C 5.058594 12.097656 4.84375 11.878906 4.84375 11.613281 C 4.84375 11.347656 5.058594 11.128906 5.328125 11.128906 L 14.515625 11.128906 C 14.78125 11.128906 15 11.347656 15 11.613281 C 15 11.878906 14.78125 12.097656 14.515625 12.097656 Z M 14.515625 12.097656 " fill-opacity="1" fill-rule="nonzero"/><path fill="#00bf63" d="M 14.515625 14.996094 L 5.328125 14.996094 C 5.058594 14.996094 4.84375 14.78125 4.84375 14.515625 C 4.84375 14.246094 5.058594 14.03125 5.328125 14.03125 L 14.515625 14.03125 C 14.78125 14.03125 15 14.246094 15 14.515625 C 15 14.78125 14.78125 14.996094 14.515625 14.996094 Z M 14.515625 14.996094 " fill-opacity="1" fill-rule="nonzero"/><path fill="#ffffff" d="M 13.546875 14.03125 C 13.546875 15.367188 12.464844 16.449219 11.128906 16.449219 C 9.792969 16.449219 8.710938 15.367188 8.710938 14.03125 C 8.710938 13.042969 10.035156 10.867188 10.722656 9.804688 C 10.914062 9.511719 11.34375 9.511719 11.535156 9.804688 C 12.222656 10.867188 13.546875 13.042969 13.546875 14.03125 Z M 13.546875 14.03125 " fill-opacity="1" fill-rule="nonzero"/><path fill="#00bf63" d="M 11.128906 16.929688 C 9.53125 16.929688 8.230469 15.628906 8.230469 14.03125 C 8.230469 12.988281 9.367188 11.015625 10.316406 9.542969 C 10.496094 9.265625 10.800781 9.101562 11.128906 9.101562 C 11.457031 9.101562 11.761719 9.265625 11.941406 9.542969 C 12.894531 11.015625 14.03125 12.988281 14.03125 14.03125 C 14.03125 15.628906 12.730469 16.929688 11.128906 16.929688 Z M 11.128906 10.066406 C 9.9375 11.910156 9.195312 13.429688 9.195312 14.03125 C 9.195312 15.097656 10.0625 15.964844 11.128906 15.964844 C 12.195312 15.964844 13.0625 15.097656 13.0625 14.03125 C 13.0625 13.429688 12.324219 11.910156 11.128906 10.066406 Z M 11.128906 10.066406 " fill-opacity="1" fill-rule="nonzero"/><path fill="#00bf63" d="M 17.898438 20.316406 L 18.867188 20.316406 L 18.867188 21.285156 L 17.898438 21.285156 Z M 17.898438 20.316406 " fill-opacity="1" fill-rule="nonzero"/><path fill="#00bf63" d="M 17.898438 13.0625 L 18.867188 13.0625 L 18.867188 14.03125 L 17.898438 14.03125 Z M 17.898438 13.0625 " fill-opacity="1" fill-rule="nonzero"/><path fill="#00bf63" d="M 17.898438 5.8125 L 18.867188 5.8125 L 18.867188 6.777344 L 17.898438 6.777344 Z M 17.898438 5.8125 " fill-opacity="1" fill-rule="nonzero"/><g clip-path="url(#5414cd62fb)"><path fill="#00bf63" d="M 3.394531 5.8125 L 4.359375 5.8125 L 4.359375 6.777344 L 3.394531 6.777344 Z M 3.394531 5.8125 " fill-opacity="1" fill-rule="nonzero"/></g><g clip-path="url(#9547b24726)"><path fill="#00bf63" d="M 3.394531 13.0625 L 4.359375 13.0625 L 4.359375 14.03125 L 3.394531 14.03125 Z M 3.394531 13.0625 " fill-opacity="1" fill-rule="nonzero"/></g><g clip-path="url(#79a3e4ef42)"><path fill="#00bf63" d="M 3.394531 20.316406 L 4.359375 20.316406 L 4.359375 21.285156 L 3.394531 21.285156 Z M 3.394531 20.316406 " fill-opacity="1" fill-rule="nonzero"/></g><path fill="#00bf63" d="M 14.515625 19.347656 L 5.328125 19.347656 C 5.058594 19.347656 4.84375 19.132812 4.84375 18.867188 C 4.84375 18.597656 5.058594 18.382812 5.328125 18.382812 L 14.515625 18.382812 C 14.78125 18.382812 15 18.597656 15 18.867188 C 15 19.132812 14.78125 19.347656 14.515625 19.347656 Z M 14.515625 19.347656 " fill-opacity="1" fill-rule="nonzero"/><path fill="#00bf63" d="M 15 7.746094 L 5.328125 7.746094 C 5.058594 7.746094 4.84375 7.527344 4.84375 7.261719 C 4.84375 6.992188 5.058594 6.777344 5.328125 6.777344 L 15 6.777344 C 15.265625 6.777344 15.480469 6.992188 15.480469 7.261719 C 15.480469 7.527344 15.265625 7.746094 15 7.746094 Z M 15 7.746094 " fill-opacity="1" fill-rule="nonzero"/><path fill="#ffffff" d="M 22.371094 18.867188 L 14.875 18.867188 L 15.898438 14.03125 L 21.351562 14.03125 Z M 22.371094 18.867188 " fill-opacity="1" fill-rule="nonzero"/><g clip-path="url(#e0a5a324d0)"><path fill="#ffffff" d="M 26.121094 23.011719 C 26.121094 23.394531 25.8125 23.703125 25.4375 23.703125 L 18.625 23.703125 L 19.644531 18.867188 L 25.097656 18.867188 Z M 26.121094 23.011719 " fill-opacity="1" fill-rule="nonzero"/></g><path fill="#ffffff" d="M 11.128906 23.011719 C 11.128906 23.394531 11.433594 23.703125 11.8125 23.703125 L 18.625 23.703125 L 17.601562 18.867188 L 12.152344 18.867188 Z M 11.128906 23.011719 " fill-opacity="1" fill-rule="nonzero"/><path fill="#00bf63" d="M 14.402344 18.765625 L 15.425781 13.929688 C 15.472656 13.707031 15.671875 13.546875 15.898438 13.546875 L 21.351562 13.546875 C 21.578125 13.546875 21.777344 13.707031 21.824219 13.929688 L 22.84375 18.765625 C 22.910156 19.066406 22.679688 19.351562 22.371094 19.351562 L 14.875 19.351562 C 14.570312 19.351562 14.339844 19.066406 14.402344 18.765625 Z M 21.773438 18.382812 L 20.957031 14.515625 L 16.289062 14.515625 L 15.472656 18.382812 Z M 21.773438 18.382812 " fill-opacity="1" fill-rule="evenodd"/><path fill="#00bf63" d="M 17.160156 17.40625 C 16.902344 17.351562 16.734375 17.09375 16.789062 16.832031 L 16.992188 15.867188 C 17.039062 15.640625 17.238281 15.480469 17.46875 15.480469 L 18.816406 15.480469 C 19.082031 15.480469 19.296875 15.699219 19.296875 15.964844 C 19.296875 16.230469 19.082031 16.449219 18.816406 16.449219 L 17.859375 16.449219 L 17.734375 17.03125 C 17.679688 17.292969 17.421875 17.460938 17.160156 17.40625 Z M 17.160156 17.40625 " fill-opacity="1" fill-rule="evenodd"/><g clip-path="url(#d2c5321c57)"><path fill="#00bf63" d="M 18.152344 23.601562 L 19.171875 18.765625 C 19.21875 18.542969 19.417969 18.382812 19.648438 18.382812 L 25.097656 18.382812 C 25.320312 18.382812 25.511719 18.535156 25.566406 18.75 L 26.589844 22.894531 C 26.597656 22.933594 26.601562 22.972656 26.601562 23.011719 C 26.601562 23.652344 26.085938 24.183594 25.4375 24.183594 L 18.625 24.183594 C 18.316406 24.183594 18.089844 23.902344 18.152344 23.601562 Z M 25.628906 23.042969 L 24.71875 19.351562 L 20.039062 19.351562 L 19.222656 23.21875 L 25.4375 23.21875 C 25.515625 23.21875 25.585938 23.171875 25.617188 23.09375 Z M 25.628906 23.042969 " fill-opacity="1" fill-rule="evenodd"/></g><path fill="#00bf63" d="M 20.910156 22.242188 C 20.648438 22.1875 20.480469 21.929688 20.535156 21.667969 L 20.742188 20.699219 C 20.789062 20.476562 20.984375 20.316406 21.214844 20.316406 L 22.613281 20.316406 C 22.882812 20.316406 23.097656 20.535156 23.097656 20.800781 C 23.097656 21.066406 22.882812 21.285156 22.613281 21.285156 L 21.605469 21.285156 L 21.484375 21.867188 C 21.425781 22.128906 21.171875 22.296875 20.910156 22.242188 Z M 20.910156 22.242188 " fill-opacity="1" fill-rule="evenodd"/><g clip-path="url(#e66f0367fb)"><path fill="#00bf63" d="M 10.644531 23.011719 C 10.644531 22.972656 10.652344 22.933594 10.660156 22.894531 L 11.683594 18.75 C 11.734375 18.535156 11.929688 18.382812 12.152344 18.382812 L 17.601562 18.382812 C 17.832031 18.382812 18.027344 18.542969 18.074219 18.765625 L 19.097656 23.601562 C 19.160156 23.902344 18.933594 24.183594 18.625 24.183594 L 11.8125 24.183594 C 11.160156 24.183594 10.644531 23.652344 10.644531 23.011719 Z M 18.027344 23.21875 L 17.210938 19.351562 L 12.53125 19.351562 L 11.621094 23.042969 L 11.628906 23.09375 C 11.660156 23.171875 11.734375 23.21875 11.8125 23.21875 Z M 18.027344 23.21875 " fill-opacity="1" fill-rule="evenodd"/></g><path fill="#00bf63" d="M 13.3125 22.238281 C 13.050781 22.171875 12.894531 21.910156 12.957031 21.652344 L 13.195312 20.683594 C 13.25 20.46875 13.445312 20.316406 13.667969 20.316406 L 15.066406 20.316406 C 15.335938 20.316406 15.550781 20.535156 15.550781 20.800781 C 15.550781 21.066406 15.335938 21.285156 15.066406 21.285156 L 14.046875 21.285156 L 13.898438 21.882812 C 13.832031 22.140625 13.570312 22.300781 13.3125 22.238281 Z M 13.3125 22.238281 " fill-opacity="1" fill-rule="evenodd"/></svg>