<svg xmlns="http://www.w3.org/2000/svg" xmlns:xlink="http://www.w3.org/1999/xlink" width="1920" zoomAndPan="magnify" viewBox="0 0 1440 809.999993" height="1080" preserveAspectRatio="xMidYMid meet" version="1.0"><defs><clipPath id="4180188462"><path d="M 142.390625 648 L 698 648 L 698 653.90625 L 142.390625 653.90625 Z M 142.390625 648 " clip-rule="nonzero"/></clipPath></defs><rect x="-144" width="1728" fill="#ffffff" y="-80.999999" height="971.999992" fill-opacity="1"/><rect x="-144" width="1728" fill="#f5f5f5" y="-80.999999" height="971.999992" fill-opacity="1"/><path fill="#dae4fe" d="M 512.207031 544.695312 C 490.777344 549.167969 468.628906 551.320312 446.113281 552.265625 C 388.96875 554.640625 328.910156 549.605469 274.144531 532.863281 C 201.238281 510.578125 170.84375 421.886719 218.070312 360.8125 C 231.832031 343.03125 250.054688 332.621094 267.714844 319.453125 C 288.496094 303.949219 307.535156 286.09375 322.183594 264.570312 C 334.976562 245.773438 343.40625 224.261719 357.378906 206.265625 C 372.8125 186.386719 395.890625 173.992188 420.574219 170.054688 C 509.167969 155.914062 607.277344 207.027344 660.902344 276.078125 C 719.976562 352.148438 669.585938 455.695312 601.351562 506.160156 C 573.953125 526.417969 543.855469 538.097656 512.207031 544.695312 Z M 512.207031 544.695312 " fill-opacity="1" fill-rule="nonzero"/><path fill="#dae4fe" d="M 176.894531 427.007812 C 174.671875 427.007812 172.785156 425.304688 172.601562 423.054688 C 168.917969 378.160156 190.714844 341.582031 237.390625 314.359375 C 279.703125 289.683594 308.589844 242.71875 308.886719 242.242188 C 310.125 240.214844 312.769531 239.554688 314.8125 240.792969 C 316.835938 242.03125 317.484375 244.675781 316.261719 246.714844 C 315.050781 248.714844 285.976562 296 241.75 321.800781 C 198.183594 347.210938 177.808594 381.03125 181.214844 422.351562 C 181.410156 424.730469 179.640625 426.796875 177.273438 426.996094 C 177.132812 427.007812 177.023438 427.007812 176.894531 427.007812 Z M 176.894531 427.007812 " fill-opacity="1" fill-rule="nonzero"/><path fill="#4b6fdd" d="M 308.28125 631.375 C 308.28125 631.375 309.984375 644.035156 311.660156 645.949219 C 317.273438 652.40625 329.925781 650.226562 336.199219 646.328125 C 340.167969 643.867188 336.480469 635.355469 336.480469 635.355469 Z M 308.28125 631.375 " fill-opacity="1" fill-rule="nonzero"/><path fill="#192351" d="M 328.234375 618.375 C 328.234375 618.375 332.148438 627.011719 332.765625 627.925781 C 333.398438 628.839844 344.050781 641.910156 329.894531 644.796875 C 315.738281 647.679688 312.546875 645.652344 309.195312 636.085938 C 307.269531 630.558594 309.367188 619.824219 309.367188 619.824219 C 309.367188 619.824219 310.140625 623.015625 315.007812 623.085938 C 323.550781 623.199219 327.292969 621.46875 328.234375 618.375 Z M 328.234375 618.375 " fill-opacity="1" fill-rule="nonzero"/><path fill="#ffffff" d="M 326.644531 624.773438 L 315.839844 626.292969 C 315.429688 626.351562 315.0625 626.070312 315.007812 625.660156 C 314.953125 625.253906 315.234375 624.886719 315.640625 624.832031 L 326.449219 623.3125 C 326.855469 623.253906 327.222656 623.539062 327.277344 623.945312 C 327.335938 624.351562 327.054688 624.71875 326.644531 624.773438 Z M 326.644531 624.773438 " fill-opacity="1" fill-rule="nonzero"/><path fill="#ffffff" d="M 327.320312 627.703125 L 316.515625 629.222656 C 316.105469 629.277344 315.738281 628.996094 315.683594 628.585938 C 315.628906 628.179688 315.910156 627.8125 316.316406 627.757812 L 327.125 626.238281 C 327.53125 626.183594 327.898438 626.464844 327.953125 626.871094 C 328.011719 627.265625 327.730469 627.644531 327.320312 627.703125 Z M 327.320312 627.703125 " fill-opacity="1" fill-rule="nonzero"/><path fill="#ffffff" d="M 328.066406 631.132812 L 317.257812 632.652344 C 316.851562 632.710938 316.484375 632.429688 316.429688 632.019531 C 316.375 631.613281 316.65625 631.246094 317.0625 631.191406 L 327.871094 629.671875 C 328.277344 629.613281 328.644531 629.894531 328.699219 630.304688 C 328.757812 630.710938 328.476562 631.078125 328.066406 631.132812 Z M 328.066406 631.132812 " fill-opacity="1" fill-rule="nonzero"/><path fill="#192351" d="M 307.59375 484.3125 C 301.683594 459.394531 299.882812 434.015625 299.882812 434.015625 L 276.691406 415.894531 L 226.074219 434.378906 C 224.386719 456.960938 225.667969 558.144531 225.597656 572.058594 C 225.527344 585.972656 225.441406 618.921875 225.441406 618.921875 C 225.441406 618.921875 242.144531 622.636719 248.816406 617.007812 C 248.816406 617.007812 252.179688 592.726562 252.996094 581.371094 C 255.753906 542.65625 262.886719 477.359375 262.886719 477.359375 C 262.886719 477.359375 273.765625 508.339844 283.078125 532.847656 L 305.015625 615.8125 C 325.632812 617.8125 331.484375 612.507812 331.484375 612.507812 C 331.484375 612.507812 311.574219 501.082031 307.59375 484.3125 Z M 307.59375 484.3125 " fill-opacity="1" fill-rule="nonzero"/><path fill="#dae4fe" d="M 262.886719 477.699219 C 262.730469 477.699219 262.589844 477.585938 262.5625 477.429688 L 259.539062 461.957031 C 259.507812 461.773438 259.621094 461.605469 259.789062 461.574219 C 259.972656 461.546875 260.144531 461.660156 260.171875 461.828125 L 263.195312 477.304688 C 263.222656 477.488281 263.113281 477.65625 262.941406 477.683594 C 262.929688 477.699219 262.914062 477.699219 262.886719 477.699219 Z M 262.886719 477.699219 " fill-opacity="1" fill-rule="nonzero"/><path fill="#dae4fe" d="M 261.382812 469.960938 C 261.339844 469.960938 261.296875 469.945312 261.253906 469.933594 C 261.015625 469.835938 255.511719 467.554688 253.175781 465.628906 C 253.035156 465.515625 253.023438 465.304688 253.136719 465.164062 C 253.246094 465.023438 253.457031 465.007812 253.597656 465.121094 C 255.863281 466.976562 261.453125 469.300781 261.507812 469.328125 C 261.675781 469.398438 261.746094 469.582031 261.691406 469.75 C 261.632812 469.890625 261.507812 469.960938 261.382812 469.960938 Z M 261.382812 469.960938 " fill-opacity="1" fill-rule="nonzero"/><path fill="#4b6fdd" d="M 198.3125 642.078125 C 198.3125 642.078125 196.988281 649.691406 205.953125 650.605469 C 214.917969 651.519531 221.207031 651.027344 225.835938 650.027344 C 230.464844 649.015625 233.070312 647.566406 237.9375 647.976562 C 242.804688 648.382812 247.789062 650.410156 250.238281 647.933594 C 252.25 645.90625 250.40625 640.363281 250.40625 640.363281 L 223.570312 640.488281 Z M 198.3125 642.078125 " fill-opacity="1" fill-rule="nonzero"/><path fill="#192351" d="M 226.695312 625.71875 C 226.695312 625.71875 216.054688 633.300781 210.820312 635.890625 C 205.585938 638.464844 198.789062 636.675781 198.324219 642.078125 C 197.863281 647.480469 212.636719 646.300781 221.289062 645.5 C 229.945312 644.695312 236.011719 641.320312 240.539062 642.671875 C 245.070312 644.007812 250.109375 641.855469 250.433594 640.363281 C 250.757812 638.871094 248.574219 625.730469 247.421875 624.480469 C 247.421875 624.480469 246.789062 627.066406 238.261719 627.292969 C 229.734375 627.503906 226.695312 625.71875 226.695312 625.71875 Z M 226.695312 625.71875 " fill-opacity="1" fill-rule="nonzero"/><path fill="#ffffff" d="M 216.773438 636.691406 L 216.648438 636.777344 C 216.394531 636.929688 216.085938 636.847656 215.929688 636.59375 L 214.3125 633.851562 C 214.171875 633.597656 214.242188 633.273438 214.496094 633.132812 L 214.621094 633.046875 C 214.875 632.894531 215.183594 632.976562 215.339844 633.230469 L 216.957031 635.972656 C 217.113281 636.214844 217.027344 636.535156 216.773438 636.691406 Z M 216.773438 636.691406 " fill-opacity="1" fill-rule="nonzero"/><path fill="#ffffff" d="M 219.195312 634.976562 L 219.066406 635.058594 C 218.8125 635.214844 218.503906 635.128906 218.351562 634.875 L 216.730469 632.132812 C 216.589844 631.878906 216.660156 631.554688 216.914062 631.414062 L 217.042969 631.332031 C 217.292969 631.175781 217.605469 631.261719 217.757812 631.515625 L 219.378906 634.257812 C 219.519531 634.511719 219.433594 634.835938 219.195312 634.976562 Z M 219.195312 634.976562 " fill-opacity="1" fill-rule="nonzero"/><path fill="#ffffff" d="M 222.007812 633.160156 L 221.882812 633.246094 C 221.628906 633.398438 221.320312 633.316406 221.164062 633.0625 L 219.546875 630.316406 C 219.40625 630.066406 219.476562 629.742188 219.730469 629.601562 L 219.855469 629.515625 C 220.109375 629.363281 220.417969 629.445312 220.574219 629.699219 L 222.191406 632.441406 C 222.332031 632.695312 222.261719 633.019531 222.007812 633.160156 Z M 222.007812 633.160156 " fill-opacity="1" fill-rule="nonzero"/><path fill="#ffffff" d="M 224.792969 631.375 L 224.667969 631.457031 C 224.414062 631.613281 224.105469 631.527344 223.949219 631.273438 L 222.332031 628.53125 C 222.191406 628.277344 222.261719 627.953125 222.515625 627.8125 L 222.640625 627.730469 C 222.894531 627.574219 223.203125 627.660156 223.359375 627.914062 L 224.976562 630.65625 C 225.117188 630.894531 225.035156 631.21875 224.792969 631.375 Z M 224.792969 631.375 " fill-opacity="1" fill-rule="nonzero"/><path fill="#c47249" d="M 249.140625 379.835938 C 232.816406 382.394531 204.839844 389.234375 204.839844 389.234375 C 205.9375 372.535156 207.949219 359.308594 210.425781 348.855469 C 219.238281 311.628906 236.472656 309.320312 236.472656 309.320312 L 249.238281 315.792969 L 264.027344 322.070312 C 264.027344 322.070312 265.460938 377.273438 249.140625 379.835938 Z M 249.140625 379.835938 " fill-opacity="1" fill-rule="nonzero"/><path fill="#c47249" d="M 230.816406 383.199219 C 230.816406 383.199219 238.023438 403.402344 223.921875 405.539062 C 218.773438 406.328125 194.273438 386.53125 194.273438 386.53125 L 210.46875 376.304688 Z M 230.816406 383.199219 " fill-opacity="1" fill-rule="nonzero"/><path fill="#4b6fdd" d="M 249.238281 315.792969 C 248.167969 329.75 245.382812 347.589844 238.148438 349.136719 C 229.171875 351.050781 216.308594 349.671875 210.414062 348.855469 C 219.222656 311.628906 234.6875 309.027344 234.6875 309.027344 Z M 249.238281 315.792969 " fill-opacity="1" fill-rule="nonzero"/><path fill="#192351" d="M 228.226562 350.25 C 228.226562 350.25 228.214844 350.25 228.226562 350.25 C 228.117188 350.25 228.046875 350.164062 228.046875 350.066406 C 228.046875 349.953125 228.734375 339.445312 230.15625 333.761719 C 230.183594 333.660156 230.28125 333.605469 230.367188 333.632812 C 230.464844 333.660156 230.523438 333.761719 230.492188 333.84375 C 229.074219 339.515625 228.398438 349.980469 228.398438 350.09375 C 228.398438 350.164062 228.328125 350.25 228.226562 350.25 Z M 228.226562 350.25 " fill-opacity="1" fill-rule="nonzero"/><path fill="#c47249" d="M 241.316406 319.832031 C 241.371094 319.675781 255.261719 334.394531 264.320312 331.425781 C 274.453125 328.089844 278.984375 307.449219 278.984375 307.449219 L 277.378906 286.726562 L 277.367188 286.390625 L 277.339844 285.152344 L 275.339844 285.882812 L 267.390625 288.78125 L 264.195312 289.949219 L 256.035156 292.917969 C 256.035156 292.917969 255.894531 298.277344 254.878906 302.625 C 254.765625 303.089844 254.667969 303.511719 254.554688 303.933594 C 254.332031 304.652344 253.992188 305.328125 253.613281 305.890625 C 252.742188 307.253906 251.65625 308.125 251.65625 308.140625 C 249.601562 312.460938 241.386719 319.832031 241.316406 319.832031 Z M 241.316406 319.832031 " fill-opacity="1" fill-rule="nonzero"/><path fill="#c47249" d="M 244.398438 280.621094 C 246.957031 291.875 251.488281 303.144531 262.394531 301.472656 C 270.019531 300.289062 277.367188 289.722656 279.011719 280.03125 C 279.855469 275.023438 280.644531 270.660156 280.632812 267.367188 C 280.617188 264.765625 280.492188 263.132812 280.492188 263.132812 L 278.617188 257.476562 L 277.507812 254.171875 C 277.507812 254.171875 275.058594 252.1875 272.316406 249.953125 C 268.894531 247.152344 263.632812 251.203125 263.546875 251.007812 C 263.40625 250.710938 248.082031 248.574219 243.269531 254.707031 C 243.257812 254.71875 243.242188 254.734375 243.242188 254.75 C 242.804688 255.3125 242.46875 255.875 242.257812 256.449219 C 242.074219 256.929688 241.992188 257.421875 241.992188 257.914062 C 241.992188 258.855469 242.03125 260.277344 242.089844 262.066406 C 242.132812 262.808594 242.160156 263.625 242.214844 264.5 C 242.300781 265.960938 242.425781 267.566406 242.59375 269.253906 C 242.933594 272.785156 243.496094 276.722656 244.398438 280.621094 Z M 244.398438 280.621094 " fill-opacity="1" fill-rule="nonzero"/><path fill="#192351" d="M 245.71875 285.785156 C 248.070312 296.070312 252.445312 302.46875 262.507812 301.472656 C 272.132812 300.527344 277.199219 290.246094 278.703125 281.382812 C 277.886719 279.285156 277.042969 274.09375 277.042969 274.09375 C 277.042969 274.09375 274.582031 270.265625 274.609375 270.40625 C 274.933594 271.996094 274.820312 282.859375 270.148438 284.210938 C 265.066406 285.6875 263.253906 286.996094 261.3125 286.964844 C 259.367188 286.9375 258.792969 286.261719 257.089844 286.683594 C 255.371094 287.105469 254.203125 288.007812 251.898438 287.613281 C 249.730469 287.261719 247.335938 288.796875 245.71875 285.785156 Z M 245.71875 285.785156 " fill-opacity="1" fill-rule="nonzero"/><path fill="#192351" d="M 281.136719 267.242188 C 281.136719 267.242188 282.96875 242.59375 268.601562 242.59375 C 268.601562 242.59375 257.414062 237.359375 245.042969 244.492188 C 236.910156 249.175781 239.851562 259.011719 240.667969 262.417969 C 241.175781 264.554688 242.046875 266.328125 242.328125 266.214844 C 243.117188 265.890625 243.199219 263.753906 246.085938 264.414062 C 257.777344 267.085938 265.109375 258.324219 268.390625 260.234375 C 271.667969 262.148438 278.71875 281.382812 278.71875 281.382812 C 278.71875 281.382812 279.308594 272.292969 281.136719 267.242188 Z M 281.136719 267.242188 " fill-opacity="1" fill-rule="nonzero"/><path fill="#c47249" d="M 278.296875 269.378906 C 278.296875 269.378906 284.769531 264.738281 284.851562 271.460938 C 284.9375 278.1875 278.6875 281.394531 278.6875 281.394531 Z M 278.296875 269.378906 " fill-opacity="1" fill-rule="nonzero"/><path fill="#192351" d="M 280.027344 271.460938 C 280.027344 271.460938 285.175781 269.648438 280.238281 277.105469 Z M 280.027344 271.460938 " fill-opacity="1" fill-rule="nonzero"/><path fill="#192351" d="M 251.386719 277.316406 C 251.453125 277.550781 251.492188 277.78125 251.5 278.011719 C 251.511719 278.242188 251.492188 278.453125 251.441406 278.644531 C 251.390625 278.839844 251.316406 278.996094 251.21875 279.121094 C 251.117188 279.25 251 279.332031 250.863281 279.371094 C 250.726562 279.410156 250.582031 279.402344 250.429688 279.347656 C 250.277344 279.296875 250.132812 279.199219 249.988281 279.0625 C 249.84375 278.925781 249.714844 278.757812 249.601562 278.558594 C 249.488281 278.355469 249.398438 278.140625 249.328125 277.90625 C 249.261719 277.671875 249.226562 277.441406 249.214844 277.210938 C 249.207031 276.980469 249.226562 276.769531 249.273438 276.578125 C 249.324219 276.382812 249.398438 276.226562 249.5 276.101562 C 249.597656 275.976562 249.71875 275.894531 249.851562 275.851562 C 249.988281 275.8125 250.132812 275.820312 250.285156 275.875 C 250.4375 275.925781 250.585938 276.023438 250.726562 276.160156 C 250.871094 276.296875 251 276.464844 251.113281 276.667969 C 251.226562 276.867188 251.320312 277.082031 251.386719 277.316406 Z M 251.386719 277.316406 " fill-opacity="1" fill-rule="nonzero"/><path fill="#192351" d="M 263.808594 275.273438 C 263.878906 275.507812 263.914062 275.738281 263.925781 275.96875 C 263.933594 276.199219 263.914062 276.410156 263.867188 276.605469 C 263.816406 276.796875 263.742188 276.957031 263.640625 277.082031 C 263.542969 277.207031 263.421875 277.289062 263.289062 277.328125 C 263.152344 277.367188 263.007812 277.359375 262.855469 277.308594 C 262.703125 277.253906 262.554688 277.160156 262.414062 277.023438 C 262.269531 276.882812 262.140625 276.714844 262.027344 276.515625 C 261.910156 276.316406 261.820312 276.097656 261.753906 275.863281 C 261.6875 275.632812 261.648438 275.398438 261.640625 275.167969 C 261.628906 274.9375 261.648438 274.726562 261.699219 274.535156 C 261.746094 274.34375 261.824219 274.183594 261.921875 274.058594 C 262.023438 273.933594 262.140625 273.851562 262.277344 273.8125 C 262.414062 273.773438 262.558594 273.78125 262.710938 273.832031 C 262.859375 273.886719 263.007812 273.980469 263.152344 274.117188 C 263.296875 274.253906 263.425781 274.425781 263.539062 274.625 C 263.652344 274.824219 263.742188 275.042969 263.808594 275.273438 Z M 263.808594 275.273438 " fill-opacity="1" fill-rule="nonzero"/><path fill="#192351" d="M 251.898438 274.109375 C 251.898438 274.109375 248.675781 272.011719 246.128906 273.585938 Z M 251.898438 274.109375 " fill-opacity="1" fill-rule="nonzero"/><path fill="#192351" d="M 266.742188 270.507812 C 266.488281 270.492188 262.507812 270.054688 260.324219 272.742188 Z M 266.742188 270.507812 " fill-opacity="1" fill-rule="nonzero"/><path fill="#192351" d="M 256.570312 282.730469 C 255.78125 282.730469 255.429688 282.367188 255.273438 282.085938 C 254.808594 281.253906 255.316406 279.960938 256.046875 279.398438 C 256.132812 279.328125 256.246094 279.355469 256.316406 279.441406 C 256.371094 279.523438 256.359375 279.636719 256.273438 279.707031 C 255.613281 280.214844 255.273438 281.3125 255.597656 281.902344 C 255.90625 282.464844 256.765625 282.507812 258.003906 282.027344 C 258.101562 281.984375 258.214844 282.042969 258.242188 282.140625 C 258.285156 282.238281 258.230469 282.351562 258.128906 282.378906 C 257.484375 282.632812 256.976562 282.730469 256.570312 282.730469 Z M 256.570312 282.730469 " fill-opacity="1" fill-rule="nonzero"/><path fill="#ffffff" d="M 254.949219 292.4375 C 254.949219 292.4375 255.105469 292.707031 255.457031 293.03125 C 256.0625 293.621094 257.242188 294.421875 259.03125 294.210938 C 260.789062 294 261.902344 292.863281 262.480469 292.074219 C 262.789062 291.625 262.941406 291.300781 262.941406 291.300781 Z M 254.949219 292.4375 " fill-opacity="1" fill-rule="nonzero"/><path fill="#4b6fdd" d="M 310.816406 317.1875 C 300.359375 337.066406 298.574219 402.628906 301.121094 437.308594 C 278.167969 442.722656 245.183594 445.410156 225.640625 440.007812 C 228.46875 402.964844 223.921875 341.835938 234.6875 309.027344 C 234.6875 309.027344 246.945312 305.496094 254.992188 305.171875 C 248.210938 314.359375 273.636719 316.847656 279.011719 305.171875 C 279.011719 305.171875 304.933594 310.558594 310.816406 317.1875 Z M 310.816406 317.1875 " fill-opacity="1" fill-rule="nonzero"/><path fill="#192351" d="M 228.226562 350.25 C 228.226562 350.25 228.214844 350.25 228.226562 350.25 C 228.117188 350.25 228.046875 350.164062 228.046875 350.066406 C 228.046875 349.953125 228.734375 339.445312 230.15625 333.761719 C 230.183594 333.660156 230.28125 333.605469 230.367188 333.632812 C 230.464844 333.660156 230.523438 333.761719 230.492188 333.84375 C 229.074219 339.515625 228.398438 349.980469 228.398438 350.09375 C 228.398438 350.164062 228.328125 350.25 228.226562 350.25 Z M 228.226562 350.25 " fill-opacity="1" fill-rule="nonzero"/><path fill="#c47249" d="M 344.109375 388.304688 C 347.316406 401.09375 336.171875 406.398438 312.109375 397.421875 C 300.738281 393.1875 292.535156 391.695312 289.863281 389.289062 L 291.339844 376.09375 C 293.335938 376.699219 305.890625 377.007812 317.175781 378.484375 L 307.421875 356.917969 C 310.082031 356.707031 320.3125 354.300781 329.207031 346.054688 C 337.382812 363.894531 341.351562 377.332031 344.109375 388.304688 Z M 344.109375 388.304688 " fill-opacity="1" fill-rule="nonzero"/><path fill="#4b6fdd" d="M 309.421875 315.949219 C 309.421875 315.949219 316.824219 319.648438 323.351562 330.734375 C 329.261719 340.78125 335.214844 353.1875 333.992188 354.609375 C 326.460938 363.445312 309.082031 364.484375 309.082031 364.484375 L 301.191406 349.617188 Z M 309.421875 315.949219 " fill-opacity="1" fill-rule="nonzero"/><path fill="#192351" d="M 339.140625 385.378906 C 339.085938 385.378906 339.027344 385.351562 339 385.308594 C 333.792969 378.117188 317.328125 378.640625 317.175781 378.652344 C 317.078125 378.652344 317.007812 378.582031 316.992188 378.484375 C 316.992188 378.386719 317.0625 378.300781 317.160156 378.300781 C 317.203125 378.300781 321.398438 378.160156 326.195312 378.90625 C 330.640625 379.609375 336.507812 381.257812 339.296875 385.097656 C 339.351562 385.179688 339.339844 385.292969 339.253906 385.351562 C 339.226562 385.363281 339.183594 385.378906 339.140625 385.378906 Z M 339.140625 385.378906 " fill-opacity="1" fill-rule="nonzero"/><path fill="#c47249" d="M 274.875 390.007812 C 276.351562 389.035156 278.15625 388.65625 284.277344 389.542969 C 287.960938 390.078125 293.859375 388.726562 295.460938 388.375 L 294.871094 377.023438 C 292.492188 376.402344 288.625 373.855469 285.738281 372.492188 C 282.121094 370.789062 278.15625 367.875 275.113281 368.917969 C 269.949219 370.664062 263.816406 373.714844 264.574219 375.644531 C 265.363281 377.570312 271.441406 375.671875 271.441406 375.671875 C 271.441406 375.671875 268.316406 377.386719 268.710938 379.46875 C 269.105469 381.550781 271.851562 382.242188 271.851562 382.242188 C 270.371094 384.40625 273.03125 386.417969 273.03125 386.417969 C 271.820312 388.375 273.695312 390.765625 274.875 390.007812 Z M 274.875 390.007812 " fill-opacity="1" fill-rule="nonzero"/><path fill="#192351" d="M 273.046875 386.601562 C 272.988281 386.601562 272.949219 386.574219 272.90625 386.53125 C 272.847656 386.460938 272.847656 386.347656 272.933594 386.277344 C 273.03125 386.207031 275.242188 384.378906 278.71875 384.167969 C 278.71875 384.167969 278.71875 384.167969 278.730469 384.167969 C 278.828125 384.167969 278.898438 384.238281 278.914062 384.335938 C 278.914062 384.4375 278.84375 384.519531 278.746094 384.519531 C 275.394531 384.730469 273.1875 386.53125 273.171875 386.546875 C 273.132812 386.589844 273.089844 386.601562 273.046875 386.601562 Z M 273.046875 386.601562 " fill-opacity="1" fill-rule="nonzero"/><path fill="#192351" d="M 271.863281 382.425781 C 271.808594 382.425781 271.765625 382.410156 271.738281 382.367188 C 271.667969 382.296875 271.679688 382.183594 271.75 382.113281 C 271.863281 382.015625 274.636719 379.597656 277.914062 379.0625 C 278.015625 379.035156 278.097656 379.105469 278.125 379.203125 C 278.140625 379.300781 278.070312 379.386719 277.984375 379.414062 C 274.804688 379.933594 272.019531 382.367188 271.992188 382.382812 C 271.949219 382.410156 271.90625 382.425781 271.863281 382.425781 Z M 271.863281 382.425781 " fill-opacity="1" fill-rule="nonzero"/><path fill="#192351" d="M 271.457031 375.855469 C 271.398438 375.855469 271.328125 375.824219 271.300781 375.769531 C 271.257812 375.683594 271.289062 375.574219 271.371094 375.53125 C 271.398438 375.515625 274.257812 373.925781 277.675781 373.925781 C 277.789062 373.925781 277.914062 373.984375 277.902344 374.109375 C 277.902344 374.207031 277.816406 374.292969 277.71875 374.292969 C 277.703125 374.292969 277.675781 374.292969 277.660156 374.292969 C 274.339844 374.292969 271.570312 375.824219 271.539062 375.839844 C 271.511719 375.839844 271.484375 375.855469 271.457031 375.855469 Z M 271.457031 375.855469 " fill-opacity="1" fill-rule="nonzero"/><path fill="#192351" d="M 285.921875 391.1875 L 236.390625 391.1875 L 236.390625 387.164062 L 282.390625 387.164062 C 284.332031 387.164062 285.90625 388.742188 285.90625 390.683594 L 285.90625 391.1875 Z M 285.921875 391.1875 " fill-opacity="1" fill-rule="nonzero"/><path fill="#192351" d="M 184.984375 391.1875 L 267.882812 391.1875 L 259.539062 337.671875 L 176.640625 337.671875 Z M 184.984375 391.1875 " fill-opacity="1" fill-rule="nonzero"/><path fill="#ffffff" d="M 226.71875 365.515625 C 226.792969 365.921875 226.832031 366.332031 226.832031 366.742188 C 226.832031 367.15625 226.792969 367.5625 226.71875 367.964844 C 226.644531 368.363281 226.535156 368.753906 226.386719 369.128906 C 226.242188 369.503906 226.0625 369.859375 225.851562 370.195312 C 225.636719 370.53125 225.398438 370.839844 225.125 371.125 C 224.855469 371.40625 224.5625 371.65625 224.246094 371.875 C 223.929688 372.09375 223.59375 372.277344 223.238281 372.421875 C 222.886719 372.570312 222.523438 372.675781 222.148438 372.746094 C 221.773438 372.816406 221.398438 372.84375 221.015625 372.832031 C 220.632812 372.820312 220.253906 372.765625 219.878906 372.675781 C 219.507812 372.582031 219.144531 372.453125 218.789062 372.285156 C 218.4375 372.113281 218.101562 371.910156 217.785156 371.671875 C 217.46875 371.433594 217.175781 371.164062 216.902344 370.863281 C 216.632812 370.566406 216.394531 370.242188 216.179688 369.890625 C 215.96875 369.542969 215.789062 369.175781 215.644531 368.789062 C 215.5 368.40625 215.386719 368.011719 215.3125 367.605469 C 215.238281 367.199219 215.203125 366.789062 215.203125 366.378906 C 215.203125 365.964844 215.238281 365.558594 215.3125 365.15625 C 215.390625 364.757812 215.5 364.367188 215.644531 363.992188 C 215.792969 363.617188 215.972656 363.261719 216.183594 362.925781 C 216.394531 362.589844 216.636719 362.28125 216.90625 361.996094 C 217.175781 361.714844 217.46875 361.464844 217.789062 361.246094 C 218.105469 361.027344 218.441406 360.84375 218.792969 360.695312 C 219.144531 360.550781 219.507812 360.441406 219.882812 360.375 C 220.257812 360.304688 220.636719 360.277344 221.019531 360.289062 C 221.398438 360.300781 221.777344 360.351562 222.152344 360.445312 C 222.527344 360.539062 222.890625 360.667969 223.242188 360.835938 C 223.59375 361.003906 223.929688 361.210938 224.246094 361.449219 C 224.566406 361.6875 224.859375 361.957031 225.128906 362.253906 C 225.398438 362.554688 225.640625 362.878906 225.851562 363.226562 C 226.0625 363.578125 226.242188 363.945312 226.386719 364.328125 C 226.535156 364.714844 226.644531 365.109375 226.71875 365.515625 Z M 226.71875 365.515625 " fill-opacity="1" fill-rule="nonzero"/><path fill="#c47249" d="M 199.3125 391.148438 C 199.3125 391.148438 200 390.824219 199.675781 387.714844 C 199.351562 384.617188 200.308594 381.578125 203.292969 381.917969 C 203.292969 381.917969 205.839844 378.835938 208.5 381.890625 C 208.5 381.890625 211.582031 380.496094 213.609375 383.058594 C 213.609375 383.058594 216.15625 381.636719 217.433594 383.523438 C 218.714844 385.40625 219.347656 390.867188 217.449219 392.214844 C 215.535156 393.566406 210.652344 394.3125 206.179688 394.242188 C 201.703125 394.171875 199.3125 391.148438 199.3125 391.148438 Z M 199.3125 391.148438 " fill-opacity="1" fill-rule="nonzero"/><path fill="#192351" d="M 203.292969 390.515625 C 203.265625 390.515625 203.238281 390.5 203.207031 390.484375 C 203.125 390.429688 203.097656 390.332031 203.136719 390.246094 C 204.910156 387.207031 203.136719 382.015625 203.125 381.972656 C 203.097656 381.875 203.136719 381.777344 203.238281 381.75 C 203.335938 381.71875 203.433594 381.761719 203.460938 381.863281 C 203.53125 382.085938 205.304688 387.265625 203.460938 390.429688 C 203.421875 390.484375 203.351562 390.515625 203.292969 390.515625 Z M 203.292969 390.515625 " fill-opacity="1" fill-rule="nonzero"/><path fill="#192351" d="M 208.5 390.78125 C 208.472656 390.78125 208.457031 390.78125 208.429688 390.765625 C 208.34375 390.726562 208.304688 390.625 208.332031 390.527344 C 209.878906 386.984375 208.332031 381.988281 208.316406 381.933594 C 208.289062 381.832031 208.34375 381.734375 208.429688 381.707031 C 208.527344 381.679688 208.625 381.734375 208.65625 381.820312 C 208.726562 382.03125 210.257812 387.011719 208.65625 390.667969 C 208.640625 390.738281 208.570312 390.78125 208.5 390.78125 Z M 208.5 390.78125 " fill-opacity="1" fill-rule="nonzero"/><path fill="#192351" d="M 212.976562 391.246094 C 212.945312 391.246094 212.902344 391.230469 212.875 391.21875 C 212.792969 391.160156 212.777344 391.046875 212.820312 390.976562 C 214.675781 388.148438 213.4375 383.140625 213.425781 383.097656 C 213.398438 383 213.453125 382.902344 213.550781 382.886719 C 213.648438 382.859375 213.75 382.917969 213.761719 383.015625 C 213.820312 383.226562 215.058594 388.21875 213.117188 391.175781 C 213.085938 391.21875 213.03125 391.246094 212.976562 391.246094 Z M 212.976562 391.246094 " fill-opacity="1" fill-rule="nonzero"/><path fill="#192351" d="M 616.789062 501.742188 L 366.171875 501.742188 C 361.472656 501.742188 358.363281 497.664062 359.234375 492.625 L 401.957031 243.101562 C 402.730469 238.582031 407.007812 234.574219 411.527344 234.109375 L 651.09375 210.078125 C 656.484375 209.546875 660.410156 213.078125 659.832031 218 L 628.230469 491.683594 C 627.582031 497.242188 622.445312 501.742188 616.789062 501.742188 Z M 616.789062 501.742188 " fill-opacity="1" fill-rule="nonzero"/><path fill="#ffffff" d="M 610.160156 495.128906 L 359.542969 495.128906 C 354.84375 495.128906 351.734375 491.050781 352.609375 486.011719 L 395.328125 236.488281 C 396.101562 231.972656 400.378906 227.960938 404.898438 227.496094 L 644.46875 203.46875 C 649.855469 202.933594 653.78125 206.464844 653.207031 211.386719 L 621.601562 485.070312 C 620.96875 490.628906 615.832031 495.128906 610.160156 495.128906 Z M 610.160156 495.128906 " fill-opacity="1" fill-rule="nonzero"/><path fill="#dae4fe" d="M 607.824219 481.246094 L 365.019531 482.425781 L 402.042969 263.035156 L 636.082031 242.648438 Z M 607.824219 481.246094 " fill-opacity="1" fill-rule="nonzero"/><path fill="#4b6fdd" d="M 414.101562 243.648438 C 413.75 245.757812 411.75 247.617188 409.640625 247.8125 C 407.527344 248.011719 406.121094 246.460938 406.472656 244.367188 C 406.824219 242.269531 408.808594 240.414062 410.921875 240.203125 C 413.015625 240.003906 414.4375 241.539062 414.101562 243.648438 Z M 414.101562 243.648438 " fill-opacity="1" fill-rule="nonzero"/><path fill="#4b6fdd" d="M 440.808594 241.128906 C 440.472656 243.253906 438.445312 245.140625 436.292969 245.335938 C 434.136719 245.535156 432.6875 243.972656 433.027344 241.863281 C 433.363281 239.75 435.390625 237.867188 437.53125 237.65625 C 439.683594 237.457031 441.144531 239.003906 440.808594 241.128906 Z M 440.808594 241.128906 " fill-opacity="1" fill-rule="nonzero"/><path fill="#4b6fdd" d="M 427.382812 242.394531 C 427.03125 244.507812 425.035156 246.390625 422.894531 246.589844 C 420.769531 246.785156 419.335938 245.238281 419.6875 243.128906 C 420.039062 241.015625 422.035156 239.144531 424.160156 238.949219 C 426.285156 238.738281 427.734375 240.285156 427.382812 242.394531 Z M 427.382812 242.394531 " fill-opacity="1" fill-rule="nonzero"/><path fill="#4b6fdd" d="M 565.527344 437.8125 L 413.117188 440.894531 L 417.042969 416.359375 L 568.847656 411.898438 Z M 565.527344 437.8125 " fill-opacity="1" fill-rule="nonzero"/><path fill="#ffffff" d="M 472.484375 419.875 L 471.429688 429.878906 L 475.242188 429.878906 L 474.960938 432.578125 L 467.742188 432.578125 L 469.078125 419.875 Z M 472.484375 419.875 " fill-opacity="1" fill-rule="nonzero"/><path fill="#ffffff" d="M 482.152344 432.707031 C 478.675781 432.707031 476.140625 430.003906 476.535156 426.179688 C 476.945312 422.351562 480.039062 419.679688 483.515625 419.679688 C 487.003906 419.679688 489.511719 422.367188 489.117188 426.179688 C 488.707031 430.003906 485.625 432.707031 482.152344 432.707031 Z M 482.503906 429.429688 C 484.261719 429.429688 485.457031 428.148438 485.65625 426.191406 C 485.867188 424.195312 484.9375 422.929688 483.179688 422.929688 C 481.40625 422.929688 480.222656 424.195312 480.011719 426.191406 C 479.816406 428.148438 480.714844 429.429688 482.503906 429.429688 Z M 482.503906 429.429688 " fill-opacity="1" fill-rule="nonzero"/><path fill="#ffffff" d="M 502.371094 424.054688 L 498.699219 424.054688 C 498.390625 423.394531 497.726562 423.011719 496.785156 423.011719 C 495.070312 423.011719 493.886719 424.25 493.691406 426.207031 C 493.464844 428.386719 494.421875 429.554688 496.433594 429.554688 C 497.617188 429.554688 498.542969 428.976562 499.164062 427.878906 L 495.746094 427.878906 L 496.011719 425.335938 L 502.371094 425.335938 L 502.007812 428.753906 C 501.078125 430.609375 498.964844 432.664062 495.773438 432.664062 C 492.015625 432.664062 489.820312 429.992188 490.226562 426.191406 C 490.621094 422.40625 493.351562 419.734375 497.109375 419.734375 C 500.21875 419.75 502.160156 421.410156 502.371094 424.054688 Z M 502.371094 424.054688 " fill-opacity="1" fill-rule="nonzero"/><path fill="#ffffff" d="M 504.484375 419.875 L 507.886719 419.875 L 506.550781 432.578125 L 503.144531 432.578125 Z M 504.484375 419.875 " fill-opacity="1" fill-rule="nonzero"/><path fill="#ffffff" d="M 521.199219 419.875 L 519.863281 432.578125 L 516.457031 432.578125 L 512.660156 425.476562 L 511.914062 432.578125 L 508.507812 432.578125 L 509.84375 419.875 L 513.25 419.875 L 517.035156 427.066406 L 517.792969 419.875 Z M 521.199219 419.875 " fill-opacity="1" fill-rule="nonzero"/><path fill="#ffffff" d="M 536.578125 298.699219 C 534.425781 314.527344 519.425781 328.230469 503.246094 329.203125 C 487.246094 330.15625 476.296875 318.285156 478.589844 302.765625 C 480.871094 287.359375 495.421875 273.925781 511.265625 272.644531 C 527.292969 271.363281 538.703125 282.984375 536.578125 298.699219 Z M 536.578125 298.699219 " fill-opacity="1" fill-rule="nonzero"/><path fill="#192351" d="M 501.429688 329.777344 C 494.253906 329.777344 487.960938 327.203125 483.570312 322.40625 C 478.902344 317.3125 476.945312 310.308594 478.070312 302.695312 C 480.378906 287.136719 495.238281 273.433594 511.207031 272.152344 C 519.285156 271.503906 526.390625 273.996094 531.304688 279.171875 C 536.058594 284.195312 538.101562 291.144531 537.074219 298.769531 C 534.890625 314.851562 519.722656 328.722656 503.257812 329.722656 C 502.652344 329.75 502.035156 329.777344 501.429688 329.777344 Z M 513.683594 273.066406 C 512.898438 273.066406 512.109375 273.09375 511.292969 273.164062 C 495.773438 274.417969 481.308594 287.726562 479.070312 302.851562 C 477.984375 310.152344 479.855469 316.847656 484.316406 321.730469 C 488.863281 326.695312 495.589844 329.171875 503.203125 328.710938 C 519.203125 327.753906 533.949219 314.261719 536.058594 298.644531 C 537.042969 291.34375 535.101562 284.671875 530.558594 279.875 C 526.378906 275.445312 520.441406 273.066406 513.683594 273.066406 Z M 513.683594 273.066406 " fill-opacity="1" fill-rule="nonzero"/><path fill="#192351" d="M 517.792969 292.972656 C 517.0625 298.082031 512.207031 302.539062 506.960938 302.894531 C 501.738281 303.257812 498.121094 299.417969 498.867188 294.339844 C 499.613281 289.273438 504.425781 284.855469 509.632812 284.460938 C 514.851562 284.070312 518.527344 287.882812 517.792969 292.972656 Z M 517.792969 292.972656 " fill-opacity="1" fill-rule="nonzero"/><path fill="#192351" d="M 520.582031 316.160156 L 489.382812 318.171875 L 490.539062 310.347656 C 490.917969 307.789062 493.324219 305.578125 495.925781 305.398438 L 517.542969 303.90625 C 520.1875 303.722656 522.042969 305.664062 521.679688 308.253906 Z M 520.582031 316.160156 " fill-opacity="1" fill-rule="nonzero"/><path fill="#ffffff" d="M 570.4375 390.246094 L 421.417969 395.761719 L 424.652344 375.460938 L 573.195312 368.847656 Z M 570.4375 390.246094 " fill-opacity="1" fill-rule="nonzero"/><path fill="#192351" d="M 476.832031 382.957031 L 475.496094 385.011719 L 472.46875 385.011719 L 475.539062 380.777344 L 473.214844 376.851562 L 476.3125 376.851562 L 477.507812 378.90625 L 478.859375 376.851562 L 481.882812 376.851562 L 478.757812 381.015625 L 481.125 385.027344 L 478.027344 385.027344 Z M 476.832031 382.957031 " fill-opacity="1" fill-rule="nonzero"/><path fill="#192351" d="M 485.65625 382.957031 L 484.316406 385.011719 L 481.292969 385.011719 L 484.359375 380.777344 L 482.039062 376.851562 L 485.132812 376.851562 L 486.332031 378.90625 L 487.679688 376.851562 L 490.707031 376.851562 L 487.582031 381.015625 L 489.945312 385.027344 L 486.851562 385.027344 Z M 485.65625 382.957031 " fill-opacity="1" fill-rule="nonzero"/><path fill="#192351" d="M 494.476562 382.957031 L 493.140625 385.011719 L 490.117188 385.011719 L 493.183594 380.777344 L 490.863281 376.851562 L 493.957031 376.851562 L 495.152344 378.90625 L 496.503906 376.851562 L 499.53125 376.851562 L 496.40625 381.015625 L 498.769531 385.027344 L 495.671875 385.027344 Z M 494.476562 382.957031 " fill-opacity="1" fill-rule="nonzero"/><path fill="#192351" d="M 503.300781 382.957031 L 501.964844 385.011719 L 498.9375 385.011719 L 502.007812 380.777344 L 499.683594 376.851562 L 502.78125 376.851562 L 503.976562 378.90625 L 505.328125 376.851562 L 508.351562 376.851562 L 505.226562 381.015625 L 507.59375 385.027344 L 504.496094 385.027344 Z M 503.300781 382.957031 " fill-opacity="1" fill-rule="nonzero"/><path fill="#192351" d="M 512.125 382.957031 L 510.785156 385.011719 L 507.761719 385.011719 L 510.828125 380.777344 L 508.507812 376.851562 L 511.601562 376.851562 L 512.800781 378.90625 L 514.148438 376.851562 L 517.175781 376.851562 L 514.050781 381.015625 L 516.414062 385.027344 L 513.320312 385.027344 Z M 512.125 382.957031 " fill-opacity="1" fill-rule="nonzero"/><path fill="#192351" d="M 520.945312 382.957031 L 519.609375 385.011719 L 516.585938 385.011719 L 519.652344 380.777344 L 517.332031 376.851562 L 520.425781 376.851562 L 521.621094 378.90625 L 522.972656 376.851562 L 526 376.851562 L 522.875 381.015625 L 525.238281 385.027344 L 522.140625 385.027344 Z M 520.945312 382.957031 " fill-opacity="1" fill-rule="nonzero"/><path fill="#ffffff" d="M 574.488281 358.691406 L 426.203125 365.824219 L 429.410156 345.789062 L 577.203125 337.585938 Z M 574.488281 358.691406 " fill-opacity="1" fill-rule="nonzero"/><path fill="#dae4fe" d="M 536.214844 351.613281 L 464.011719 355.3125 L 464.449219 352.484375 L 536.609375 348.714844 Z M 536.214844 351.613281 " fill-opacity="1" fill-rule="nonzero"/><path fill="#192351" d="M 648.054688 455.996094 C 649.125 457.097656 650.140625 458.253906 651.089844 459.460938 C 652.042969 460.667969 652.933594 461.921875 653.757812 463.226562 C 654.582031 464.527344 655.335938 465.871094 656.023438 467.253906 C 656.710938 468.636719 657.328125 470.054688 657.871094 471.503906 C 658.414062 472.957031 658.886719 474.433594 659.28125 475.941406 C 659.679688 477.445312 660 478.972656 660.242188 480.519531 C 660.488281 482.0625 660.652344 483.621094 660.742188 485.191406 C 660.832031 486.761719 660.84375 488.335938 660.777344 489.917969 C 660.710938 491.5 660.570312 493.074219 660.347656 494.648438 C 660.128906 496.226562 659.832031 497.789062 659.457031 499.34375 C 659.085938 500.898438 658.636719 502.433594 658.117188 503.953125 C 657.59375 505.46875 657 506.964844 656.332031 508.433594 C 655.667969 509.898438 654.933594 511.335938 654.128906 512.738281 C 653.324219 514.144531 652.457031 515.507812 651.523438 516.835938 C 650.589844 518.160156 649.59375 519.441406 648.542969 520.675781 C 647.488281 521.910156 646.378906 523.09375 645.210938 524.226562 C 644.046875 525.359375 642.832031 526.4375 641.566406 527.457031 C 640.304688 528.476562 638.996094 529.433594 637.644531 530.328125 C 636.292969 531.226562 634.902344 532.054688 633.476562 532.820312 C 632.050781 533.582031 630.59375 534.277344 629.109375 534.902344 C 627.621094 535.527344 626.113281 536.078125 624.582031 536.558594 C 623.046875 537.039062 621.5 537.441406 619.933594 537.773438 C 618.371094 538.101562 616.796875 538.355469 615.21875 538.53125 C 613.636719 538.707031 612.054688 538.804688 610.476562 538.828125 C 608.894531 538.851562 607.320312 538.792969 605.75 538.660156 C 604.183594 538.527344 602.628906 538.316406 601.089844 538.03125 C 599.554688 537.742188 598.035156 537.382812 596.542969 536.941406 C 595.046875 536.503906 593.582031 535.996094 592.148438 535.410156 C 590.710938 534.824219 589.308594 534.167969 587.945312 533.445312 C 586.582031 532.71875 585.261719 531.925781 583.984375 531.066406 C 582.703125 530.207031 581.476562 529.28125 580.292969 528.296875 C 579.113281 527.3125 577.988281 526.269531 576.914062 525.167969 C 575.84375 524.0625 574.832031 522.910156 573.878906 521.703125 C 572.925781 520.492188 572.039062 519.238281 571.214844 517.9375 C 570.390625 516.636719 569.632812 515.292969 568.945312 513.910156 C 568.257812 512.527344 567.640625 511.109375 567.097656 509.65625 C 566.554688 508.207031 566.082031 506.726562 565.6875 505.222656 C 565.289062 503.714844 564.972656 502.191406 564.726562 500.644531 C 564.484375 499.097656 564.316406 497.539062 564.226562 495.96875 C 564.136719 494.398438 564.125 492.824219 564.191406 491.246094 C 564.257812 489.664062 564.398438 488.085938 564.621094 486.511719 C 564.839844 484.9375 565.136719 483.375 565.511719 481.820312 C 565.882812 480.265625 566.332031 478.730469 566.855469 477.210938 C 567.375 475.691406 567.96875 474.199219 568.636719 472.730469 C 569.300781 471.261719 570.039062 469.828125 570.839844 468.421875 C 571.644531 467.019531 572.511719 465.652344 573.445312 464.328125 C 574.378906 463.003906 575.375 461.722656 576.429688 460.488281 C 577.484375 459.25 578.59375 458.066406 579.757812 456.933594 C 580.921875 455.800781 582.136719 454.726562 583.402344 453.707031 C 584.664062 452.6875 585.972656 451.730469 587.324219 450.832031 C 588.675781 449.9375 590.066406 449.109375 591.492188 448.34375 C 592.917969 447.578125 594.375 446.886719 595.859375 446.261719 C 597.347656 445.636719 598.855469 445.082031 600.390625 444.605469 C 601.921875 444.125 603.46875 443.71875 605.035156 443.390625 C 606.597656 443.0625 608.171875 442.808594 609.75 442.632812 C 611.332031 442.453125 612.914062 442.355469 614.496094 442.335938 C 616.078125 442.3125 617.652344 442.367188 619.21875 442.5 C 620.785156 442.632812 622.339844 442.84375 623.878906 443.132812 C 625.417969 443.417969 626.933594 443.78125 628.425781 444.21875 C 629.921875 444.65625 631.386719 445.167969 632.824219 445.753906 C 634.257812 446.335938 635.660156 446.992188 637.023438 447.71875 C 638.386719 448.445312 639.707031 449.238281 640.988281 450.097656 C 642.265625 450.957031 643.496094 451.878906 644.675781 452.863281 C 645.855469 453.851562 646.984375 454.894531 648.054688 455.996094 Z M 648.054688 455.996094 " fill-opacity="1" fill-rule="nonzero"/><path fill="#ffffff" d="M 641.621094 452.378906 C 642.695312 453.480469 643.707031 454.636719 644.660156 455.84375 C 645.613281 457.050781 646.5 458.304688 647.324219 459.609375 C 648.148438 460.910156 648.902344 462.253906 649.589844 463.636719 C 650.277344 465.019531 650.894531 466.4375 651.4375 467.886719 C 651.984375 469.339844 652.453125 470.816406 652.851562 472.324219 C 653.246094 473.828125 653.566406 475.355469 653.808594 476.902344 C 654.054688 478.445312 654.222656 480.003906 654.308594 481.574219 C 654.398438 483.144531 654.410156 484.71875 654.347656 486.300781 C 654.28125 487.878906 654.136719 489.457031 653.917969 491.03125 C 653.695312 492.609375 653.398438 494.171875 653.027344 495.726562 C 652.652344 497.28125 652.207031 498.816406 651.683594 500.335938 C 651.160156 501.851562 650.566406 503.347656 649.902344 504.816406 C 649.234375 506.28125 648.5 507.71875 647.695312 509.121094 C 646.890625 510.527344 646.023438 511.890625 645.089844 513.21875 C 644.15625 514.542969 643.164062 515.824219 642.109375 517.058594 C 641.054688 518.292969 639.945312 519.476562 638.78125 520.609375 C 637.613281 521.742188 636.398438 522.820312 635.136719 523.839844 C 633.871094 524.859375 632.5625 525.816406 631.210938 526.710938 C 629.859375 527.605469 628.472656 528.4375 627.046875 529.203125 C 625.621094 529.964844 624.164062 530.660156 622.675781 531.285156 C 621.191406 531.910156 619.679688 532.460938 618.148438 532.941406 C 616.613281 533.421875 615.066406 533.824219 613.503906 534.15625 C 611.9375 534.484375 610.367188 534.738281 608.785156 534.914062 C 607.203125 535.089844 605.625 535.1875 604.042969 535.210938 C 602.460938 535.234375 600.886719 535.175781 599.320312 535.042969 C 597.75 534.910156 596.199219 534.699219 594.660156 534.414062 C 593.121094 534.125 591.605469 533.765625 590.109375 533.324219 C 588.617188 532.886719 587.148438 532.375 585.714844 531.792969 C 584.277344 531.207031 582.878906 530.550781 581.515625 529.828125 C 580.148438 529.101562 578.828125 528.308594 577.550781 527.449219 C 576.273438 526.589844 575.042969 525.664062 573.863281 524.679688 C 572.679688 523.695312 571.554688 522.652344 570.480469 521.546875 C 569.410156 520.445312 568.398438 519.292969 567.445312 518.085938 C 566.492188 516.875 565.605469 515.621094 564.78125 514.320312 C 563.957031 513.019531 563.199219 511.675781 562.511719 510.292969 C 561.824219 508.910156 561.210938 507.492188 560.664062 506.039062 C 560.121094 504.589844 559.652344 503.109375 559.253906 501.605469 C 558.859375 500.097656 558.539062 498.574219 558.292969 497.027344 C 558.050781 495.480469 557.882812 493.921875 557.792969 492.351562 C 557.703125 490.78125 557.691406 489.207031 557.757812 487.628906 C 557.824219 486.046875 557.96875 484.46875 558.1875 482.894531 C 558.410156 481.320312 558.707031 479.757812 559.078125 478.203125 C 559.453125 476.648438 559.898438 475.113281 560.421875 473.59375 C 560.945312 472.074219 561.539062 470.582031 562.203125 469.113281 C 562.871094 467.644531 563.605469 466.210938 564.410156 464.804688 C 565.210938 463.402344 566.082031 462.035156 567.015625 460.710938 C 567.949219 459.386719 568.941406 458.105469 569.996094 456.867188 C 571.050781 455.632812 572.160156 454.449219 573.324219 453.316406 C 574.488281 452.183594 575.703125 451.109375 576.96875 450.089844 C 578.234375 449.070312 579.542969 448.113281 580.894531 447.214844 C 582.246094 446.320312 583.632812 445.492188 585.058594 444.726562 C 586.484375 443.960938 587.941406 443.269531 589.429688 442.644531 C 590.914062 442.019531 592.425781 441.464844 593.957031 440.988281 C 595.488281 440.507812 597.039062 440.101562 598.601562 439.773438 C 600.164062 439.445312 601.738281 439.191406 603.320312 439.015625 C 604.898438 438.835938 606.480469 438.738281 608.0625 438.71875 C 609.644531 438.695312 611.21875 438.75 612.785156 438.882812 C 614.355469 439.015625 615.90625 439.226562 617.445312 439.515625 C 618.984375 439.800781 620.5 440.164062 621.996094 440.601562 C 623.488281 441.039062 624.953125 441.550781 626.390625 442.136719 C 627.828125 442.71875 629.226562 443.375 630.589844 444.101562 C 631.953125 444.828125 633.277344 445.621094 634.554688 446.480469 C 635.832031 447.339844 637.0625 448.261719 638.242188 449.246094 C 639.425781 450.234375 640.550781 451.277344 641.621094 452.378906 Z M 641.621094 452.378906 " fill-opacity="1" fill-rule="nonzero"/><path fill="#192351" d="M 603.351562 536.015625 C 590.25 536.015625 578.203125 530.921875 569.453125 521.648438 C 560.671875 512.363281 556.238281 500.027344 556.96875 486.898438 C 558.476562 459.875 581.695312 437.882812 608.726562 437.882812 C 621.824219 437.882812 633.871094 442.976562 642.625 452.25 C 651.40625 461.535156 655.835938 473.871094 655.105469 487 C 653.601562 514.023438 630.382812 536.015625 603.351562 536.015625 Z M 608.726562 439.5 C 582.539062 439.5 560.039062 460.800781 558.589844 487 C 557.882812 499.675781 562.164062 511.589844 570.632812 520.539062 C 579.089844 529.472656 590.714844 534.398438 603.363281 534.398438 C 629.550781 534.398438 652.050781 513.097656 653.5 486.914062 C 654.203125 474.238281 649.925781 462.320312 641.457031 453.375 C 633 444.425781 621.375 439.5 608.726562 439.5 Z M 608.726562 439.5 " fill-opacity="1" fill-rule="nonzero"/><path fill="#4b6fdd" d="M 582.371094 477.824219 L 581.804688 476.65625 L 607.347656 463.417969 L 607.640625 463.585938 L 631.410156 476.65625 L 630.71875 477.824219 L 607.261719 464.9375 Z M 582.371094 477.824219 " fill-opacity="1" fill-rule="nonzero"/><path fill="#4b6fdd" d="M 624.613281 477.234375 L 622.769531 510.4375 L 628.511719 510.4375 L 630.351562 477.234375 Z M 629.4375 480.359375 L 627.933594 507.355469 L 627.144531 507.355469 L 628.652344 480.359375 Z M 627.707031 480.359375 L 626.203125 507.355469 L 625.414062 507.355469 L 626.921875 480.359375 Z M 625.976562 480.359375 L 624.472656 507.355469 L 623.683594 507.355469 L 625.1875 480.359375 Z M 625.976562 480.359375 " fill-opacity="1" fill-rule="nonzero"/><path fill="#4b6fdd" d="M 630.972656 478.878906 L 623.824219 478.878906 L 623.921875 477.234375 L 631.058594 477.234375 Z M 630.972656 478.878906 " fill-opacity="1" fill-rule="nonzero"/><path fill="#4b6fdd" d="M 629.214844 510.480469 L 622.066406 510.480469 L 622.164062 508.847656 L 629.296875 508.847656 Z M 629.214844 510.480469 " fill-opacity="1" fill-rule="nonzero"/><path fill="#4b6fdd" d="M 615.3125 477.234375 L 613.46875 510.4375 L 619.207031 510.4375 L 621.050781 477.234375 Z M 620.152344 480.359375 L 618.644531 507.355469 L 617.859375 507.355469 L 619.363281 480.359375 Z M 618.40625 480.359375 L 616.902344 507.355469 L 616.113281 507.355469 L 617.617188 480.359375 Z M 616.675781 480.359375 L 615.171875 507.355469 L 614.382812 507.355469 L 615.886719 480.359375 Z M 616.675781 480.359375 " fill-opacity="1" fill-rule="nonzero"/><path fill="#4b6fdd" d="M 621.671875 478.878906 L 614.523438 478.878906 L 614.621094 477.234375 L 621.753906 477.234375 Z M 621.671875 478.878906 " fill-opacity="1" fill-rule="nonzero"/><path fill="#4b6fdd" d="M 619.914062 510.480469 L 612.765625 510.480469 L 612.863281 508.847656 L 619.996094 508.847656 Z M 619.914062 510.480469 " fill-opacity="1" fill-rule="nonzero"/><path fill="#4b6fdd" d="M 593.386719 477.234375 L 591.542969 510.4375 L 597.285156 510.4375 L 599.128906 477.234375 Z M 598.214844 480.359375 L 596.707031 507.355469 L 595.921875 507.355469 L 597.425781 480.359375 Z M 596.484375 480.359375 L 594.976562 507.355469 L 594.1875 507.355469 L 595.695312 480.359375 Z M 594.753906 480.359375 L 593.246094 507.355469 L 592.457031 507.355469 L 593.964844 480.359375 Z M 594.753906 480.359375 " fill-opacity="1" fill-rule="nonzero"/><path fill="#4b6fdd" d="M 599.734375 478.878906 L 592.597656 478.878906 L 592.683594 477.234375 L 599.832031 477.234375 Z M 599.734375 478.878906 " fill-opacity="1" fill-rule="nonzero"/><path fill="#4b6fdd" d="M 597.976562 510.480469 L 590.839844 510.480469 L 590.925781 508.847656 L 598.074219 508.847656 Z M 597.976562 510.480469 " fill-opacity="1" fill-rule="nonzero"/><path fill="#4b6fdd" d="M 584.085938 477.234375 L 582.242188 510.4375 L 587.984375 510.4375 L 589.828125 477.234375 Z M 587.183594 480.359375 L 585.675781 507.355469 L 584.886719 507.355469 L 586.394531 480.359375 Z M 585.449219 480.359375 L 583.945312 507.355469 L 583.15625 507.355469 L 584.664062 480.359375 Z M 585.449219 480.359375 " fill-opacity="1" fill-rule="nonzero"/><path fill="#4b6fdd" d="M 590.433594 478.878906 L 583.296875 478.878906 L 583.382812 477.234375 L 590.53125 477.234375 Z M 590.433594 478.878906 " fill-opacity="1" fill-rule="nonzero"/><path fill="#4b6fdd" d="M 588.671875 510.480469 L 581.539062 510.480469 L 581.625 508.847656 L 588.773438 508.847656 Z M 588.671875 510.480469 " fill-opacity="1" fill-rule="nonzero"/><path fill="#4b6fdd" d="M 610.175781 494.496094 L 609.300781 510.210938 C 609.300781 510.339844 609.191406 510.4375 609.0625 510.4375 L 608.234375 510.4375 C 608.332031 510.4375 608.414062 510.351562 608.414062 510.253906 L 609.289062 494.59375 C 609.386719 492.738281 607.964844 491.234375 606.109375 491.234375 C 604.25 491.234375 602.660156 492.738281 602.546875 494.59375 L 601.675781 510.253906 C 601.675781 510.351562 601.746094 510.4375 601.84375 510.4375 L 601.015625 510.4375 C 600.886719 510.4375 600.804688 510.339844 600.804688 510.210938 L 601.675781 494.496094 C 601.800781 492.160156 603.8125 490.261719 606.148438 490.261719 C 608.484375 490.261719 610.300781 492.160156 610.175781 494.496094 Z M 610.175781 494.496094 " fill-opacity="1" fill-rule="nonzero"/><path fill="#4b6fdd" d="M 606.753906 479.65625 C 604.417969 479.65625 602.40625 481.554688 602.28125 483.890625 L 602.140625 486.449219 C 602.140625 486.578125 602.222656 486.675781 602.351562 486.675781 L 610.386719 486.675781 C 610.511719 486.675781 610.609375 486.578125 610.625 486.449219 L 610.765625 483.890625 C 610.890625 481.554688 609.089844 479.65625 606.753906 479.65625 Z M 606.753906 479.65625 " fill-opacity="1" fill-rule="nonzero"/><path fill="#4b6fdd" d="M 614.664062 488.96875 L 598.480469 488.96875 L 598.507812 488.320312 L 614.707031 488.320312 Z M 614.664062 488.96875 " fill-opacity="1" fill-rule="nonzero"/><path fill="#4b6fdd" d="M 631.324219 477.996094 L 581.734375 477.996094 C 581.34375 477.996094 581.046875 477.683594 581.074219 477.289062 L 581.074219 477.25 C 581.101562 476.855469 581.425781 476.546875 581.820312 476.546875 L 631.410156 476.546875 C 631.804688 476.546875 632.097656 476.855469 632.070312 477.25 L 632.070312 477.289062 C 632.042969 477.683594 631.71875 477.996094 631.324219 477.996094 Z M 631.324219 477.996094 " fill-opacity="1" fill-rule="nonzero"/><path fill="#4b6fdd" d="M 606.683594 473.886719 C 605.839844 473.800781 605.234375 473.324219 605.265625 472.492188 L 606.402344 472.507812 C 606.417969 472.773438 606.53125 472.945312 606.742188 473.015625 L 606.8125 471.988281 C 606.148438 471.804688 605.320312 471.59375 605.390625 470.566406 C 605.445312 469.75 606.136719 469.273438 606.996094 469.230469 L 607.023438 468.695312 L 607.429688 468.695312 L 607.402344 469.230469 C 608.261719 469.3125 608.78125 469.777344 608.78125 470.59375 L 607.628906 470.578125 C 607.613281 470.339844 607.515625 470.1875 607.332031 470.117188 L 607.261719 471.128906 C 607.921875 471.324219 608.769531 471.523438 608.710938 472.535156 C 608.667969 473.238281 608.078125 473.859375 607.078125 473.886719 L 607.050781 474.421875 L 606.644531 474.421875 Z M 606.867188 470.988281 L 606.925781 470.085938 C 606.683594 470.128906 606.53125 470.269531 606.515625 470.523438 C 606.515625 470.75 606.65625 470.890625 606.867188 470.988281 Z M 607.207031 472.113281 L 607.148438 473.042969 C 607.402344 473 607.570312 472.832031 607.585938 472.578125 C 607.601562 472.339844 607.445312 472.210938 607.207031 472.113281 Z M 607.207031 472.113281 " fill-opacity="1" fill-rule="nonzero"/><path fill="#192351" d="M 395.0625 192.886719 C 395.0625 192.886719 379.117188 205.875 348.878906 205.058594 L 348.878906 255.875 C 348.878906 255.875 369.523438 303.695312 395.089844 303.695312 C 420.65625 303.695312 441.246094 255.875 441.246094 255.875 L 441.246094 205.058594 C 411.003906 205.875 395.0625 192.886719 395.0625 192.886719 Z M 395.0625 192.886719 " fill-opacity="1" fill-rule="nonzero"/><path fill="#4b6fdd" d="M 436.980469 209.390625 L 436.980469 254.890625 C 435.53125 258.039062 430.789062 267.929688 423.992188 277.652344 C 416.941406 287.726562 406.207031 299.726562 395.074219 299.726562 L 395.046875 299.726562 C 383.929688 299.714844 373.179688 287.710938 366.128906 277.640625 C 359.320312 267.929688 354.5625 258.039062 353.128906 254.875 L 353.128906 209.375 C 374.65625 208.800781 388.84375 201.835938 395.046875 198.023438 C 401.265625 201.851562 415.453125 208.8125 436.980469 209.390625 Z M 436.980469 209.390625 " fill-opacity="1" fill-rule="nonzero"/><path fill="#192351" d="M 436.980469 209.390625 L 436.980469 254.890625 C 435.53125 258.039062 430.789062 267.929688 423.992188 277.652344 C 416.941406 287.726562 406.207031 299.726562 395.074219 299.726562 L 395.046875 299.726562 L 395.046875 198.023438 C 401.265625 201.851562 415.453125 208.8125 436.980469 209.390625 Z M 436.980469 209.390625 " fill-opacity="0.2" fill-rule="nonzero"/><path fill="#ffffff" d="M 381.117188 259.757812 L 373.628906 243.171875 C 372.871094 241.496094 373.617188 239.527344 375.289062 238.78125 C 376.964844 238.035156 378.933594 238.765625 379.679688 240.441406 L 384.210938 250.5 L 416.535156 232.886719 C 418.140625 232 420.164062 232.605469 421.039062 234.207031 C 421.910156 235.824219 421.320312 237.839844 419.714844 238.710938 Z M 381.117188 259.757812 " fill-opacity="1" fill-rule="nonzero"/><g clip-path="url(#4180188462)"><path fill="#192351" d="M 142.449219 648.296875 L 697.320312 648.296875 L 697.320312 653.8125 L 142.449219 653.8125 Z M 142.449219 648.296875 " fill-opacity="1" fill-rule="nonzero"/></g><path fill="#4b6fdd" d="M 457.03125 569.1875 L 457.03125 584.550781 C 457.03125 585.945312 455.894531 587.070312 454.484375 587.070312 L 377.472656 587.070312 C 376.078125 587.070312 374.9375 585.929688 374.9375 584.550781 L 374.9375 569.1875 C 374.9375 567.796875 376.078125 566.671875 377.472656 566.671875 L 454.484375 566.671875 C 455.894531 566.671875 457.03125 567.808594 457.03125 569.1875 Z M 457.03125 569.1875 " fill-opacity="1" fill-rule="nonzero"/><path fill="#192351" d="M 457.03125 583.1875 L 457.03125 584.550781 C 457.03125 585.945312 455.894531 587.070312 454.484375 587.070312 L 377.472656 587.070312 C 376.078125 587.070312 374.9375 585.929688 374.9375 584.550781 L 374.9375 583.1875 Z M 457.03125 583.1875 " fill-opacity="1" fill-rule="nonzero"/><path fill="#192351" d="M 383.707031 581.441406 C 383.410156 581.441406 383.183594 581.203125 383.183594 580.921875 L 383.183594 571.917969 C 383.183594 571.621094 383.425781 571.398438 383.707031 571.398438 C 383.988281 571.398438 384.226562 571.636719 384.226562 571.917969 L 384.226562 580.921875 C 384.242188 581.203125 384 581.441406 383.707031 581.441406 Z M 383.707031 581.441406 " fill-opacity="1" fill-rule="nonzero"/><path fill="#192351" d="M 394.46875 581.441406 C 394.175781 581.441406 393.949219 581.203125 393.949219 580.921875 L 393.949219 571.917969 C 393.949219 571.621094 394.1875 571.398438 394.46875 571.398438 C 394.753906 571.398438 394.992188 571.636719 394.992188 571.917969 L 394.992188 580.921875 C 394.992188 581.203125 394.765625 581.441406 394.46875 581.441406 Z M 394.46875 581.441406 " fill-opacity="1" fill-rule="nonzero"/><path fill="#192351" d="M 405.234375 581.441406 C 404.941406 581.441406 404.714844 581.203125 404.714844 580.921875 L 404.714844 571.917969 C 404.714844 571.621094 404.953125 571.398438 405.234375 571.398438 C 405.515625 571.398438 405.757812 571.636719 405.757812 571.917969 L 405.757812 580.921875 C 405.757812 581.203125 405.515625 581.441406 405.234375 581.441406 Z M 405.234375 581.441406 " fill-opacity="1" fill-rule="nonzero"/><path fill="#192351" d="M 415.984375 581.441406 C 415.691406 581.441406 415.464844 581.203125 415.464844 580.921875 L 415.464844 571.917969 C 415.464844 571.621094 415.703125 571.398438 415.984375 571.398438 C 416.265625 571.398438 416.507812 571.636719 416.507812 571.917969 L 416.507812 580.921875 C 416.519531 581.203125 416.28125 581.441406 415.984375 581.441406 Z M 415.984375 581.441406 " fill-opacity="1" fill-rule="nonzero"/><path fill="#192351" d="M 426.75 581.441406 C 426.457031 581.441406 426.230469 581.203125 426.230469 580.921875 L 426.230469 571.917969 C 426.230469 571.621094 426.46875 571.398438 426.75 571.398438 C 427.03125 571.398438 427.273438 571.636719 427.273438 571.917969 L 427.273438 580.921875 C 427.273438 581.203125 427.046875 581.441406 426.75 581.441406 Z M 426.75 581.441406 " fill-opacity="1" fill-rule="nonzero"/><path fill="#192351" d="M 437.515625 581.441406 C 437.21875 581.441406 436.996094 581.203125 436.996094 580.921875 L 436.996094 571.917969 C 436.996094 571.621094 437.234375 571.398438 437.515625 571.398438 C 437.796875 571.398438 438.035156 571.636719 438.035156 571.917969 L 438.035156 580.921875 C 438.035156 581.203125 437.796875 581.441406 437.515625 581.441406 Z M 437.515625 581.441406 " fill-opacity="1" fill-rule="nonzero"/><path fill="#192351" d="M 448.265625 581.441406 C 447.972656 581.441406 447.746094 581.203125 447.746094 580.921875 L 447.746094 571.917969 C 447.746094 571.621094 447.984375 571.398438 448.265625 571.398438 C 448.546875 571.398438 448.789062 571.636719 448.789062 571.917969 L 448.789062 580.921875 C 448.800781 581.203125 448.5625 581.441406 448.265625 581.441406 Z M 448.265625 581.441406 " fill-opacity="1" fill-rule="nonzero"/><path fill="#4b6fdd" d="M 447.195312 589.601562 L 447.195312 604.964844 C 447.195312 606.359375 446.058594 607.484375 444.648438 607.484375 L 367.636719 607.484375 C 366.242188 607.484375 365.101562 606.34375 365.101562 604.964844 L 365.101562 589.601562 C 365.101562 588.210938 366.242188 587.085938 367.636719 587.085938 L 444.648438 587.085938 C 446.070312 587.085938 447.195312 588.210938 447.195312 589.601562 Z M 447.195312 589.601562 " fill-opacity="1" fill-rule="nonzero"/><path fill="#192351" d="M 447.195312 603.601562 L 447.195312 604.964844 C 447.195312 606.359375 446.058594 607.484375 444.648438 607.484375 L 367.636719 607.484375 C 366.242188 607.484375 365.101562 606.34375 365.101562 604.964844 L 365.101562 603.601562 Z M 447.195312 603.601562 " fill-opacity="1" fill-rule="nonzero"/><path fill="#192351" d="M 373.882812 601.855469 C 373.589844 601.855469 373.363281 601.617188 373.363281 601.335938 L 373.363281 592.332031 C 373.363281 592.035156 373.601562 591.8125 373.882812 591.8125 C 374.164062 591.8125 374.40625 592.050781 374.40625 592.332031 L 374.40625 601.335938 C 374.40625 601.617188 374.164062 601.855469 373.882812 601.855469 Z M 373.882812 601.855469 " fill-opacity="1" fill-rule="nonzero"/><path fill="#192351" d="M 384.648438 601.855469 C 384.351562 601.855469 384.128906 601.617188 384.128906 601.335938 L 384.128906 592.332031 C 384.128906 592.035156 384.367188 591.8125 384.648438 591.8125 C 384.929688 591.8125 385.167969 592.050781 385.167969 592.332031 L 385.167969 601.335938 C 385.167969 601.617188 384.929688 601.855469 384.648438 601.855469 Z M 384.648438 601.855469 " fill-opacity="1" fill-rule="nonzero"/><path fill="#192351" d="M 395.398438 601.855469 C 395.105469 601.855469 394.878906 601.617188 394.878906 601.335938 L 394.878906 592.332031 C 394.878906 592.035156 395.117188 591.8125 395.398438 591.8125 C 395.679688 591.8125 395.921875 592.050781 395.921875 592.332031 L 395.921875 601.335938 C 395.933594 601.617188 395.695312 601.855469 395.398438 601.855469 Z M 395.398438 601.855469 " fill-opacity="1" fill-rule="nonzero"/><path fill="#192351" d="M 406.164062 601.855469 C 405.867188 601.855469 405.644531 601.617188 405.644531 601.335938 L 405.644531 592.332031 C 405.644531 592.035156 405.882812 591.8125 406.164062 591.8125 C 406.445312 591.8125 406.683594 592.050781 406.683594 592.332031 L 406.683594 601.335938 C 406.683594 601.617188 406.460938 601.855469 406.164062 601.855469 Z M 406.164062 601.855469 " fill-opacity="1" fill-rule="nonzero"/><path fill="#192351" d="M 416.929688 601.855469 C 416.632812 601.855469 416.410156 601.617188 416.410156 601.335938 L 416.410156 592.332031 C 416.410156 592.035156 416.648438 591.8125 416.929688 591.8125 C 417.210938 591.8125 417.449219 592.050781 417.449219 592.332031 L 417.449219 601.335938 C 417.449219 601.617188 417.210938 601.855469 416.929688 601.855469 Z M 416.929688 601.855469 " fill-opacity="1" fill-rule="nonzero"/><path fill="#192351" d="M 427.679688 601.855469 C 427.382812 601.855469 427.160156 601.617188 427.160156 601.335938 L 427.160156 592.332031 C 427.160156 592.035156 427.398438 591.8125 427.679688 591.8125 C 427.960938 591.8125 428.199219 592.050781 428.199219 592.332031 L 428.199219 601.335938 C 428.214844 601.617188 427.976562 601.855469 427.679688 601.855469 Z M 427.679688 601.855469 " fill-opacity="1" fill-rule="nonzero"/><path fill="#192351" d="M 438.445312 601.855469 C 438.148438 601.855469 437.925781 601.617188 437.925781 601.335938 L 437.925781 592.332031 C 437.925781 592.035156 438.164062 591.8125 438.445312 591.8125 C 438.726562 591.8125 438.964844 592.050781 438.964844 592.332031 L 438.964844 601.335938 C 438.964844 601.617188 438.738281 601.855469 438.445312 601.855469 Z M 438.445312 601.855469 " fill-opacity="1" fill-rule="nonzero"/><path fill="#4b6fdd" d="M 454.0625 610.015625 L 454.0625 625.378906 C 454.0625 626.773438 452.925781 627.898438 451.515625 627.898438 L 374.503906 627.898438 C 373.109375 627.898438 371.96875 626.757812 371.96875 625.378906 L 371.96875 610.015625 C 371.96875 608.625 373.109375 607.5 374.503906 607.5 L 451.515625 607.5 C 452.925781 607.484375 454.0625 608.625 454.0625 610.015625 Z M 454.0625 610.015625 " fill-opacity="1" fill-rule="nonzero"/><path fill="#192351" d="M 454.0625 624.015625 L 454.0625 625.378906 C 454.0625 626.773438 452.925781 627.898438 451.515625 627.898438 L 374.503906 627.898438 C 373.109375 627.898438 371.96875 626.757812 371.96875 625.378906 L 371.96875 624.015625 Z M 454.0625 624.015625 " fill-opacity="1" fill-rule="nonzero"/><path fill="#192351" d="M 380.738281 622.257812 C 380.441406 622.257812 380.214844 622.019531 380.214844 621.734375 L 380.214844 612.730469 C 380.214844 612.4375 380.457031 612.210938 380.738281 612.210938 C 381.019531 612.210938 381.257812 612.449219 381.257812 612.730469 L 381.257812 621.734375 C 381.269531 622.03125 381.03125 622.257812 380.738281 622.257812 Z M 380.738281 622.257812 " fill-opacity="1" fill-rule="nonzero"/><path fill="#192351" d="M 391.5 622.257812 C 391.207031 622.257812 390.980469 622.019531 390.980469 621.734375 L 390.980469 612.730469 C 390.980469 612.4375 391.21875 612.210938 391.5 612.210938 C 391.78125 612.210938 392.023438 612.449219 392.023438 612.730469 L 392.023438 621.734375 C 392.035156 622.03125 391.796875 622.257812 391.5 622.257812 Z M 391.5 622.257812 " fill-opacity="1" fill-rule="nonzero"/><path fill="#192351" d="M 402.265625 622.257812 C 401.972656 622.257812 401.746094 622.019531 401.746094 621.734375 L 401.746094 612.730469 C 401.746094 612.4375 401.984375 612.210938 402.265625 612.210938 C 402.546875 612.210938 402.785156 612.449219 402.785156 612.730469 L 402.785156 621.734375 C 402.785156 622.03125 402.546875 622.257812 402.265625 622.257812 Z M 402.265625 622.257812 " fill-opacity="1" fill-rule="nonzero"/><path fill="#192351" d="M 413.015625 622.257812 C 412.722656 622.257812 412.496094 622.019531 412.496094 621.734375 L 412.496094 612.730469 C 412.496094 612.4375 412.734375 612.210938 413.015625 612.210938 C 413.296875 612.210938 413.539062 612.449219 413.539062 612.730469 L 413.539062 621.734375 C 413.550781 622.03125 413.3125 622.257812 413.015625 622.257812 Z M 413.015625 622.257812 " fill-opacity="1" fill-rule="nonzero"/><path fill="#192351" d="M 423.78125 622.257812 C 423.488281 622.257812 423.261719 622.019531 423.261719 621.734375 L 423.261719 612.730469 C 423.261719 612.4375 423.5 612.210938 423.78125 612.210938 C 424.0625 612.210938 424.300781 612.449219 424.300781 612.730469 L 424.300781 621.734375 C 424.316406 622.03125 424.078125 622.257812 423.78125 622.257812 Z M 423.78125 622.257812 " fill-opacity="1" fill-rule="nonzero"/><path fill="#192351" d="M 434.546875 622.257812 C 434.25 622.257812 434.027344 622.019531 434.027344 621.734375 L 434.027344 612.730469 C 434.027344 612.4375 434.265625 612.210938 434.546875 612.210938 C 434.828125 612.210938 435.066406 612.449219 435.066406 612.730469 L 435.066406 621.734375 C 435.066406 622.03125 434.828125 622.257812 434.546875 622.257812 Z M 434.546875 622.257812 " fill-opacity="1" fill-rule="nonzero"/><path fill="#192351" d="M 445.3125 622.257812 C 445.015625 622.257812 444.789062 622.019531 444.789062 621.734375 L 444.789062 612.730469 C 444.789062 612.4375 445.03125 612.210938 445.3125 612.210938 C 445.59375 612.210938 445.832031 612.449219 445.832031 612.730469 L 445.832031 621.734375 C 445.832031 622.03125 445.59375 622.257812 445.3125 622.257812 Z M 445.3125 622.257812 " fill-opacity="1" fill-rule="nonzero"/><path fill="#4b6fdd" d="M 457.03125 630.429688 L 457.03125 645.792969 C 457.03125 647.1875 455.894531 648.3125 454.484375 648.3125 L 377.472656 648.3125 C 376.078125 648.3125 374.9375 647.171875 374.9375 645.792969 L 374.9375 630.429688 C 374.9375 629.039062 376.078125 627.914062 377.472656 627.914062 L 454.484375 627.914062 C 455.894531 627.898438 457.03125 629.039062 457.03125 630.429688 Z M 457.03125 630.429688 " fill-opacity="1" fill-rule="nonzero"/><path fill="#192351" d="M 457.03125 644.414062 L 457.03125 645.78125 C 457.03125 647.171875 455.894531 648.296875 454.484375 648.296875 L 377.472656 648.296875 C 376.078125 648.296875 374.9375 647.160156 374.9375 645.78125 L 374.9375 644.414062 Z M 457.03125 644.414062 " fill-opacity="1" fill-rule="nonzero"/><path fill="#192351" d="M 383.707031 642.671875 C 383.410156 642.671875 383.183594 642.433594 383.183594 642.148438 L 383.183594 633.144531 C 383.183594 632.851562 383.425781 632.625 383.707031 632.625 C 383.988281 632.625 384.226562 632.863281 384.226562 633.144531 L 384.226562 642.148438 C 384.242188 642.433594 384 642.671875 383.707031 642.671875 Z M 383.707031 642.671875 " fill-opacity="1" fill-rule="nonzero"/><path fill="#192351" d="M 394.46875 642.671875 C 394.175781 642.671875 393.949219 642.433594 393.949219 642.148438 L 393.949219 633.144531 C 393.949219 632.851562 394.1875 632.625 394.46875 632.625 C 394.753906 632.625 394.992188 632.863281 394.992188 633.144531 L 394.992188 642.148438 C 394.992188 642.433594 394.765625 642.671875 394.46875 642.671875 Z M 394.46875 642.671875 " fill-opacity="1" fill-rule="nonzero"/><path fill="#192351" d="M 405.234375 642.671875 C 404.941406 642.671875 404.714844 642.433594 404.714844 642.148438 L 404.714844 633.144531 C 404.714844 632.851562 404.953125 632.625 405.234375 632.625 C 405.515625 632.625 405.757812 632.863281 405.757812 633.144531 L 405.757812 642.148438 C 405.757812 642.433594 405.515625 642.671875 405.234375 642.671875 Z M 405.234375 642.671875 " fill-opacity="1" fill-rule="nonzero"/><path fill="#192351" d="M 415.984375 642.671875 C 415.691406 642.671875 415.464844 642.433594 415.464844 642.148438 L 415.464844 633.144531 C 415.464844 632.851562 415.703125 632.625 415.984375 632.625 C 416.265625 632.625 416.507812 632.863281 416.507812 633.144531 L 416.507812 642.148438 C 416.519531 642.433594 416.28125 642.671875 415.984375 642.671875 Z M 415.984375 642.671875 " fill-opacity="1" fill-rule="nonzero"/><path fill="#192351" d="M 426.75 642.671875 C 426.457031 642.671875 426.230469 642.433594 426.230469 642.148438 L 426.230469 633.144531 C 426.230469 632.851562 426.46875 632.625 426.75 632.625 C 427.03125 632.625 427.273438 632.863281 427.273438 633.144531 L 427.273438 642.148438 C 427.273438 642.433594 427.046875 642.671875 426.75 642.671875 Z M 426.75 642.671875 " fill-opacity="1" fill-rule="nonzero"/><path fill="#192351" d="M 437.515625 642.671875 C 437.21875 642.671875 436.996094 642.433594 436.996094 642.148438 L 436.996094 633.144531 C 436.996094 632.851562 437.234375 632.625 437.515625 632.625 C 437.796875 632.625 438.035156 632.863281 438.035156 633.144531 L 438.035156 642.148438 C 438.035156 642.433594 437.796875 642.671875 437.515625 642.671875 Z M 437.515625 642.671875 " fill-opacity="1" fill-rule="nonzero"/><path fill="#192351" d="M 448.265625 642.671875 C 447.972656 642.671875 447.746094 642.433594 447.746094 642.148438 L 447.746094 633.144531 C 447.746094 632.851562 447.984375 632.625 448.265625 632.625 C 448.546875 632.625 448.789062 632.863281 448.789062 633.144531 L 448.789062 642.148438 C 448.800781 642.433594 448.5625 642.671875 448.265625 642.671875 Z M 448.265625 642.671875 " fill-opacity="1" fill-rule="nonzero"/><path fill="#4b6fdd" d="M 469.683594 589.601562 L 469.683594 604.964844 C 469.683594 606.359375 470.824219 607.484375 472.230469 607.484375 L 549.246094 607.484375 C 550.636719 607.484375 551.777344 606.34375 551.777344 604.964844 L 551.777344 589.601562 C 551.777344 588.210938 550.636719 587.085938 549.246094 587.085938 L 472.230469 587.085938 C 470.808594 587.085938 469.683594 588.210938 469.683594 589.601562 Z M 469.683594 589.601562 " fill-opacity="1" fill-rule="nonzero"/><path fill="#192351" d="M 469.683594 603.601562 L 469.683594 604.964844 C 469.683594 606.359375 470.824219 607.484375 472.230469 607.484375 L 549.246094 607.484375 C 550.636719 607.484375 551.777344 606.34375 551.777344 604.964844 L 551.777344 603.601562 Z M 469.683594 603.601562 " fill-opacity="1" fill-rule="nonzero"/><path fill="#192351" d="M 542.996094 601.855469 C 542.703125 601.855469 542.476562 601.617188 542.476562 601.335938 L 542.476562 592.332031 C 542.476562 592.035156 542.714844 591.8125 542.996094 591.8125 C 543.277344 591.8125 543.515625 592.050781 543.515625 592.332031 L 543.515625 601.335938 C 543.53125 601.617188 543.292969 601.855469 542.996094 601.855469 Z M 542.996094 601.855469 " fill-opacity="1" fill-rule="nonzero"/><path fill="#192351" d="M 532.246094 601.855469 C 531.949219 601.855469 531.726562 601.617188 531.726562 601.335938 L 531.726562 592.332031 C 531.726562 592.035156 531.964844 591.8125 532.246094 591.8125 C 532.527344 591.8125 532.765625 592.050781 532.765625 592.332031 L 532.765625 601.335938 C 532.765625 601.617188 532.527344 601.855469 532.246094 601.855469 Z M 532.246094 601.855469 " fill-opacity="1" fill-rule="nonzero"/><path fill="#192351" d="M 521.480469 601.855469 C 521.1875 601.855469 520.960938 601.617188 520.960938 601.335938 L 520.960938 592.332031 C 520.960938 592.035156 521.199219 591.8125 521.480469 591.8125 C 521.761719 591.8125 522 592.050781 522 592.332031 L 522 601.335938 C 522 601.617188 521.761719 601.855469 521.480469 601.855469 Z M 521.480469 601.855469 " fill-opacity="1" fill-rule="nonzero"/><path fill="#192351" d="M 510.714844 601.855469 C 510.421875 601.855469 510.195312 601.617188 510.195312 601.335938 L 510.195312 592.332031 C 510.195312 592.035156 510.433594 591.8125 510.714844 591.8125 C 510.996094 591.8125 511.238281 592.050781 511.238281 592.332031 L 511.238281 601.335938 C 511.238281 601.617188 511.011719 601.855469 510.714844 601.855469 Z M 510.714844 601.855469 " fill-opacity="1" fill-rule="nonzero"/><path fill="#192351" d="M 499.953125 601.855469 C 499.65625 601.855469 499.429688 601.617188 499.429688 601.335938 L 499.429688 592.332031 C 499.429688 592.035156 499.671875 591.8125 499.953125 591.8125 C 500.234375 591.8125 500.472656 592.050781 500.472656 592.332031 L 500.472656 601.335938 C 500.488281 601.617188 500.246094 601.855469 499.953125 601.855469 Z M 499.953125 601.855469 " fill-opacity="1" fill-rule="nonzero"/><path fill="#192351" d="M 489.199219 601.855469 C 488.90625 601.855469 488.679688 601.617188 488.679688 601.335938 L 488.679688 592.332031 C 488.679688 592.035156 488.917969 591.8125 489.199219 591.8125 C 489.480469 591.8125 489.722656 592.050781 489.722656 592.332031 L 489.722656 601.335938 C 489.722656 601.617188 489.480469 601.855469 489.199219 601.855469 Z M 489.199219 601.855469 " fill-opacity="1" fill-rule="nonzero"/><path fill="#192351" d="M 478.4375 601.855469 C 478.140625 601.855469 477.914062 601.617188 477.914062 601.335938 L 477.914062 592.332031 C 477.914062 592.035156 478.15625 591.8125 478.4375 591.8125 C 478.71875 591.8125 478.957031 592.050781 478.957031 592.332031 L 478.957031 601.335938 C 478.957031 601.617188 478.730469 601.855469 478.4375 601.855469 Z M 478.4375 601.855469 " fill-opacity="1" fill-rule="nonzero"/><path fill="#4b6fdd" d="M 457.246094 610.015625 L 457.246094 625.378906 C 457.246094 626.773438 458.382812 627.898438 459.792969 627.898438 L 536.804688 627.898438 C 538.199219 627.898438 539.339844 626.757812 539.339844 625.378906 L 539.339844 610.015625 C 539.339844 608.625 538.199219 607.5 536.804688 607.5 L 459.792969 607.5 C 458.382812 607.484375 457.246094 608.625 457.246094 610.015625 Z M 457.246094 610.015625 " fill-opacity="1" fill-rule="nonzero"/><path fill="#192351" d="M 457.246094 624.015625 L 457.246094 625.378906 C 457.246094 626.773438 458.382812 627.898438 459.792969 627.898438 L 536.804688 627.898438 C 538.199219 627.898438 539.339844 626.757812 539.339844 625.378906 L 539.339844 624.015625 Z M 457.246094 624.015625 " fill-opacity="1" fill-rule="nonzero"/><path fill="#192351" d="M 530.570312 622.257812 C 530.277344 622.257812 530.050781 622.019531 530.050781 621.734375 L 530.050781 612.730469 C 530.050781 612.4375 530.289062 612.210938 530.570312 612.210938 C 530.851562 612.210938 531.09375 612.449219 531.09375 612.730469 L 531.09375 621.734375 C 531.09375 622.03125 530.867188 622.257812 530.570312 622.257812 Z M 530.570312 622.257812 " fill-opacity="1" fill-rule="nonzero"/><path fill="#192351" d="M 519.808594 622.257812 C 519.511719 622.257812 519.285156 622.019531 519.285156 621.734375 L 519.285156 612.730469 C 519.285156 612.4375 519.523438 612.210938 519.808594 612.210938 C 520.089844 612.210938 520.328125 612.449219 520.328125 612.730469 L 520.328125 621.734375 C 520.339844 622.03125 520.101562 622.257812 519.808594 622.257812 Z M 519.808594 622.257812 " fill-opacity="1" fill-rule="nonzero"/><path fill="#192351" d="M 509.054688 622.257812 C 508.761719 622.257812 508.535156 622.019531 508.535156 621.734375 L 508.535156 612.730469 C 508.535156 612.4375 508.773438 612.210938 509.054688 612.210938 C 509.335938 612.210938 509.578125 612.449219 509.578125 612.730469 L 509.578125 621.734375 C 509.578125 622.03125 509.335938 622.257812 509.054688 622.257812 Z M 509.054688 622.257812 " fill-opacity="1" fill-rule="nonzero"/><path fill="#192351" d="M 498.292969 622.257812 C 497.996094 622.257812 497.769531 622.019531 497.769531 621.734375 L 497.769531 612.730469 C 497.769531 612.4375 498.007812 612.210938 498.292969 612.210938 C 498.574219 612.210938 498.8125 612.449219 498.8125 612.730469 L 498.8125 621.734375 C 498.8125 622.03125 498.574219 622.257812 498.292969 622.257812 Z M 498.292969 622.257812 " fill-opacity="1" fill-rule="nonzero"/><path fill="#192351" d="M 487.527344 622.257812 C 487.230469 622.257812 487.003906 622.019531 487.003906 621.734375 L 487.003906 612.730469 C 487.003906 612.4375 487.246094 612.210938 487.527344 612.210938 C 487.808594 612.210938 488.046875 612.449219 488.046875 612.730469 L 488.046875 621.734375 C 488.0625 622.03125 487.820312 622.257812 487.527344 622.257812 Z M 487.527344 622.257812 " fill-opacity="1" fill-rule="nonzero"/><path fill="#192351" d="M 476.761719 622.257812 C 476.464844 622.257812 476.242188 622.019531 476.242188 621.734375 L 476.242188 612.730469 C 476.242188 612.4375 476.480469 612.210938 476.761719 612.210938 C 477.042969 612.210938 477.28125 612.449219 477.28125 612.730469 L 477.28125 621.734375 C 477.296875 622.03125 477.058594 622.257812 476.761719 622.257812 Z M 476.761719 622.257812 " fill-opacity="1" fill-rule="nonzero"/><path fill="#192351" d="M 466.011719 622.257812 C 465.714844 622.257812 465.488281 622.019531 465.488281 621.734375 L 465.488281 612.730469 C 465.488281 612.4375 465.730469 612.210938 466.011719 612.210938 C 466.292969 612.210938 466.53125 612.449219 466.53125 612.730469 L 466.53125 621.734375 C 466.53125 622.03125 466.292969 622.257812 466.011719 622.257812 Z M 466.011719 622.257812 " fill-opacity="1" fill-rule="nonzero"/><path fill="#4b6fdd" d="M 459.847656 630.429688 L 459.847656 645.792969 C 459.847656 647.1875 460.988281 648.3125 462.394531 648.3125 L 539.410156 648.3125 C 540.800781 648.3125 541.941406 647.171875 541.941406 645.792969 L 541.941406 630.429688 C 541.941406 629.039062 540.800781 627.914062 539.410156 627.914062 L 462.394531 627.914062 C 460.988281 627.898438 459.847656 629.039062 459.847656 630.429688 Z M 459.847656 630.429688 " fill-opacity="1" fill-rule="nonzero"/><path fill="#192351" d="M 459.847656 644.414062 L 459.847656 645.78125 C 459.847656 647.171875 460.988281 648.296875 462.394531 648.296875 L 539.410156 648.296875 C 540.800781 648.296875 541.941406 647.160156 541.941406 645.78125 L 541.941406 644.414062 Z M 459.847656 644.414062 " fill-opacity="1" fill-rule="nonzero"/><path fill="#192351" d="M 533.175781 642.671875 C 532.878906 642.671875 532.652344 642.433594 532.652344 642.148438 L 532.652344 633.144531 C 532.652344 632.851562 532.894531 632.625 533.175781 632.625 C 533.457031 632.625 533.695312 632.863281 533.695312 633.144531 L 533.695312 642.148438 C 533.695312 642.433594 533.457031 642.671875 533.175781 642.671875 Z M 533.175781 642.671875 " fill-opacity="1" fill-rule="nonzero"/><path fill="#192351" d="M 522.410156 642.671875 C 522.113281 642.671875 521.890625 642.433594 521.890625 642.148438 L 521.890625 633.144531 C 521.890625 632.851562 522.128906 632.625 522.410156 632.625 C 522.691406 632.625 522.929688 632.863281 522.929688 633.144531 L 522.929688 642.148438 C 522.929688 642.433594 522.707031 642.671875 522.410156 642.671875 Z M 522.410156 642.671875 " fill-opacity="1" fill-rule="nonzero"/><path fill="#192351" d="M 511.644531 642.671875 C 511.351562 642.671875 511.125 642.433594 511.125 642.148438 L 511.125 633.144531 C 511.125 632.851562 511.363281 632.625 511.644531 632.625 C 511.925781 632.625 512.164062 632.863281 512.164062 633.144531 L 512.164062 642.148438 C 512.179688 642.433594 511.941406 642.671875 511.644531 642.671875 Z M 511.644531 642.671875 " fill-opacity="1" fill-rule="nonzero"/><path fill="#192351" d="M 500.894531 642.671875 C 500.597656 642.671875 500.375 642.433594 500.375 642.148438 L 500.375 633.144531 C 500.375 632.851562 500.613281 632.625 500.894531 632.625 C 501.175781 632.625 501.414062 632.863281 501.414062 633.144531 L 501.414062 642.148438 C 501.414062 642.433594 501.175781 642.671875 500.894531 642.671875 Z M 500.894531 642.671875 " fill-opacity="1" fill-rule="nonzero"/><path fill="#192351" d="M 490.128906 642.671875 C 489.835938 642.671875 489.609375 642.433594 489.609375 642.148438 L 489.609375 633.144531 C 489.609375 632.851562 489.847656 632.625 490.128906 632.625 C 490.410156 632.625 490.648438 632.863281 490.648438 633.144531 L 490.648438 642.148438 C 490.648438 642.433594 490.410156 642.671875 490.128906 642.671875 Z M 490.128906 642.671875 " fill-opacity="1" fill-rule="nonzero"/><path fill="#192351" d="M 479.363281 642.671875 C 479.070312 642.671875 478.84375 642.433594 478.84375 642.148438 L 478.84375 633.144531 C 478.84375 632.851562 479.082031 632.625 479.363281 632.625 C 479.644531 632.625 479.886719 632.863281 479.886719 633.144531 L 479.886719 642.148438 C 479.898438 642.433594 479.660156 642.671875 479.363281 642.671875 Z M 479.363281 642.671875 " fill-opacity="1" fill-rule="nonzero"/><path fill="#192351" d="M 468.601562 642.671875 C 468.304688 642.671875 468.078125 642.433594 468.078125 642.148438 L 468.078125 633.144531 C 468.078125 632.851562 468.320312 632.625 468.601562 632.625 C 468.882812 632.625 469.121094 632.863281 469.121094 633.144531 L 469.121094 642.148438 C 469.132812 642.433594 468.894531 642.671875 468.601562 642.671875 Z M 468.601562 642.671875 " fill-opacity="1" fill-rule="nonzero"/><path fill="#4b6fdd" d="M 668.347656 329.199219 L 671.742188 332.59375 L 656.316406 348.011719 L 652.925781 344.621094 Z M 668.347656 329.199219 " fill-opacity="1" fill-rule="nonzero"/><path fill="#4b6fdd" d="M 671.753906 344.628906 L 668.359375 348.023438 L 652.9375 332.601562 L 656.332031 329.210938 Z M 671.753906 344.628906 " fill-opacity="1" fill-rule="nonzero"/><path fill="#dae4fe" d="M 682.035156 262.273438 L 684.351562 264.59375 L 673.785156 275.15625 L 671.46875 272.839844 Z M 682.035156 262.273438 " fill-opacity="1" fill-rule="nonzero"/><path fill="#dae4fe" d="M 684.359375 272.851562 L 682.042969 275.167969 L 671.476562 264.601562 L 673.792969 262.285156 Z M 684.359375 272.851562 " fill-opacity="1" fill-rule="nonzero"/></svg>