<svg xmlns="http://www.w3.org/2000/svg" xmlns:xlink="http://www.w3.org/1999/xlink" width="1920" zoomAndPan="magnify" viewBox="0 0 1440 809.999993" height="1080" preserveAspectRatio="xMidYMid meet" version="1.0"><defs><clipPath id="938009bb73"><path d="M 149 153 L 707 153 L 707 669.265625 L 149 669.265625 Z M 149 153 " clip-rule="nonzero"/></clipPath></defs><rect x="-144" width="1728" fill="#ffffff" y="-80.999999" height="971.999992" fill-opacity="1"/><rect x="-144" width="1728" fill="#f5f5f5" y="-80.999999" height="971.999992" fill-opacity="1"/><g clip-path="url(#938009bb73)"><path fill="#e7e8ff" d="M 306.035156 669.207031 L 565.886719 669.207031 C 595.855469 669.207031 624.789062 658.261719 647.25 638.429688 L 674.082031 614.734375 C 719.6875 574.464844 715.871094 502.238281 666.277344 466.996094 C 626.363281 438.628906 614.753906 384.472656 639.53125 342.246094 L 642.332031 337.476562 C 664.730469 299.308594 659.511719 250.984375 629.476562 218.476562 L 593.261719 179.269531 C 557.453125 140.507812 494.769531 145.558594 465.636719 189.554688 C 443.484375 223.007812 400.234375 235.320312 363.777344 218.546875 L 347.941406 211.261719 C 302.453125 190.339844 248.503906 205.621094 220.761719 247.289062 L 202.976562 274 C 185.382812 300.425781 183.226562 334.230469 197.328125 362.675781 C 213.535156 395.375 208.09375 434.65625 183.601562 461.722656 L 176.464844 469.609375 C 131.890625 518.871094 144.019531 596.660156 201.476562 630.027344 L 236.867188 650.582031 C 257.875 662.78125 281.738281 669.207031 306.035156 669.207031 Z M 306.035156 669.207031 " fill-opacity="1" fill-rule="nonzero"/></g><path fill="#032068" d="M 690.511719 593.296875 C 690.949219 626.609375 668.265625 654.734375 656.742188 664.585938 L 639.085938 664.585938 C 652.210938 620.140625 673.914062 598.039062 686.074219 590.683594 C 688.101562 589.457031 690.480469 590.929688 690.511719 593.296875 Z M 690.511719 593.296875 " fill-opacity="1" fill-rule="nonzero"/><path fill="#ffffff" d="M 692.378906 483.996094 C 710.46875 552.113281 664.871094 632.785156 645.265625 662.816406 L 605.535156 662.816406 C 622.601562 534.296875 651.210938 503.0625 687.378906 481.957031 C 689.324219 480.824219 691.800781 481.824219 692.378906 483.996094 Z M 692.378906 483.996094 " fill-opacity="1" fill-rule="nonzero"/><path fill="#032068" d="M 688.269531 483.484375 C 689.222656 482.925781 690.398438 483.425781 690.671875 484.453125 C 699.582031 518.007812 692.832031 554.804688 681.296875 587.09375 C 669.972656 618.785156 654.117188 645.929688 644.308594 661.050781 L 607.554688 661.050781 C 616.046875 598.039062 627.335938 558.894531 640.859375 532.925781 C 654.476562 506.773438 670.398438 493.910156 688.269531 483.484375 Z M 694.085938 483.542969 C 693.203125 480.21875 689.421875 478.71875 686.492188 480.429688 C 668.191406 491.105469 651.722656 504.414062 637.730469 531.289062 C 623.78125 558.070312 612.328125 598.246094 603.785156 662.585938 L 603.519531 664.585938 L 646.21875 664.585938 L 646.742188 663.785156 C 656.589844 648.703125 672.96875 620.898438 684.621094 588.285156 C 696.261719 555.703125 703.261719 518.101562 694.085938 483.542969 Z M 694.085938 483.542969 " fill-opacity="1" fill-rule="evenodd"/><path fill="#032068" d="M 628.320312 525.902344 C 643.945312 582.984375 626.058594 642.304688 614.367188 664.585938 L 585.230469 664.585938 C 578.679688 595.015625 605.3125 544.429688 622.828125 524.539062 C 624.554688 522.578125 627.632812 523.378906 628.320312 525.902344 Z M 628.320312 525.902344 " fill-opacity="1" fill-rule="nonzero"/><path fill="#032068" d="M 667.644531 532.464844 L 677.148438 505.722656 L 680.476562 506.910156 L 658.707031 568.164062 L 673.007812 563.863281 L 674.023438 567.25 L 657.238281 572.300781 L 637.4375 628.007812 L 655.257812 621.371094 L 656.488281 624.6875 L 635.894531 632.355469 L 624.855469 663.410156 L 621.53125 662.226562 L 643.945312 599.15625 L 635.65625 575.878906 L 638.984375 574.691406 L 645.816406 593.886719 L 665.644531 538.101562 L 659.464844 517.433594 L 662.847656 516.417969 Z M 667.644531 532.464844 " fill-opacity="1" fill-rule="evenodd"/><path fill="#ffffff" d="M 613.421875 571.484375 L 617.925781 546.671875 L 621.398438 547.304688 L 612.257812 597.667969 L 624.136719 591.402344 L 625.78125 594.53125 L 611.453125 602.089844 L 603.613281 645.285156 L 613.4375 637.554688 L 615.617188 640.335938 L 602.660156 650.53125 L 600.210938 664.019531 L 596.738281 663.386719 L 603.019531 628.789062 L 592.660156 615.265625 L 595.460938 613.113281 L 603.871094 624.089844 L 612.628906 575.835938 L 604.242188 566.757812 L 606.832031 564.355469 Z M 613.421875 571.484375 " fill-opacity="1" fill-rule="evenodd"/><path fill="#ffffff" d="M 301.714844 246.695312 L 308.507812 248.339844 C 309.714844 248.632812 309.835938 250.304688 308.683594 250.769531 L 302.355469 253.320312 C 301.972656 253.472656 301.6875 253.804688 301.589844 254.203125 L 299.832031 261.457031 C 299.546875 262.625 297.953125 262.792969 297.433594 261.710938 L 294.164062 254.914062 C 294.003906 254.582031 293.710938 254.335938 293.355469 254.234375 L 285.375 251.984375 C 284.191406 251.652344 284.113281 250 285.265625 249.558594 L 292.527344 246.78125 C 292.878906 246.644531 293.15625 246.359375 293.277344 246 L 296.03125 238.007812 C 296.433594 236.832031 298.109375 236.867188 298.46875 238.058594 L 300.789062 245.820312 C 300.921875 246.253906 301.273438 246.585938 301.714844 246.695312 Z M 301.714844 246.695312 " fill-opacity="1" fill-rule="nonzero"/><path fill="#ffffff" d="M 247.429688 313.652344 L 249.179688 315.074219 C 250.144531 315.859375 249.539062 317.417969 248.296875 317.34375 L 246.109375 317.210938 C 245.699219 317.1875 245.300781 317.363281 245.039062 317.683594 L 243.3125 319.804688 C 242.554688 320.738281 241.046875 320.207031 241.039062 319.003906 L 241.027344 316.191406 C 241.027344 315.824219 240.867188 315.472656 240.59375 315.234375 L 238.222656 313.15625 C 237.296875 312.347656 237.9375 310.824219 239.164062 310.921875 L 241.992188 311.140625 C 242.367188 311.171875 242.738281 311.035156 243.003906 310.761719 L 245.238281 308.484375 C 246.109375 307.597656 247.609375 308.347656 247.417969 309.578125 L 246.96875 312.464844 C 246.898438 312.914062 247.074219 313.367188 247.429688 313.652344 Z M 247.429688 313.652344 " fill-opacity="1" fill-rule="nonzero"/><path fill="#f4ad5e" d="M 671.21875 417.429688 L 666.132812 424.328125 C 665.824219 424.746094 665.320312 424.949219 664.824219 424.851562 L 658.539062 423.601562 C 657.1875 423.335938 656.371094 425.136719 657.414062 426.085938 L 662.355469 430.578125 C 662.714844 430.90625 662.886719 431.410156 662.804688 431.90625 L 661.5625 439.316406 C 661.332031 440.707031 662.949219 441.570312 663.867188 440.542969 L 668.941406 434.847656 C 669.242188 434.515625 669.671875 434.351562 670.101562 434.414062 L 675.976562 435.261719 C 677.296875 435.453125 678.046875 433.707031 677.042969 432.777344 L 672.675781 428.738281 C 672.324219 428.414062 672.15625 427.921875 672.230469 427.4375 L 673.609375 418.535156 C 673.832031 417.082031 672.078125 416.265625 671.21875 417.429688 Z M 671.21875 417.429688 " fill-opacity="1" fill-rule="nonzero"/><path fill="#ffffff" d="M 363.75 234.789062 C 363.75 224.582031 372.035156 216.304688 382.25 216.304688 L 592.726562 216.304688 C 602.945312 216.304688 611.226562 224.582031 611.226562 234.789062 L 611.226562 646.039062 C 611.226562 656.25 602.945312 664.527344 592.726562 664.527344 L 382.25 664.527344 C 372.035156 664.527344 363.75 656.25 363.75 646.039062 Z M 363.75 234.789062 " fill-opacity="1" fill-rule="nonzero"/><path fill="#032068" d="M 362.210938 234.789062 C 362.210938 223.730469 371.183594 214.761719 382.253906 214.761719 L 592.726562 214.761719 C 603.796875 214.761719 612.769531 223.730469 612.769531 234.789062 L 612.769531 646.039062 C 612.769531 657.101562 603.796875 666.066406 592.726562 666.066406 L 382.253906 666.066406 C 371.183594 666.066406 362.210938 657.101562 362.210938 646.039062 Z M 382.253906 217.84375 C 372.886719 217.84375 365.292969 225.429688 365.292969 234.789062 L 365.292969 646.039062 C 365.292969 655.398438 372.886719 662.984375 382.253906 662.984375 L 592.726562 662.984375 C 602.09375 662.984375 609.6875 655.398438 609.6875 646.039062 L 609.6875 234.789062 C 609.6875 225.429688 602.09375 217.84375 592.726562 217.84375 Z M 382.253906 217.84375 " fill-opacity="1" fill-rule="evenodd"/><path fill="#e7e8ff" d="M 559.550781 381.117188 C 559.550781 421.109375 527.109375 453.527344 487.089844 453.527344 C 447.070312 453.527344 414.628906 421.109375 414.628906 381.117188 C 414.628906 341.128906 447.070312 308.710938 487.089844 308.710938 C 527.109375 308.710938 559.550781 341.128906 559.550781 381.117188 Z M 559.550781 381.117188 " fill-opacity="1" fill-rule="nonzero"/><path fill="#032068" d="M 438.28125 231.332031 L 430.261719 216.300781 L 544.71875 216.300781 L 535.289062 232.007812 C 532.503906 236.648438 527.484375 239.488281 522.070312 239.488281 L 451.886719 239.488281 C 446.191406 239.488281 440.960938 236.351562 438.28125 231.332031 Z M 438.28125 231.332031 " fill-opacity="1" fill-rule="nonzero"/><path fill="#032068" d="M 608.191406 225.578125 L 365.207031 225.578125 C 373.25 217.539062 380.933594 216.046875 383.769531 216.304688 L 589.632812 216.304688 C 599.53125 216.304688 606.128906 222.484375 608.191406 225.578125 Z M 608.191406 225.578125 " fill-opacity="1" fill-rule="nonzero"/><path fill="#032068" d="M 608.007812 655.738281 L 366.835938 655.738281 C 375.195312 663.902344 380.023438 665.421875 382.96875 665.160156 L 591.871094 665.160156 C 602.15625 665.160156 605.863281 658.878906 608.007812 655.738281 Z M 608.007812 655.738281 " fill-opacity="1" fill-rule="nonzero"/><path fill="#f4ad5e" d="M 399.210938 274.820312 C 399.210938 273.117188 400.589844 271.738281 402.292969 271.738281 L 484.398438 271.738281 C 486.101562 271.738281 487.480469 273.117188 487.480469 274.820312 L 487.480469 278.105469 C 487.480469 279.808594 486.101562 281.1875 484.398438 281.1875 L 402.292969 281.1875 C 400.589844 281.1875 399.210938 279.808594 399.210938 278.105469 Z M 399.210938 274.820312 " fill-opacity="1" fill-rule="nonzero"/><path fill="#032068" d="M 399.210938 482.796875 C 399.210938 481.097656 400.589844 479.714844 402.292969 479.714844 L 484.398438 479.714844 C 486.101562 479.714844 487.480469 481.097656 487.480469 482.796875 L 487.480469 486.085938 C 487.480469 487.789062 486.101562 489.167969 484.398438 489.167969 L 402.292969 489.167969 C 400.589844 489.167969 399.210938 487.789062 399.210938 486.085938 Z M 399.210938 482.796875 " fill-opacity="1" fill-rule="nonzero"/><path fill="#032068" d="M 399.210938 564.449219 C 399.210938 562.746094 400.589844 561.367188 402.292969 561.367188 L 451.628906 561.367188 C 453.332031 561.367188 454.710938 562.746094 454.710938 564.449219 L 454.710938 567.527344 C 454.710938 569.230469 453.332031 570.609375 451.628906 570.609375 L 402.292969 570.609375 C 400.589844 570.609375 399.210938 569.230469 399.210938 567.527344 Z M 399.210938 564.449219 " fill-opacity="1" fill-rule="nonzero"/><path fill="#e7e8ff" d="M 399.210938 505.90625 C 399.210938 504.203125 400.589844 502.824219 402.292969 502.824219 L 567.257812 502.824219 C 568.960938 502.824219 570.339844 504.203125 570.339844 505.90625 L 570.339844 536.71875 C 570.339844 538.421875 568.960938 539.800781 567.257812 539.800781 L 402.292969 539.800781 C 400.589844 539.800781 399.210938 538.421875 399.210938 536.71875 Z M 399.210938 505.90625 " fill-opacity="1" fill-rule="nonzero"/><path fill="#e7e8ff" d="M 399.210938 586.015625 C 399.210938 584.316406 400.589844 582.933594 402.292969 582.933594 L 567.257812 582.933594 C 568.960938 582.933594 570.339844 584.316406 570.339844 586.015625 L 570.339844 616.828125 C 570.339844 618.53125 568.960938 619.910156 567.257812 619.910156 L 402.292969 619.910156 C 400.589844 619.910156 399.210938 618.53125 399.210938 616.828125 Z M 399.210938 586.015625 " fill-opacity="1" fill-rule="nonzero"/><path fill="#032068" d="M 590.769531 238.328125 L 593.855469 238.328125 L 593.855469 250.929688 L 590.769531 250.929688 Z M 590.769531 238.328125 " fill-opacity="1" fill-rule="evenodd"/><path fill="#032068" d="M 582.890625 239.902344 L 585.972656 239.902344 L 585.972656 250.929688 L 582.890625 250.929688 Z M 582.890625 239.902344 " fill-opacity="1" fill-rule="evenodd"/><path fill="#032068" d="M 575.007812 243.054688 L 578.089844 243.054688 L 578.089844 250.929688 L 575.007812 250.929688 Z M 575.007812 243.054688 " fill-opacity="1" fill-rule="evenodd"/><path fill="#032068" d="M 567.125 246.203125 L 570.207031 246.203125 L 570.207031 250.929688 L 567.125 250.929688 Z M 567.125 246.203125 " fill-opacity="1" fill-rule="evenodd"/><path fill="#ffffff" d="M 487.78125 381.992188 C 467.390625 381.992188 450.585938 397.582031 448.328125 417.652344 C 448.042969 420.191406 450.140625 422.269531 452.695312 422.269531 L 522.871094 422.269531 C 525.425781 422.269531 527.527344 420.191406 527.238281 417.652344 C 524.980469 397.582031 508.179688 381.992188 487.78125 381.992188 Z M 487.78125 381.992188 " fill-opacity="1" fill-rule="nonzero"/><path fill="#ffffff" d="M 507.339844 358.300781 C 507.339844 368.765625 498.851562 377.253906 488.375 377.253906 C 477.898438 377.253906 469.40625 368.765625 469.40625 358.300781 C 469.40625 347.832031 477.898438 339.34375 488.375 339.34375 C 498.851562 339.34375 507.339844 347.832031 507.339844 358.300781 Z M 507.339844 358.300781 " fill-opacity="1" fill-rule="nonzero"/><path fill="#efcb96" d="M 326.882812 419.691406 L 333.148438 439.054688 C 335.652344 448.152344 326.882812 457.734375 306.003906 457.734375 C 289.300781 457.734375 285.964844 448.203125 286.800781 440.484375 L 291.804688 413.902344 C 287.628906 409.765625 284.289062 407.285156 284.289062 387.4375 C 284.289062 362.625 297.652344 353.53125 313.519531 353.53125 C 329.386719 353.53125 342.75 366.746094 342.75 390.746094 C 342.753906 411.421875 331.617188 418.039062 326.882812 419.691406 Z M 326.882812 419.691406 " fill-opacity="1" fill-rule="nonzero"/><path fill="#032068" d="M 366.511719 401.554688 C 378.941406 414.503906 377.273438 446.386719 375.367188 456.097656 C 355.242188 441.1875 341.621094 436.25 334.574219 435.683594 C 333.433594 435.589844 333.230469 438.226562 332.433594 438.339844 L 326.453125 418.550781 C 335.445312 416.121094 341.167969 408.027344 341.984375 389.414062 C 342.640625 374.519531 335.171875 364.320312 331.359375 361.082031 C 318.277344 360.273438 311.738281 376.460938 307.648438 382.9375 C 304.378906 388.117188 301.925781 387.253906 301.109375 386.175781 C 297.019531 376.460938 289.664062 375.652344 288.027344 386.175781 C 286.71875 394.59375 292.933594 398.855469 296.203125 399.933594 L 286.800781 441.199219 C 285.699219 441.261719 284.660156 437.625 284.660156 436.003906 C 267.1875 437.945312 247.992188 447.175781 242.261719 451.003906 C 239.8125 425.105469 263.5 405.601562 270.039062 389.414062 C 276.582031 373.226562 267.589844 365.128906 274.128906 354.609375 C 278.976562 346.808594 288.027344 345.703125 293.75 344.085938 C 299.472656 342.46875 302.742188 335.992188 309.285156 332.753906 C 320.730469 328.707031 331.632812 338.691406 334.628906 345.703125 C 336.535156 345.4375 341.984375 346.191406 348.527344 351.371094 C 367.328125 364.320312 350.980469 385.367188 366.511719 401.554688 Z M 366.511719 401.554688 " fill-opacity="1" fill-rule="nonzero"/><path fill="#032068" d="M 310.273438 418.660156 C 320.015625 420.9375 325.699219 420.082031 327.324219 419.371094 L 329.761719 427.207031 C 319.367188 428.347656 312.4375 421.984375 310.273438 418.660156 Z M 310.273438 418.660156 " fill-opacity="1" fill-rule="nonzero"/><path fill="#f4ad5e" d="M 308.085938 450.242188 C 324.484375 450.242188 332.183594 440.148438 333.980469 435.097656 C 365.269531 435.097656 391.164062 456.734375 403.03125 471.878906 C 414.898438 487.023438 459.132812 567.066406 448.347656 599.519531 C 439.714844 625.480469 418.855469 629.445312 407.347656 627.644531 L 409.253906 662.058594 C 409.390625 664.515625 407.4375 666.585938 404.980469 666.585938 L 246.589844 666.585938 C 230.046875 667.667969 193.9375 668.101562 181.855469 661.175781 C 166.75 652.523438 152.722656 608.171875 181.855469 520.554688 C 205.160156 450.460938 259.894531 434.378906 284.351562 435.097656 C 285.429688 440.148438 291.6875 450.242188 308.085938 450.242188 Z M 308.085938 450.242188 " fill-opacity="1" fill-rule="nonzero"/><path fill="#032068" d="M 229.519531 666.648438 C 203.507812 634.867188 176.007812 623.527344 165.507812 621.828125 C 165.507812 632.015625 170.589844 651.371094 179.734375 660.539062 C 187.046875 667.871094 215.972656 667.667969 229.519531 666.648438 Z M 229.519531 666.648438 " fill-opacity="1" fill-rule="nonzero"/><path fill="#032068" d="M 430.695312 623.867188 C 447.765625 617.347656 450.675781 593.984375 450 583.117188 C 434.554688 590.453125 413.761719 615.375 405.292969 626.921875 C 406.648438 628.617188 413.625 630.382812 430.695312 623.867188 Z M 430.695312 623.867188 " fill-opacity="1" fill-rule="nonzero"/><path fill="#032068" d="M 305.929688 549.761719 C 298.378906 553.007812 242.273438 579.328125 216.382812 591.949219 C 219.617188 586.539062 232.566406 577.886719 235.800781 574.640625 C 239.039062 571.394531 250.90625 533.535156 250.90625 538.945312 C 250.90625 544.351562 244.433594 569.234375 247.671875 569.234375 C 250.90625 569.234375 296.222656 549.761719 305.929688 549.761719 Z M 305.929688 549.761719 " fill-opacity="1" fill-rule="nonzero"/><path fill="#032068" d="M 328.585938 581.132812 C 282.839844 642.574219 245.511719 664.421875 232.566406 667.667969 L 255.222656 667.667969 C 294.0625 637.378906 320.316406 597.355469 328.585938 581.132812 Z M 328.585938 581.132812 " fill-opacity="1" fill-rule="nonzero"/><path fill="#032068" d="M 384.691406 570.316406 C 386.417969 591.082031 401.234375 617.1875 408.425781 627.644531 L 408.425781 637.378906 C 392.027344 619.207031 385.769531 585.097656 384.691406 570.316406 Z M 384.691406 570.316406 " fill-opacity="1" fill-rule="nonzero"/><path fill="#032068" d="M 405.191406 541.109375 C 411.230469 544.570312 422.09375 552.648438 426.769531 556.25 L 409.503906 535.699219 C 408.640625 539.160156 406.269531 540.746094 405.191406 541.109375 Z M 405.191406 541.109375 " fill-opacity="1" fill-rule="nonzero"/><path fill="#ffffff" d="M 341.410156 501.199219 L 333.097656 582.488281 C 333 583.433594 333.832031 584.207031 334.765625 584.039062 L 373.972656 576.984375 C 374.574219 576.878906 375.042969 576.394531 375.132812 575.789062 L 386.585938 498.519531 C 386.722656 497.617188 385.984375 496.820312 385.074219 496.882812 L 342.730469 499.917969 C 342.039062 499.964844 341.484375 500.507812 341.410156 501.199219 Z M 341.410156 501.199219 " fill-opacity="1" fill-rule="nonzero"/><path fill="#032068" d="M 384.972656 495.457031 C 386.792969 495.328125 388.265625 496.921875 387.996094 498.730469 L 376.539062 576 C 376.363281 577.210938 375.429688 578.175781 374.222656 578.394531 L 335.019531 585.449219 C 333.152344 585.785156 331.484375 584.234375 331.675781 582.34375 L 339.992188 501.050781 C 340.132812 499.667969 341.246094 498.589844 342.628906 498.492188 Z M 385.175781 498.3125 L 342.828125 501.34375 L 334.511719 582.632812 L 373.71875 575.578125 Z M 385.175781 498.3125 " fill-opacity="1" fill-rule="evenodd"/><path fill="#efcb96" d="M 397.636719 541.109375 L 384.691406 560.578125 C 367.429688 561.660156 364.191406 551.925781 367.429688 536.78125 C 370.019531 524.667969 379.65625 524.523438 383.613281 525.964844 L 385.769531 517.3125 C 397.636719 527.046875 397.636719 536.421875 397.636719 541.109375 Z M 397.636719 541.109375 " fill-opacity="1" fill-rule="nonzero"/><path fill="#efcb96" d="M 322.113281 538.945312 C 319.523438 545.867188 314.5625 550.484375 312.402344 551.925781 L 326.429688 573.558594 C 330.746094 569.234375 336.140625 569.234375 348.007812 563.824219 C 359.875 558.417969 363.113281 538.945312 359.875 528.128906 C 357.285156 519.472656 342.253906 525.964844 336.140625 530.292969 L 337.21875 518.394531 C 329.667969 521.636719 325.351562 530.292969 322.113281 538.945312 Z M 322.113281 538.945312 " fill-opacity="1" fill-rule="nonzero"/><path fill="#ffffff" d="M 698.304688 336.441406 C 698.304688 365.371094 674.835938 388.820312 645.882812 388.820312 C 616.933594 388.820312 593.46875 365.371094 593.46875 336.441406 C 593.46875 307.511719 616.933594 284.0625 645.882812 284.0625 C 674.835938 284.0625 698.304688 307.511719 698.304688 336.441406 Z M 698.304688 336.441406 " fill-opacity="1" fill-rule="nonzero"/><path fill="#032068" d="M 645.882812 285.347656 C 617.648438 285.347656 594.753906 308.226562 594.753906 336.441406 C 594.753906 364.660156 617.648438 387.535156 645.882812 387.535156 C 674.121094 387.535156 697.015625 364.660156 697.015625 336.441406 C 697.015625 308.226562 674.121094 285.347656 645.882812 285.347656 Z M 592.175781 336.441406 C 592.175781 306.800781 616.222656 282.773438 645.882812 282.773438 C 675.546875 282.773438 699.59375 306.800781 699.59375 336.441406 C 699.59375 366.082031 675.546875 390.109375 645.882812 390.109375 C 616.222656 390.109375 592.175781 366.082031 592.175781 336.441406 Z M 592.175781 336.441406 " fill-opacity="1" fill-rule="evenodd"/><path fill="#032068" d="M 646.503906 304.015625 C 636.511719 304.015625 628.410156 312.246094 628.410156 322.398438 L 628.410156 334.984375 C 628.410156 336.476562 629.621094 337.6875 631.113281 337.6875 C 632.609375 337.6875 633.820312 336.476562 633.820312 334.984375 L 633.820312 322.054688 C 633.820312 314.9375 639.5 309.167969 646.503906 309.167969 C 653.511719 309.167969 659.191406 314.9375 659.191406 322.054688 L 659.191406 334.308594 C 659.191406 335.804688 660.402344 337.015625 661.894531 337.015625 C 663.390625 337.015625 664.601562 335.804688 664.601562 334.308594 L 664.601562 322.398438 C 664.601562 312.246094 656.5 304.015625 646.503906 304.015625 Z M 646.503906 304.015625 " fill-opacity="1" fill-rule="evenodd"/><path fill="#f4ad5e" d="M 623.414062 335.316406 C 623.414062 333.183594 625.148438 331.453125 627.28125 331.453125 L 665.726562 331.453125 C 667.863281 331.453125 669.59375 333.183594 669.59375 335.316406 L 669.59375 363.757812 C 669.59375 365.890625 667.863281 367.621094 665.726562 367.621094 L 627.28125 367.621094 C 625.148438 367.621094 623.414062 365.890625 623.414062 363.757812 Z M 623.414062 335.316406 " fill-opacity="1" fill-rule="nonzero"/><path fill="#ffffff" d="M 649.449219 351.03125 C 650.519531 350.171875 651.203125 348.851562 651.203125 347.375 C 651.203125 344.78125 649.097656 342.675781 646.503906 342.675781 C 643.910156 342.675781 641.804688 344.78125 641.804688 347.375 C 641.804688 348.984375 642.617188 350.40625 643.855469 351.253906 L 642.808594 355.652344 C 642.652344 356.308594 643.148438 356.9375 643.824219 356.9375 L 649.53125 356.9375 C 650.207031 356.9375 650.703125 356.308594 650.546875 355.652344 Z M 649.449219 351.03125 " fill-opacity="1" fill-rule="evenodd"/></svg>