<svg xmlns="http://www.w3.org/2000/svg" xmlns:xlink="http://www.w3.org/1999/xlink" width="40" zoomAndPan="magnify" viewBox="0 0 30 30.000001" height="40" preserveAspectRatio="xMidYMid meet" version="1.0"><defs><clipPath id="e9fa18f5b6"><path d="M 13 11 L 26.324219 11 L 26.324219 26.128906 L 13 26.128906 Z M 13 11 " clip-rule="nonzero"/></clipPath><clipPath id="8a7c76d275"><path d="M 3.824219 2.902344 L 21 2.902344 L 21 25 L 3.824219 25 Z M 3.824219 2.902344 " clip-rule="nonzero"/></clipPath></defs><g clip-path="url(#e9fa18f5b6)"><path fill="#00bf63" d="M 19.71875 15.574219 C 20.585938 15.574219 21.292969 16.3125 21.292969 17.21875 C 21.292969 17.761719 21.03125 18.269531 20.601562 18.578125 L 21.070312 20.589844 C 21.109375 20.808594 20.945312 20.992188 20.789062 20.992188 L 18.644531 20.992188 C 18.492188 20.992188 18.328125 20.808594 18.363281 20.589844 L 18.835938 18.578125 C 18.402344 18.273438 18.144531 17.761719 18.144531 17.21875 C 18.144531 16.3125 18.847656 15.574219 19.71875 15.574219 Z M 19.71875 11.609375 L 13.332031 13.828125 L 13.332031 16.238281 C 13.332031 21.152344 15.894531 24.113281 19.71875 26.136719 C 23.539062 24.113281 26.105469 21.152344 26.105469 16.238281 L 26.105469 13.828125 Z M 19.71875 11.609375 " fill-opacity="1" fill-rule="nonzero"/></g><g clip-path="url(#8a7c76d275)"><path fill="#00bf63" d="M 9.183594 3.800781 L 16.464844 3.800781 C 16.914062 3.800781 17.265625 4.152344 17.265625 4.601562 L 17.265625 4.902344 L 11.1875 4.902344 C 10.867188 4.902344 10.613281 4.894531 10.390625 4.902344 C 10.164062 4.910156 9.972656 4.933594 9.773438 5 C 9.371094 5.128906 9.097656 5.414062 8.703125 5.863281 L 6.453125 8.457031 C 5.980469 8.996094 5.878906 9.585938 5.878906 10.34375 L 5.878906 21.355469 L 5.574219 21.355469 C 5.121094 21.355469 4.773438 21.007812 4.773438 20.554688 L 4.773438 8.34375 C 4.773438 7.636719 4.792969 7.425781 5.125 7.042969 L 7.378906 4.449219 C 7.960938 3.777344 8.546875 3.800781 9.183594 3.800781 Z M 8.382812 2.902344 C 7.640625 2.902344 7.082031 3.421875 6.699219 3.863281 L 4.449219 6.457031 C 3.976562 6.996094 3.875 7.585938 3.875 8.34375 L 3.875 20.554688 C 3.875 21.488281 4.640625 22.253906 5.574219 22.253906 L 5.878906 22.253906 L 5.878906 22.554688 C 5.878906 23.488281 6.644531 24.253906 7.578125 24.253906 L 15.554688 24.253906 L 14.691406 23.355469 L 7.578125 23.355469 C 7.125 23.355469 6.777344 23.007812 6.777344 22.554688 L 6.78125 10.179688 L 9.730469 10.179688 C 10.476562 10.179688 11.089844 9.5625 11.089844 8.816406 L 11.089844 7.101562 C 11.097656 6.847656 10.886719 6.640625 10.636719 6.644531 C 10.386719 6.648438 10.191406 6.851562 10.191406 7.101562 L 10.191406 8.816406 C 10.191406 9.082031 9.996094 9.28125 9.730469 9.28125 L 7.042969 9.28125 C 7.042969 9.1875 7.054688 9.128906 7.128906 9.046875 L 9.382812 6.453125 C 9.753906 6.019531 9.898438 5.902344 10.050781 5.851562 C 10.207031 5.804688 10.527344 5.804688 11.1875 5.804688 L 18.46875 5.804688 C 18.921875 5.804688 19.269531 6.152344 19.269531 6.605469 L 19.269531 10.792969 L 20.167969 10.792969 L 20.167969 6.605469 C 20.167969 5.671875 19.402344 4.902344 18.46875 4.902344 L 18.160156 4.902344 L 18.160156 4.601562 C 18.160156 3.667969 17.394531 2.902344 16.464844 2.902344 Z M 8.382812 2.902344 " fill-opacity="1" fill-rule="evenodd"/></g><path fill="#00bf63" d="M 9.097656 14.269531 C 8.90625 14.261719 8.75 14.414062 8.75 14.605469 C 8.75 14.796875 8.90625 14.949219 9.097656 14.941406 L 12.003906 14.941406 C 12.199219 14.949219 12.355469 14.796875 12.355469 14.605469 C 12.355469 14.414062 12.199219 14.261719 12.003906 14.269531 Z M 9.097656 14.269531 " fill-opacity="1" fill-rule="nonzero"/><path fill="#00bf63" d="M 9.066406 16.773438 C 8.617188 16.796875 8.648438 17.46875 9.097656 17.445312 L 12.003906 17.445312 C 12.199219 17.453125 12.355469 17.300781 12.355469 17.109375 C 12.355469 16.917969 12.195312 16.765625 12.003906 16.773438 L 9.097656 16.773438 C 9.085938 16.773438 9.078125 16.773438 9.066406 16.773438 Z M 9.066406 16.773438 " fill-opacity="1" fill-rule="nonzero"/><path fill="#00bf63" d="M 9.066406 19.277344 C 8.617188 19.300781 8.648438 19.972656 9.097656 19.949219 L 12.003906 19.949219 C 12.199219 19.957031 12.355469 19.804688 12.355469 19.613281 C 12.355469 19.421875 12.199219 19.269531 12.003906 19.277344 L 9.097656 19.277344 C 9.085938 19.277344 9.078125 19.277344 9.066406 19.277344 Z M 9.066406 19.277344 " fill-opacity="1" fill-rule="nonzero"/><path fill="#00bf63" d="M 9.097656 11.765625 C 8.648438 11.765625 8.648438 12.441406 9.097656 12.441406 L 13.46875 12.441406 C 13.917969 12.441406 13.917969 11.765625 13.46875 11.765625 Z M 9.097656 11.765625 " fill-opacity="1" fill-rule="nonzero"/></svg>