<svg xmlns="http://www.w3.org/2000/svg" xmlns:xlink="http://www.w3.org/1999/xlink" width="40" zoomAndPan="magnify" viewBox="0 0 30 30.000001" height="40" preserveAspectRatio="xMidYMid meet" version="1.0"><defs><clipPath id="acb9241dd9"><path d="M 20 14 L 26.613281 14 L 26.613281 24.300781 L 20 24.300781 Z M 20 14 " clip-rule="nonzero"/></clipPath><clipPath id="b48048f8ef"><path d="M 3.386719 11 L 14 11 L 14 24.300781 L 3.386719 24.300781 Z M 3.386719 11 " clip-rule="nonzero"/></clipPath><clipPath id="0009bc8879"><path d="M 5 4.703125 L 25 4.703125 L 25 14 L 5 14 Z M 5 4.703125 " clip-rule="nonzero"/></clipPath></defs><g clip-path="url(#acb9241dd9)"><path fill="#00bf63" d="M 25.523438 14.511719 C 25.246094 14.511719 21.695312 14.511719 21.421875 14.511719 C 20.828125 14.511719 20.351562 15.027344 20.351562 15.660156 C 20.351562 15.953125 20.351562 22.882812 20.351562 23.175781 C 20.351562 23.808594 20.828125 24.324219 21.421875 24.324219 C 21.695312 24.324219 25.246094 24.324219 25.523438 24.324219 C 26.113281 24.324219 26.59375 23.808594 26.59375 23.175781 C 26.59375 22.878906 26.59375 15.953125 26.59375 15.660156 C 26.59375 15.027344 26.113281 14.511719 25.523438 14.511719 Z M 23.472656 23.863281 C 23.234375 23.863281 23.039062 23.667969 23.039062 23.429688 C 23.039062 23.191406 23.234375 23 23.472656 23 C 23.710938 23 23.902344 23.191406 23.902344 23.429688 C 23.902344 23.667969 23.710938 23.863281 23.472656 23.863281 Z M 25.253906 22.09375 L 21.6875 22.09375 L 21.6875 15.851562 L 25.253906 15.851562 Z M 25.253906 22.09375 " fill-opacity="1" fill-rule="nonzero"/></g><g clip-path="url(#b48048f8ef)"><path fill="#00bf63" d="M 12.144531 11.835938 C 11.871094 11.835938 4.753906 11.835938 4.476562 11.835938 C 3.886719 11.835938 3.40625 12.351562 3.40625 12.984375 C 3.40625 13.28125 3.40625 22.882812 3.40625 23.175781 C 3.40625 23.808594 3.886719 24.324219 4.476562 24.324219 C 4.753906 24.324219 11.871094 24.324219 12.144531 24.324219 C 12.738281 24.324219 13.214844 23.808594 13.214844 23.175781 C 13.214844 22.878906 13.214844 13.277344 13.214844 12.984375 C 13.214844 12.351562 12.738281 11.835938 12.144531 11.835938 Z M 8.3125 23.863281 C 8.074219 23.863281 7.878906 23.667969 7.878906 23.429688 C 7.878906 23.191406 8.074219 23 8.3125 23 C 8.550781 23 8.742188 23.191406 8.742188 23.429688 C 8.742188 23.667969 8.550781 23.863281 8.3125 23.863281 Z M 11.878906 22.09375 L 4.746094 22.09375 L 4.746094 13.175781 L 11.878906 13.175781 Z M 11.878906 22.09375 " fill-opacity="1" fill-rule="nonzero"/></g><g clip-path="url(#0009bc8879)"><path fill="#00bf63" d="M 6.972656 10.945312 L 6.972656 7.378906 C 6.972656 6.886719 7.375 6.488281 7.867188 6.488281 L 22.132812 6.488281 C 22.625 6.488281 23.027344 6.886719 23.027344 7.378906 L 23.027344 13.621094 L 24.808594 13.621094 L 24.808594 7.378906 C 24.808594 5.902344 23.609375 4.703125 22.132812 4.703125 L 7.867188 4.703125 C 6.390625 4.703125 5.191406 5.902344 5.191406 7.378906 L 5.191406 10.945312 Z M 6.972656 10.945312 " fill-opacity="1" fill-rule="nonzero"/></g><path fill="#00bf63" d="M 19.457031 19.863281 L 19.457031 18.082031 L 14.109375 18.082031 L 14.109375 22.539062 L 19.457031 22.539062 L 19.457031 20.753906 L 16.785156 20.753906 L 16.785156 19.863281 Z M 19.457031 19.863281 " fill-opacity="1" fill-rule="nonzero"/></svg>