<svg xmlns="http://www.w3.org/2000/svg" xmlns:xlink="http://www.w3.org/1999/xlink" width="40" zoomAndPan="magnify" viewBox="0 0 30 30.000001" height="40" preserveAspectRatio="xMidYMid meet" version="1.0"><defs><clipPath id="b1a1d7bf39"><path d="M 4.875 4.390625 L 25.199219 4.390625 L 25.199219 24.714844 L 4.875 24.714844 Z M 4.875 4.390625 " clip-rule="nonzero"/></clipPath></defs><g clip-path="url(#b1a1d7bf39)"><path fill="#00bf63" d="M 14.996094 23.953125 C 9.769531 23.953125 5.558594 19.738281 5.558594 14.511719 C 5.558594 9.285156 9.769531 5.074219 14.996094 5.074219 C 20.222656 5.074219 24.4375 9.285156 24.4375 14.511719 C 24.4375 19.738281 20.222656 23.953125 14.996094 23.953125 Z M 14.996094 4.390625 C 9.398438 4.390625 4.875 8.914062 4.875 14.511719 C 4.875 20.109375 9.398438 24.632812 14.996094 24.632812 C 20.59375 24.632812 25.117188 20.109375 25.117188 14.511719 C 25.117188 8.914062 20.59375 4.390625 14.996094 4.390625 " fill-opacity="1" fill-rule="nonzero"/></g><path fill="#00bf63" d="M 13.984375 14.511719 C 13.984375 13.957031 14.4375 13.5 14.996094 13.5 C 15.554688 13.5 16.007812 13.957031 16.007812 14.511719 C 16.007812 15.070312 15.554688 15.523438 14.996094 15.523438 C 14.4375 15.523438 13.984375 15.070312 13.984375 14.511719 Z M 16.691406 14.511719 C 16.691406 13.582031 15.925781 12.820312 14.996094 12.820312 C 14.066406 12.820312 13.304688 13.582031 13.304688 14.511719 C 13.304688 15.441406 14.066406 16.207031 14.996094 16.207031 C 15.925781 16.207031 16.691406 15.441406 16.691406 14.511719 " fill-opacity="1" fill-rule="nonzero"/><path fill="#00bf63" d="M 12.972656 14.511719 C 12.972656 13.398438 13.882812 12.488281 14.996094 12.488281 C 16.113281 12.488281 17.019531 13.398438 17.019531 14.511719 C 17.019531 15.628906 16.113281 16.539062 14.996094 16.539062 C 13.882812 16.539062 12.972656 15.628906 12.972656 14.511719 Z M 17.703125 14.511719 C 17.703125 13.027344 16.484375 11.804688 14.996094 11.804688 C 13.507812 11.804688 12.289062 13.027344 12.289062 14.511719 C 12.289062 16 13.507812 17.21875 14.996094 17.21875 C 16.484375 17.21875 17.703125 16 17.703125 14.511719 " fill-opacity="1" fill-rule="nonzero"/><path fill="#00bf63" d="M 15.328125 6.746094 C 15.328125 6.558594 15.183594 6.414062 14.996094 6.414062 C 10.535156 6.414062 6.898438 10.050781 6.898438 14.511719 C 6.898438 14.699219 7.042969 14.84375 7.230469 14.84375 C 7.414062 14.84375 7.558594 14.699219 7.558594 14.511719 C 7.558594 10.421875 10.886719 7.097656 14.976562 7.097656 C 15.183594 7.097656 15.328125 6.933594 15.328125 6.746094 " fill-opacity="1" fill-rule="nonzero"/><path fill="#00bf63" d="M 22.761719 14.183594 C 22.578125 14.183594 22.433594 14.328125 22.433594 14.511719 C 22.433594 18.601562 19.109375 21.929688 15.015625 21.929688 C 14.832031 21.929688 14.6875 22.074219 14.6875 22.257812 C 14.6875 22.445312 14.832031 22.589844 15.015625 22.589844 C 19.480469 22.589844 23.113281 18.953125 23.113281 14.492188 C 23.09375 14.328125 22.949219 14.183594 22.761719 14.183594 " fill-opacity="1" fill-rule="nonzero"/></svg>