<svg xmlns="http://www.w3.org/2000/svg" xmlns:xlink="http://www.w3.org/1999/xlink" width="40" zoomAndPan="magnify" viewBox="0 0 30 30.000001" height="40" preserveAspectRatio="xMidYMid meet" version="1.0"><defs><clipPath id="74f5919e1d"><path d="M 3.386719 18.429688 L 26.613281 18.429688 L 26.613281 22.007812 L 3.386719 22.007812 Z M 3.386719 18.429688 " clip-rule="nonzero"/></clipPath><clipPath id="1f92a2b5a3"><path d="M 6 6.765625 L 24 6.765625 L 24 18 L 6 18 Z M 6 6.765625 " clip-rule="nonzero"/></clipPath></defs><g clip-path="url(#74f5919e1d)"><path fill="#00bf63" d="M 18.351562 21.285156 L 11.648438 21.285156 C 11.601562 21.285156 11.574219 21.238281 11.59375 21.195312 L 12.109375 20.203125 C 12.121094 20.183594 12.140625 20.171875 12.164062 20.171875 L 17.835938 20.171875 C 17.859375 20.171875 17.878906 20.183594 17.890625 20.203125 L 18.40625 21.195312 C 18.425781 21.238281 18.398438 21.285156 18.351562 21.285156 Z M 26.464844 21.398438 L 23.691406 18.625 C 23.59375 18.527344 23.464844 18.476562 23.332031 18.476562 L 6.667969 18.476562 C 6.535156 18.476562 6.40625 18.527344 6.308594 18.625 L 3.535156 21.398438 C 3.441406 21.492188 3.386719 21.621094 3.386719 21.757812 C 3.386719 22.035156 3.613281 22.261719 3.890625 22.261719 L 26.109375 22.261719 C 26.386719 22.261719 26.613281 22.035156 26.613281 21.757812 C 26.613281 21.621094 26.558594 21.492188 26.464844 21.398438 " fill-opacity="1" fill-rule="nonzero"/></g><g clip-path="url(#1f92a2b5a3)"><path fill="#00bf63" d="M 22.710938 6.769531 L 7.289062 6.769531 C 6.84375 6.769531 6.476562 7.136719 6.476562 7.582031 L 6.476562 16.738281 C 6.476562 17.183594 6.84375 17.546875 7.289062 17.546875 L 22.710938 17.546875 C 23.15625 17.546875 23.523438 17.183594 23.523438 16.738281 L 23.523438 7.582031 C 23.523438 7.136719 23.15625 6.769531 22.710938 6.769531 Z M 22.582031 7.707031 L 22.582031 16.609375 L 7.417969 16.609375 L 7.417969 7.707031 L 22.582031 7.707031 " fill-opacity="1" fill-rule="nonzero"/></g></svg>