<svg xmlns="http://www.w3.org/2000/svg" xmlns:xlink="http://www.w3.org/1999/xlink" width="40" zoomAndPan="magnify" viewBox="0 0 30 30.000001" height="40" preserveAspectRatio="xMidYMid meet" version="1.0"><defs><clipPath id="aa480ae85f"><path d="M 3.386719 5.082031 L 26.613281 5.082031 L 26.613281 23.953125 L 3.386719 23.953125 Z M 3.386719 5.082031 " clip-rule="nonzero"/></clipPath></defs><g clip-path="url(#aa480ae85f)"><path fill="#00bf63" d="M 5.203125 20.324219 L 8.105469 20.324219 L 8.105469 23.589844 C 8.105469 23.804688 8.25 23.953125 8.46875 23.953125 L 21.53125 23.953125 C 21.75 23.953125 21.894531 23.804688 21.894531 23.589844 L 21.894531 20.324219 L 24.796875 20.324219 C 25.777344 20.324219 26.613281 19.523438 26.613281 18.507812 L 26.613281 11.613281 C 26.613281 10.597656 25.816406 9.796875 24.796875 9.796875 L 23.347656 9.796875 L 23.347656 7.621094 C 23.347656 7.402344 23.203125 7.257812 22.984375 7.257812 L 21.894531 7.257812 L 21.894531 5.445312 C 21.894531 5.226562 21.75 5.082031 21.53125 5.082031 L 8.46875 5.082031 C 8.25 5.082031 8.105469 5.226562 8.105469 5.445312 L 8.105469 7.257812 L 7.015625 7.257812 C 6.796875 7.257812 6.652344 7.402344 6.652344 7.621094 L 6.652344 9.796875 L 5.203125 9.796875 C 4.222656 9.796875 3.386719 10.597656 3.386719 11.613281 L 3.386719 18.507812 C 3.386719 19.523438 4.222656 20.324219 5.203125 20.324219 Z M 8.832031 5.804688 L 21.167969 5.804688 L 21.167969 10.160156 C 21.167969 10.378906 21.316406 10.523438 21.53125 10.523438 C 21.75 10.523438 21.894531 10.378906 21.894531 10.160156 L 21.894531 7.984375 L 22.621094 7.984375 L 22.621094 11.976562 L 8.832031 11.976562 Z M 7.378906 7.984375 L 8.105469 7.984375 L 8.105469 11.976562 L 7.378906 11.976562 Z M 4.148438 11.613281 C 4.148438 11.03125 4.621094 10.523438 5.238281 10.523438 L 6.691406 10.523438 L 6.691406 11.976562 L 5.925781 11.976562 C 5.710938 11.976562 5.566406 12.121094 5.566406 12.339844 C 5.566406 12.554688 5.710938 12.703125 5.925781 12.703125 L 24.074219 12.703125 C 24.289062 12.703125 24.433594 12.554688 24.433594 12.339844 C 24.433594 12.121094 24.289062 11.976562 24.074219 11.976562 L 23.347656 11.976562 L 23.347656 10.523438 L 24.796875 10.523438 C 25.378906 10.523438 25.886719 10.996094 25.886719 11.613281 L 25.886719 18.507812 C 25.886719 19.089844 25.414062 19.597656 24.796875 19.597656 L 21.894531 19.597656 L 21.894531 18.507812 C 21.894531 18.289062 21.75 18.144531 21.53125 18.144531 C 21.316406 18.144531 21.167969 18.289062 21.167969 18.507812 L 21.167969 23.226562 L 8.832031 23.226562 L 8.832031 16.695312 L 21.167969 16.695312 L 21.167969 17.054688 C 21.167969 17.273438 21.316406 17.417969 21.53125 17.417969 C 21.75 17.417969 21.894531 17.273438 21.894531 17.054688 L 21.894531 16.332031 C 21.894531 16.113281 21.75 15.96875 21.53125 15.96875 L 8.46875 15.96875 C 8.25 15.96875 8.105469 16.113281 8.105469 16.332031 L 8.105469 19.597656 L 5.203125 19.597656 C 4.621094 19.597656 4.113281 19.125 4.113281 18.507812 Z M 4.148438 11.613281 " fill-opacity="1" fill-rule="nonzero"/></g><path fill="#00bf63" d="M 5.964844 14.878906 C 6.074219 14.878906 6.144531 14.84375 6.21875 14.769531 C 6.289062 14.699219 6.328125 14.625 6.328125 14.515625 C 6.328125 14.40625 6.289062 14.335938 6.21875 14.261719 C 6.074219 14.117188 5.855469 14.117188 5.710938 14.261719 C 5.636719 14.335938 5.601562 14.40625 5.601562 14.515625 C 5.601562 14.625 5.636719 14.699219 5.710938 14.769531 C 5.746094 14.84375 5.855469 14.878906 5.964844 14.878906 Z M 5.964844 14.878906 " fill-opacity="1" fill-rule="nonzero"/><path fill="#00bf63" d="M 22.984375 14.878906 C 23.09375 14.878906 23.164062 14.84375 23.238281 14.769531 C 23.308594 14.699219 23.347656 14.589844 23.347656 14.515625 C 23.347656 14.40625 23.308594 14.335938 23.238281 14.261719 C 23.09375 14.117188 22.875 14.117188 22.730469 14.261719 C 22.65625 14.335938 22.621094 14.40625 22.621094 14.515625 C 22.621094 14.625 22.65625 14.699219 22.730469 14.769531 C 22.800781 14.84375 22.875 14.878906 22.984375 14.878906 Z M 22.984375 14.878906 " fill-opacity="1" fill-rule="nonzero"/><path fill="#00bf63" d="M 19.355469 19.597656 L 10.644531 19.597656 C 10.425781 19.597656 10.28125 19.742188 10.28125 19.960938 C 10.28125 20.175781 10.425781 20.324219 10.644531 20.324219 L 19.355469 20.324219 C 19.574219 20.324219 19.71875 20.175781 19.71875 19.960938 C 19.71875 19.742188 19.574219 19.597656 19.355469 19.597656 Z M 19.355469 19.597656 " fill-opacity="1" fill-rule="nonzero"/><path fill="#00bf63" d="M 19.355469 21.410156 L 18.628906 21.410156 C 18.410156 21.410156 18.265625 21.554688 18.265625 21.773438 C 18.265625 21.992188 18.410156 22.136719 18.628906 22.136719 L 19.355469 22.136719 C 19.574219 22.136719 19.71875 21.992188 19.71875 21.773438 C 19.71875 21.554688 19.574219 21.410156 19.355469 21.410156 Z M 19.355469 21.410156 " fill-opacity="1" fill-rule="nonzero"/><path fill="#00bf63" d="M 16.453125 21.410156 L 10.644531 21.410156 C 10.425781 21.410156 10.28125 21.554688 10.28125 21.773438 C 10.28125 21.992188 10.425781 22.136719 10.644531 22.136719 L 16.453125 22.136719 C 16.667969 22.136719 16.816406 21.992188 16.816406 21.773438 C 16.816406 21.554688 16.667969 21.410156 16.453125 21.410156 Z M 16.453125 21.410156 " fill-opacity="1" fill-rule="nonzero"/><path fill="#00bf63" d="M 10.644531 18.507812 L 13.910156 18.507812 C 14.128906 18.507812 14.273438 18.363281 14.273438 18.144531 C 14.273438 17.925781 14.128906 17.78125 13.910156 17.78125 L 10.644531 17.78125 C 10.425781 17.78125 10.28125 17.925781 10.28125 18.144531 C 10.28125 18.363281 10.425781 18.507812 10.644531 18.507812 Z M 10.644531 18.507812 " fill-opacity="1" fill-rule="nonzero"/><path fill="#00bf63" d="M 19.355469 17.78125 L 16.089844 17.78125 C 15.871094 17.78125 15.726562 17.925781 15.726562 18.144531 C 15.726562 18.363281 15.871094 18.507812 16.089844 18.507812 L 19.355469 18.507812 C 19.574219 18.507812 19.71875 18.363281 19.71875 18.144531 C 19.71875 17.925781 19.574219 17.78125 19.355469 17.78125 Z M 19.355469 17.78125 " fill-opacity="1" fill-rule="nonzero"/><path fill="#00bf63" d="M 19.71875 14.878906 L 21.53125 14.878906 C 21.75 14.878906 21.894531 14.734375 21.894531 14.515625 C 21.894531 14.296875 21.75 14.152344 21.53125 14.152344 L 19.71875 14.152344 C 19.5 14.152344 19.355469 14.296875 19.355469 14.515625 C 19.355469 14.734375 19.5 14.878906 19.71875 14.878906 Z M 19.71875 14.878906 " fill-opacity="1" fill-rule="nonzero"/></svg>