<svg xmlns="http://www.w3.org/2000/svg" xmlns:xlink="http://www.w3.org/1999/xlink" width="40" zoomAndPan="magnify" viewBox="0 0 30 30.000001" height="40" preserveAspectRatio="xMidYMid meet" version="1.0"><defs><clipPath id="7eecdb87fa"><path d="M 3.386719 4.066406 L 26.613281 4.066406 L 26.613281 25 L 3.386719 25 Z M 3.386719 4.066406 " clip-rule="nonzero"/></clipPath></defs><g clip-path="url(#7eecdb87fa)"><path fill="#00bf63" d="M 3.796875 24.226562 L 7.085938 24.226562 C 7.3125 24.226562 7.496094 24.042969 7.496094 23.816406 L 7.496094 23.546875 L 9.339844 23.546875 L 14.375 24.953125 C 14.410156 24.964844 14.449219 24.96875 14.484375 24.96875 C 14.515625 24.96875 14.546875 24.964844 14.578125 24.957031 C 14.660156 24.9375 22.78125 23.074219 24.570312 22.714844 C 25.4375 22.546875 25.996094 21.960938 25.996094 21.21875 C 25.996094 20.398438 25.328125 19.730469 24.429688 19.730469 C 24.425781 19.730469 24.421875 19.730469 24.417969 19.730469 L 23.925781 19.820312 C 24.074219 19.671875 24.230469 19.527344 24.367188 19.367188 C 24.703125 18.976562 25.007812 18.566406 25.273438 18.132812 C 26.066406 16.839844 26.523438 15.371094 26.605469 13.816406 C 26.613281 13.652344 26.613281 13.5 26.613281 13.335938 C 26.613281 12.558594 26.515625 11.78125 26.320312 11.023438 C 25.933594 9.503906 25.144531 8.089844 24.039062 6.941406 C 23.855469 6.75 23.664062 6.566406 23.460938 6.386719 C 23.449219 6.375 23.4375 6.359375 23.421875 6.347656 C 21.75 4.890625 19.597656 4.085938 17.363281 4.085938 C 16.375 4.085938 15.402344 4.242188 14.464844 4.550781 C 13.71875 4.796875 13.039062 5.128906 12.441406 5.515625 C 12.390625 5.535156 12.347656 5.5625 12.308594 5.597656 C 11.453125 6.152344 10.710938 6.835938 10.089844 7.625 C 10.082031 7.632812 10.074219 7.644531 10.066406 7.652344 C 10.0625 7.660156 10.054688 7.664062 10.050781 7.671875 C 8.785156 9.308594 8.113281 11.265625 8.113281 13.335938 C 8.113281 14.839844 8.496094 16.296875 9.183594 17.601562 L 7.5 17.601562 L 7.5 17.238281 C 7.5 17.011719 7.316406 16.828125 7.085938 16.828125 L 3.796875 16.828125 C 3.570312 16.828125 3.386719 17.011719 3.386719 17.238281 L 3.386719 23.816406 C 3.386719 24.042969 3.570312 24.226562 3.796875 24.226562 Z M 20.160156 20.519531 C 20.667969 20.050781 21.066406 19.410156 20.785156 18.617188 C 20.503906 17.816406 20.890625 17.277344 21.339844 16.65625 C 21.746094 16.097656 22.203125 15.460938 21.9375 14.667969 C 21.765625 14.152344 21.65625 13.46875 22.089844 13.15625 C 22.773438 12.667969 24.417969 13.050781 25.761719 13.992188 C 25.757812 14.078125 25.75 14.164062 25.738281 14.25 C 25.726562 14.355469 25.71875 14.460938 25.703125 14.566406 C 25.683594 14.6875 25.660156 14.808594 25.636719 14.929688 C 25.617188 15.03125 25.597656 15.136719 25.574219 15.238281 C 25.546875 15.355469 25.515625 15.472656 25.480469 15.59375 C 25.453125 15.691406 25.429688 15.792969 25.398438 15.890625 C 25.359375 16.007812 25.316406 16.125 25.273438 16.242188 C 25.238281 16.335938 25.207031 16.429688 25.167969 16.523438 C 25.121094 16.640625 25.0625 16.757812 25.007812 16.875 C 24.96875 16.960938 24.929688 17.050781 24.886719 17.136719 C 24.824219 17.257812 24.757812 17.375 24.691406 17.488281 C 24.644531 17.570312 24.601562 17.648438 24.554688 17.726562 C 24.476562 17.855469 24.386719 17.980469 24.300781 18.105469 C 24.257812 18.167969 24.21875 18.230469 24.171875 18.292969 C 24.039062 18.476562 23.894531 18.65625 23.742188 18.828125 C 23.332031 19.308594 22.863281 19.738281 22.355469 20.113281 Z M 14.722656 5.332031 C 15.574219 5.050781 16.460938 4.90625 17.363281 4.90625 C 19.257812 4.90625 21.078125 5.546875 22.550781 6.703125 C 21.742188 7.550781 21.097656 8.648438 20.820312 9.402344 C 20.78125 9.511719 20.734375 9.683594 20.683594 9.886719 C 20.601562 10.207031 20.351562 11.179688 20.164062 11.285156 C 20.164062 11.285156 20.085938 11.265625 19.9375 11.078125 C 19.453125 10.472656 18.695312 10.601562 18.023438 10.714844 C 17.148438 10.863281 16.597656 10.917969 16.222656 10.242188 C 15.78125 9.445312 15.070312 9.519531 14.546875 9.578125 C 14.261719 9.609375 13.988281 9.636719 13.746094 9.558594 C 12.773438 9.257812 12.507812 8.113281 12.945312 6.175781 C 13.476562 5.835938 14.070312 5.546875 14.722656 5.332031 Z M 11.984375 6.863281 C 11.675781 9.21875 12.601562 10.0625 13.5 10.34375 C 13.90625 10.472656 14.292969 10.433594 14.636719 10.394531 C 15.183594 10.339844 15.34375 10.351562 15.503906 10.640625 C 16.179688 11.859375 17.328125 11.667969 18.160156 11.523438 C 18.753906 11.425781 19.125 11.382812 19.296875 11.59375 C 19.570312 11.933594 19.855469 12.105469 20.152344 12.105469 C 20.203125 12.105469 20.257812 12.101562 20.3125 12.089844 C 21.003906 11.941406 21.269531 10.914062 21.480469 10.089844 C 21.523438 9.917969 21.558594 9.773438 21.59375 9.683594 C 21.773438 9.1875 22.324219 8.097656 23.160156 7.234375 C 23.253906 7.328125 23.355469 7.414062 23.445312 7.511719 C 24.453125 8.558594 25.171875 9.84375 25.523438 11.226562 C 25.675781 11.816406 25.75 12.421875 25.769531 13.023438 C 24.367188 12.195312 22.617188 11.765625 21.613281 12.488281 C 21.230469 12.761719 20.667969 13.441406 21.15625 14.929688 C 21.28125 15.304688 21.054688 15.648438 20.675781 16.175781 C 20.1875 16.847656 19.585938 17.683594 20.011719 18.890625 C 20.109375 19.175781 20.085938 19.570312 19.300781 20.152344 C 19.195312 19.707031 18.894531 19.3125 18.464844 19.117188 L 14.863281 17.351562 C 15.5 17 16.019531 16.625 16.101562 16.132812 C 16.140625 15.882812 16.058594 15.636719 15.867188 15.441406 C 15.65625 15.222656 15.65625 14.953125 15.675781 14.53125 C 15.695312 14.121094 15.71875 13.609375 15.335938 13.203125 C 14.953125 12.792969 14.265625 12.601562 13.101562 12.578125 C 12.632812 12.570312 12.242188 12.390625 11.902344 12.03125 C 11.089844 11.175781 10.761719 9.410156 10.785156 8.074219 C 11.140625 7.628906 11.542969 7.226562 11.984375 6.863281 Z M 10.015625 9.214844 C 10.144531 10.4375 10.523438 11.769531 11.304688 12.597656 C 11.796875 13.117188 12.398438 13.386719 13.089844 13.398438 C 14.1875 13.421875 14.59375 13.609375 14.738281 13.765625 C 14.875 13.910156 14.871094 14.136719 14.855469 14.496094 C 14.832031 14.957031 14.808594 15.527344 15.289062 15.996094 C 15.261719 16.113281 15.023438 16.351562 14.050781 16.851562 C 14.011719 16.871094 13.980469 16.886719 13.949219 16.902344 L 12.488281 16.1875 C 12.375 16.132812 12.238281 16.132812 12.125 16.191406 L 9.9375 17.28125 C 9.292969 16.078125 8.9375 14.726562 8.9375 13.335938 C 8.9375 11.867188 9.308594 10.46875 10.015625 9.214844 Z M 9.398438 18.425781 C 9.460938 18.425781 9.523438 18.410156 9.582031 18.378906 L 12.308594 17.015625 L 18.113281 19.859375 C 18.394531 19.984375 18.558594 20.277344 18.519531 20.570312 C 18.519531 20.574219 18.519531 20.578125 18.519531 20.578125 C 18.519531 20.582031 18.515625 20.585938 18.515625 20.589844 C 18.511719 20.644531 18.5 20.699219 18.476562 20.753906 C 18.476562 20.757812 18.472656 20.761719 18.46875 20.769531 C 18.441406 20.824219 18.40625 20.882812 18.351562 20.941406 C 18.347656 20.945312 18.347656 20.945312 18.347656 20.949219 C 18.15625 21.15625 17.785156 21.199219 17.574219 21.113281 L 17.460938 21.0625 C 17.445312 21.058594 17.433594 21.054688 17.417969 21.050781 L 13.550781 19.355469 C 13.34375 19.269531 13.101562 19.359375 13.007812 19.566406 C 12.917969 19.777344 13.011719 20.019531 13.21875 20.109375 L 17.125 21.820312 C 17.140625 21.824219 17.15625 21.832031 17.171875 21.835938 L 17.257812 21.871094 C 17.382812 21.921875 17.523438 21.953125 17.667969 21.96875 C 17.671875 21.96875 17.671875 21.96875 17.675781 21.96875 C 17.675781 21.96875 17.675781 21.96875 17.679688 21.96875 C 17.738281 21.976562 17.796875 21.984375 17.855469 21.984375 C 18.226562 21.984375 18.574219 21.84375 18.84375 21.601562 L 24.253906 20.59375 L 24.492188 20.542969 C 24.875 20.542969 25.175781 20.839844 25.175781 21.21875 C 25.175781 21.722656 24.59375 21.875 24.410156 21.910156 C 22.71875 22.246094 15.445312 23.914062 14.496094 24.132812 L 9.507812 22.738281 C 9.472656 22.726562 9.433594 22.722656 9.398438 22.722656 L 7.5 22.722656 L 7.5 18.425781 Z M 4.210938 17.652344 L 6.675781 17.652344 L 6.675781 23.40625 L 4.210938 23.40625 Z M 4.210938 17.652344 " fill-opacity="1" fill-rule="nonzero"/></g></svg>