<svg xmlns="http://www.w3.org/2000/svg" xmlns:xlink="http://www.w3.org/1999/xlink" width="40" zoomAndPan="magnify" viewBox="0 0 30 30.000001" height="40" preserveAspectRatio="xMidYMid meet" version="1.0"><defs><clipPath id="28d74f8fcb"><path d="M 3.386719 2.902344 L 26.613281 2.902344 L 26.613281 25.402344 L 3.386719 25.402344 Z M 3.386719 2.902344 " clip-rule="nonzero"/></clipPath></defs><g clip-path="url(#28d74f8fcb)"><path fill="#00bf63" d="M 25.289062 7.070312 L 15.734375 7.070312 L 18.296875 3.550781 C 18.417969 3.382812 18.378906 3.148438 18.214844 3.027344 C 18.046875 2.90625 17.8125 2.941406 17.691406 3.109375 L 15 6.808594 L 12.308594 3.109375 C 12.1875 2.941406 11.953125 2.90625 11.785156 3.027344 C 11.621094 3.148438 11.582031 3.382812 11.703125 3.550781 L 14.265625 7.070312 L 4.710938 7.070312 C 3.988281 7.070312 3.402344 7.65625 3.402344 8.378906 L 3.402344 22.597656 C 3.402344 23.320312 3.988281 23.90625 4.710938 23.90625 L 6.164062 23.90625 L 6.808594 25.195312 C 6.871094 25.324219 7 25.402344 7.144531 25.402344 L 22.855469 25.402344 C 23 25.402344 23.128906 25.324219 23.191406 25.195312 L 23.835938 23.90625 L 25.289062 23.90625 C 26.011719 23.90625 26.597656 23.320312 26.597656 22.597656 L 26.597656 8.378906 C 26.597656 7.65625 26.011719 7.070312 25.289062 7.070312 Z M 22.625 24.65625 L 7.375 24.65625 L 7 23.90625 L 23 23.90625 Z M 25.851562 22.597656 C 25.851562 22.90625 25.597656 23.160156 25.289062 23.160156 L 4.710938 23.160156 C 4.402344 23.160156 4.148438 22.90625 4.148438 22.597656 L 4.148438 8.378906 C 4.148438 8.070312 4.402344 7.820312 4.710938 7.820312 L 25.289062 7.820312 C 25.597656 7.820312 25.851562 8.070312 25.851562 8.378906 Z M 25.851562 22.597656 " fill-opacity="1" fill-rule="nonzero"/></g><path fill="#00bf63" d="M 19.675781 8.566406 L 6.207031 8.566406 C 5.484375 8.566406 4.898438 9.152344 4.898438 9.875 L 4.898438 21.101562 C 4.898438 21.824219 5.484375 22.410156 6.207031 22.410156 L 19.675781 22.410156 C 20.398438 22.410156 20.984375 21.824219 20.984375 21.101562 L 20.984375 9.875 C 20.984375 9.152344 20.398438 8.566406 19.675781 8.566406 Z M 20.238281 21.101562 C 20.238281 21.410156 19.984375 21.660156 19.675781 21.660156 L 6.207031 21.660156 C 5.898438 21.660156 5.644531 21.410156 5.644531 21.101562 L 5.644531 9.875 C 5.644531 9.566406 5.898438 9.316406 6.207031 9.316406 L 19.675781 9.316406 C 19.984375 9.316406 20.238281 9.566406 20.238281 9.875 Z M 20.238281 21.101562 " fill-opacity="1" fill-rule="nonzero"/><path fill="#00bf63" d="M 23.230469 8.941406 C 22.199219 8.941406 21.359375 9.78125 21.359375 10.8125 C 21.359375 11.84375 22.199219 12.683594 23.230469 12.683594 C 24.261719 12.683594 25.101562 11.84375 25.101562 10.8125 C 25.101562 9.78125 24.261719 8.941406 23.230469 8.941406 Z M 23.230469 11.933594 C 22.613281 11.933594 22.109375 11.429688 22.109375 10.8125 C 22.109375 10.191406 22.613281 9.6875 23.230469 9.6875 C 23.851562 9.6875 24.355469 10.191406 24.355469 10.8125 C 24.355469 11.429688 23.851562 11.933594 23.230469 11.933594 Z M 23.230469 11.933594 " fill-opacity="1" fill-rule="nonzero"/><path fill="#00bf63" d="M 24.726562 13.054688 L 21.734375 13.054688 C 21.527344 13.054688 21.359375 13.222656 21.359375 13.429688 L 21.359375 14.925781 C 21.359375 15.132812 21.527344 15.300781 21.734375 15.300781 L 24.726562 15.300781 C 24.933594 15.300781 25.101562 15.132812 25.101562 14.925781 L 25.101562 13.429688 C 25.101562 13.222656 24.933594 13.054688 24.726562 13.054688 Z M 24.355469 14.554688 L 22.109375 14.554688 L 22.109375 13.804688 L 24.355469 13.804688 Z M 24.355469 14.554688 " fill-opacity="1" fill-rule="nonzero"/><path fill="#00bf63" d="M 24.726562 15.675781 L 21.734375 15.675781 C 21.527344 15.675781 21.359375 15.84375 21.359375 16.050781 L 21.359375 21.660156 C 21.359375 21.867188 21.527344 22.035156 21.734375 22.035156 L 24.726562 22.035156 C 24.933594 22.035156 25.101562 21.867188 25.101562 21.660156 L 25.101562 16.050781 C 25.101562 15.84375 24.933594 15.675781 24.726562 15.675781 Z M 24.355469 21.289062 L 22.109375 21.289062 L 22.109375 16.421875 L 24.355469 16.421875 Z M 24.355469 21.289062 " fill-opacity="1" fill-rule="nonzero"/></svg>